<svg width="255" height="279" viewBox="0 0 255 279" fill="none" xmlns="http://www.w3.org/2000/svg">
<g clip-path="url(#clip0_1_117)">
<g filter="url(#filter0_d_1_117)">
<rect width="255" height="279" rx="10" fill="white"/>
<rect width="255" height="279" rx="10" stroke="#E7E9ED"/>
</g>
<g clip-path="url(#clip1_1_117)">
<circle cx="48" cy="229" r="16" fill="#34B3F2"/>
<path d="M47.2231 234H44.4028L44.4214 232.543H47.2231C48.188 232.543 48.992 232.342 49.6353 231.94C50.2785 231.532 50.7609 230.963 51.0825 230.233C51.4103 229.497 51.5742 228.638 51.5742 227.654V226.829C51.5742 226.056 51.4814 225.369 51.2959 224.769C51.1104 224.163 50.8382 223.653 50.4795 223.238C50.1208 222.818 49.6816 222.499 49.1621 222.283C48.6488 222.066 48.0581 221.958 47.3901 221.958H44.3472V220.492H47.3901C48.2746 220.492 49.0817 220.641 49.8115 220.938C50.5413 221.228 51.1691 221.652 51.6948 222.208C52.2267 222.759 52.6349 223.427 52.9194 224.212C53.2039 224.992 53.3462 225.87 53.3462 226.847V227.654C53.3462 228.632 53.2039 229.513 52.9194 230.298C52.6349 231.078 52.2236 231.743 51.6855 232.293C51.1536 232.843 50.5104 233.267 49.7559 233.564C49.0075 233.855 48.1632 234 47.2231 234ZM45.3584 220.492V234H43.5679V220.492H45.3584Z" fill="white"/>
</g>
<path d="M79.353 235H76.4121L76.4307 232.829H79.353C80.0828 232.829 80.6982 232.665 81.1992 232.337C81.7002 232.003 82.0775 231.518 82.3311 230.881C82.5908 230.244 82.7207 229.474 82.7207 228.571V227.912C82.7207 227.219 82.6465 226.61 82.498 226.084C82.3558 225.559 82.1424 225.117 81.8579 224.758C81.5734 224.399 81.224 224.13 80.8096 223.951C80.3952 223.765 79.9189 223.672 79.3809 223.672H76.3564V221.492H79.3809C80.2839 221.492 81.1095 221.647 81.8579 221.956C82.6125 222.259 83.265 222.695 83.8154 223.264C84.3659 223.833 84.7896 224.514 85.0864 225.305C85.3895 226.091 85.541 226.966 85.541 227.931V228.571C85.541 229.529 85.3895 230.405 85.0864 231.196C84.7896 231.988 84.3659 232.668 83.8154 233.237C83.2712 233.8 82.6187 234.236 81.8579 234.545C81.1034 234.848 80.2684 235 79.353 235ZM77.9893 221.492V235H75.2061V221.492H77.9893ZM86.7697 230.083V229.888C86.7697 229.152 86.8749 228.475 87.0852 227.856C87.2954 227.232 87.6016 226.691 88.0036 226.233C88.4056 225.775 88.9004 225.42 89.488 225.166C90.0756 224.906 90.7497 224.776 91.5104 224.776C92.2712 224.776 92.9484 224.906 93.5422 225.166C94.1359 225.42 94.6338 225.775 95.0358 226.233C95.444 226.691 95.7533 227.232 95.9636 227.856C96.1739 228.475 96.279 229.152 96.279 229.888V230.083C96.279 230.813 96.1739 231.49 95.9636 232.115C95.7533 232.733 95.444 233.274 95.0358 233.738C94.6338 234.196 94.139 234.552 93.5515 234.805C92.9639 235.059 92.2897 235.186 91.529 235.186C90.7683 235.186 90.091 235.059 89.4973 234.805C88.9097 234.552 88.4118 234.196 88.0036 233.738C87.6016 233.274 87.2954 232.733 87.0852 232.115C86.8749 231.49 86.7697 230.813 86.7697 230.083ZM89.4416 229.888V230.083C89.4416 230.504 89.4787 230.896 89.5529 231.261C89.6271 231.626 89.7447 231.948 89.9055 232.226C90.0725 232.498 90.2889 232.712 90.5549 232.866C90.8208 233.021 91.1455 233.098 91.529 233.098C91.9001 233.098 92.2186 233.021 92.4846 232.866C92.7505 232.712 92.9639 232.498 93.1247 232.226C93.2855 231.948 93.403 231.626 93.4772 231.261C93.5576 230.896 93.5979 230.504 93.5979 230.083V229.888C93.5979 229.48 93.5576 229.097 93.4772 228.738C93.403 228.373 93.2824 228.051 93.1154 227.773C92.9546 227.488 92.7412 227.266 92.4753 227.105C92.2093 226.944 91.8877 226.864 91.5104 226.864C91.1332 226.864 90.8116 226.944 90.5456 227.105C90.2858 227.266 90.0725 227.488 89.9055 227.773C89.7447 228.051 89.6271 228.373 89.5529 228.738C89.4787 229.097 89.4416 229.48 89.4416 229.888ZM100.393 227.151V235H97.7211V224.962H100.235L100.393 227.151ZM103.417 224.897L103.371 227.374C103.241 227.355 103.083 227.34 102.898 227.328C102.718 227.309 102.555 227.3 102.406 227.3C102.029 227.3 101.701 227.349 101.423 227.448C101.151 227.541 100.922 227.68 100.736 227.866C100.557 228.051 100.421 228.277 100.328 228.543C100.241 228.809 100.192 229.112 100.18 229.452L99.6415 229.285C99.6415 228.636 99.7064 228.039 99.8363 227.495C99.9662 226.944 100.155 226.465 100.402 226.057C100.656 225.648 100.965 225.333 101.33 225.11C101.695 224.888 102.112 224.776 102.582 224.776C102.731 224.776 102.882 224.789 103.037 224.813C103.192 224.832 103.318 224.86 103.417 224.897ZM108.069 235H105.379V224.071C105.379 223.311 105.527 222.67 105.824 222.151C106.127 221.625 106.551 221.229 107.095 220.963C107.646 220.691 108.298 220.555 109.053 220.555C109.3 220.555 109.538 220.574 109.767 220.611C109.996 220.642 110.219 220.682 110.435 220.731L110.407 222.745C110.29 222.714 110.166 222.692 110.036 222.68C109.906 222.667 109.755 222.661 109.582 222.661C109.26 222.661 108.985 222.717 108.756 222.828C108.533 222.933 108.363 223.091 108.246 223.301C108.128 223.512 108.069 223.768 108.069 224.071V235ZM110.073 224.962V226.854H103.885V224.962H110.073ZM117.212 232.597V224.962H119.884V235H117.369L117.212 232.597ZM117.509 230.538L118.297 230.519C118.297 231.187 118.22 231.809 118.065 232.384C117.911 232.953 117.679 233.448 117.369 233.868C117.06 234.283 116.671 234.607 116.2 234.842C115.73 235.071 115.177 235.186 114.54 235.186C114.051 235.186 113.6 235.118 113.185 234.981C112.777 234.839 112.425 234.62 112.128 234.323C111.837 234.02 111.608 233.633 111.441 233.163C111.28 232.687 111.2 232.115 111.2 231.447V224.962H113.872V231.465C113.872 231.762 113.906 232.013 113.974 232.217C114.048 232.421 114.15 232.588 114.28 232.718C114.41 232.848 114.561 232.94 114.735 232.996C114.914 233.052 115.112 233.08 115.328 233.08C115.879 233.08 116.312 232.968 116.627 232.746C116.949 232.523 117.175 232.22 117.304 231.836C117.441 231.447 117.509 231.014 117.509 230.538ZM127.152 232.226C127.152 232.034 127.096 231.861 126.985 231.707C126.874 231.552 126.666 231.41 126.363 231.28C126.066 231.144 125.637 231.02 125.074 230.909C124.567 230.797 124.093 230.658 123.654 230.491C123.221 230.318 122.844 230.111 122.522 229.87C122.207 229.628 121.96 229.344 121.78 229.016C121.601 228.682 121.511 228.302 121.511 227.875C121.511 227.454 121.601 227.059 121.78 226.688C121.966 226.316 122.229 225.989 122.569 225.704C122.915 225.413 123.336 225.188 123.831 225.027C124.332 224.86 124.894 224.776 125.519 224.776C126.391 224.776 127.139 224.916 127.764 225.194C128.395 225.472 128.877 225.856 129.211 226.344C129.552 226.827 129.722 227.377 129.722 227.996H127.05C127.05 227.736 126.994 227.504 126.883 227.3C126.778 227.09 126.611 226.926 126.382 226.808C126.159 226.684 125.868 226.623 125.51 226.623C125.213 226.623 124.956 226.675 124.74 226.78C124.523 226.879 124.356 227.015 124.239 227.188C124.127 227.355 124.072 227.541 124.072 227.745C124.072 227.9 124.103 228.039 124.165 228.163C124.233 228.28 124.341 228.388 124.489 228.487C124.638 228.586 124.829 228.679 125.064 228.766C125.306 228.846 125.603 228.92 125.955 228.988C126.679 229.137 127.325 229.332 127.894 229.573C128.463 229.808 128.915 230.129 129.249 230.538C129.583 230.94 129.75 231.468 129.75 232.124C129.75 232.569 129.651 232.978 129.453 233.349C129.255 233.72 128.97 234.044 128.599 234.323C128.228 234.595 127.783 234.808 127.263 234.963C126.75 235.111 126.172 235.186 125.528 235.186C124.594 235.186 123.803 235.019 123.153 234.685C122.51 234.351 122.021 233.927 121.688 233.414C121.36 232.894 121.196 232.362 121.196 231.818H123.729C123.741 232.183 123.834 232.477 124.007 232.699C124.186 232.922 124.412 233.083 124.684 233.182C124.962 233.281 125.262 233.33 125.584 233.33C125.93 233.33 126.218 233.284 126.447 233.191C126.676 233.092 126.849 232.962 126.966 232.801C127.09 232.634 127.152 232.443 127.152 232.226Z" fill="#161C2D"/>
<path d="M41.1055 80.0933C41.1055 79.8267 41.0645 79.5874 40.9824 79.3755C40.9072 79.1567 40.7637 78.9585 40.5518 78.7808C40.3398 78.5962 40.0425 78.415 39.6597 78.2373C39.2769 78.0596 38.7812 77.875 38.1729 77.6836C37.4961 77.4648 36.8535 77.2188 36.2451 76.9453C35.6436 76.6719 35.1104 76.354 34.6455 75.9917C34.1875 75.6226 33.8252 75.1953 33.5586 74.71C33.2988 74.2246 33.1689 73.6606 33.1689 73.0181C33.1689 72.396 33.3057 71.832 33.5791 71.3262C33.8525 70.8135 34.2354 70.376 34.7275 70.0137C35.2197 69.6445 35.8008 69.3608 36.4707 69.1626C37.1475 68.9644 37.8892 68.8652 38.6958 68.8652C39.7964 68.8652 40.7568 69.0635 41.5771 69.46C42.3975 69.8564 43.0332 70.3999 43.4844 71.0903C43.9424 71.7808 44.1714 72.5703 44.1714 73.459H41.1157C41.1157 73.0215 41.0234 72.6387 40.8389 72.3105C40.6611 71.9756 40.3877 71.7124 40.0186 71.521C39.6562 71.3296 39.1982 71.2339 38.6445 71.2339C38.1113 71.2339 37.667 71.3159 37.3115 71.48C36.9561 71.6372 36.6895 71.8525 36.5117 72.126C36.334 72.3926 36.2451 72.6934 36.2451 73.0283C36.2451 73.2812 36.3066 73.5103 36.4297 73.7153C36.5596 73.9204 36.751 74.1118 37.0039 74.2896C37.2568 74.4673 37.5679 74.6348 37.937 74.792C38.3062 74.9492 38.7334 75.103 39.2188 75.2534C40.0322 75.4995 40.7466 75.7764 41.3618 76.084C41.9839 76.3916 42.5034 76.7368 42.9204 77.1196C43.3374 77.5024 43.6519 77.9365 43.8638 78.4219C44.0757 78.9072 44.1816 79.4575 44.1816 80.0728C44.1816 80.7222 44.0552 81.3032 43.8022 81.8159C43.5493 82.3286 43.1836 82.7627 42.7051 83.1182C42.2266 83.4736 41.6558 83.7437 40.9927 83.9282C40.3296 84.1128 39.5879 84.2051 38.7676 84.2051C38.0293 84.2051 37.3013 84.1094 36.5835 83.918C35.8657 83.7197 35.2129 83.4224 34.625 83.0259C34.0439 82.6294 33.5791 82.1235 33.2305 81.5083C32.8818 80.8931 32.7075 80.165 32.7075 79.3242H35.7939C35.7939 79.7891 35.8657 80.1821 36.0093 80.5034C36.1528 80.8247 36.3545 81.0845 36.6143 81.2827C36.8809 81.481 37.1953 81.6245 37.5576 81.7134C37.9268 81.8022 38.3301 81.8467 38.7676 81.8467C39.3008 81.8467 39.7383 81.7715 40.0801 81.6211C40.4287 81.4707 40.6851 81.2622 40.8491 80.9956C41.02 80.729 41.1055 80.4282 41.1055 80.0933ZM50.6953 84.2051C49.834 84.2051 49.0615 84.0684 48.3779 83.7949C47.6943 83.5146 47.1133 83.1284 46.6348 82.6362C46.1631 82.144 45.8008 81.5732 45.5479 80.9238C45.2949 80.2676 45.1685 79.5703 45.1685 78.832V78.4219C45.1685 77.5811 45.2881 76.812 45.5273 76.1147C45.7666 75.4175 46.1084 74.8125 46.5527 74.2998C47.0039 73.7871 47.5508 73.394 48.1934 73.1206C48.8359 72.8403 49.5605 72.7002 50.3672 72.7002C51.1533 72.7002 51.8506 72.8301 52.459 73.0898C53.0674 73.3496 53.5767 73.7188 53.9868 74.1973C54.4038 74.6758 54.7183 75.25 54.9302 75.9199C55.1421 76.583 55.248 77.3213 55.248 78.1348V79.3652H46.4297V77.3965H52.3462V77.1709C52.3462 76.7607 52.271 76.395 52.1206 76.0737C51.9771 75.7456 51.7583 75.4858 51.4644 75.2944C51.1704 75.103 50.7944 75.0073 50.3364 75.0073C49.9468 75.0073 49.6118 75.0928 49.3315 75.2637C49.0513 75.4346 48.8223 75.6738 48.6445 75.9814C48.4736 76.2891 48.3438 76.6514 48.2549 77.0684C48.1729 77.4785 48.1318 77.9297 48.1318 78.4219V78.832C48.1318 79.2764 48.1934 79.6865 48.3164 80.0625C48.4463 80.4385 48.6274 80.7632 48.8599 81.0366C49.0991 81.3101 49.3862 81.522 49.7212 81.6724C50.063 81.8228 50.4492 81.8979 50.8799 81.8979C51.4131 81.8979 51.9087 81.7954 52.3667 81.5903C52.8315 81.3784 53.2314 81.0605 53.5664 80.6367L55.002 82.1953C54.7695 82.5303 54.4517 82.8516 54.0483 83.1592C53.6519 83.4668 53.1733 83.7197 52.6128 83.918C52.0522 84.1094 51.4131 84.2051 50.6953 84.2051ZM59.3213 75.2739V84H56.3682V72.9053H59.1367L59.3213 75.2739ZM58.8906 78.063H58.0908C58.0908 77.2427 58.1968 76.5044 58.4087 75.8481C58.6206 75.1851 58.918 74.6211 59.3008 74.1562C59.6836 73.6846 60.1382 73.3257 60.6646 73.0796C61.1978 72.8267 61.7925 72.7002 62.4487 72.7002C62.9683 72.7002 63.4434 72.7754 63.874 72.9258C64.3047 73.0762 64.6738 73.3154 64.9814 73.6436C65.2959 73.9717 65.5352 74.4058 65.6992 74.9458C65.8701 75.4858 65.9556 76.1455 65.9556 76.9248V84H62.9819V76.9146C62.9819 76.4224 62.9136 76.0396 62.7769 75.7661C62.6401 75.4927 62.4385 75.3013 62.1719 75.1919C61.9121 75.0757 61.5908 75.0176 61.208 75.0176C60.8115 75.0176 60.4663 75.0962 60.1724 75.2534C59.8853 75.4106 59.646 75.6294 59.4546 75.9097C59.27 76.1831 59.1299 76.5044 59.0342 76.8735C58.9385 77.2427 58.8906 77.6392 58.8906 78.063ZM70.8184 72.9053V84H67.855V72.9053H70.8184ZM67.6704 70.0137C67.6704 69.583 67.8208 69.2275 68.1216 68.9473C68.4224 68.667 68.8257 68.5269 69.3315 68.5269C69.8306 68.5269 70.2305 68.667 70.5312 68.9473C70.8389 69.2275 70.9927 69.583 70.9927 70.0137C70.9927 70.4443 70.8389 70.7998 70.5312 71.0801C70.2305 71.3604 69.8306 71.5005 69.3315 71.5005C68.8257 71.5005 68.4224 71.3604 68.1216 71.0801C67.8208 70.7998 67.6704 70.4443 67.6704 70.0137ZM72.2871 78.5654V78.3501C72.2871 77.5366 72.4033 76.7881 72.6357 76.1045C72.8682 75.4141 73.2065 74.8159 73.6509 74.3101C74.0952 73.8042 74.6421 73.4111 75.2915 73.1309C75.9409 72.8438 76.686 72.7002 77.5269 72.7002C78.3677 72.7002 79.1162 72.8438 79.7725 73.1309C80.4287 73.4111 80.979 73.8042 81.4233 74.3101C81.8745 74.8159 82.2163 75.4141 82.4487 76.1045C82.6812 76.7881 82.7974 77.5366 82.7974 78.3501V78.5654C82.7974 79.3721 82.6812 80.1206 82.4487 80.811C82.2163 81.4946 81.8745 82.0928 81.4233 82.6055C80.979 83.1113 80.4321 83.5044 79.7827 83.7847C79.1333 84.0649 78.3882 84.2051 77.5474 84.2051C76.7065 84.2051 75.958 84.0649 75.3018 83.7847C74.6523 83.5044 74.1021 83.1113 73.6509 82.6055C73.2065 82.0928 72.8682 81.4946 72.6357 80.811C72.4033 80.1206 72.2871 79.3721 72.2871 78.5654ZM75.2402 78.3501V78.5654C75.2402 79.0303 75.2812 79.4644 75.3633 79.8677C75.4453 80.271 75.5752 80.6265 75.7529 80.9341C75.9375 81.2349 76.1768 81.4707 76.4707 81.6416C76.7646 81.8125 77.1235 81.8979 77.5474 81.8979C77.9575 81.8979 78.3096 81.8125 78.6035 81.6416C78.8975 81.4707 79.1333 81.2349 79.311 80.9341C79.4888 80.6265 79.6187 80.271 79.7007 79.8677C79.7896 79.4644 79.834 79.0303 79.834 78.5654V78.3501C79.834 77.8989 79.7896 77.4751 79.7007 77.0786C79.6187 76.6753 79.4854 76.3198 79.3008 76.0122C79.123 75.6978 78.8872 75.4517 78.5933 75.2739C78.2993 75.0962 77.9438 75.0073 77.5269 75.0073C77.1099 75.0073 76.7544 75.0962 76.4604 75.2739C76.1733 75.4517 75.9375 75.6978 75.7529 76.0122C75.5752 76.3198 75.4453 76.6753 75.3633 77.0786C75.2812 77.4751 75.2402 77.8989 75.2402 78.3501ZM87.0654 75.3252V84H84.1123V72.9053H86.8911L87.0654 75.3252ZM90.4082 72.8335L90.3569 75.5713C90.2134 75.5508 90.0391 75.5337 89.834 75.52C89.6357 75.4995 89.4546 75.4893 89.2905 75.4893C88.8735 75.4893 88.5112 75.5439 88.2036 75.6533C87.9028 75.7559 87.6499 75.9097 87.4448 76.1147C87.2466 76.3198 87.0962 76.5693 86.9937 76.8633C86.8979 77.1572 86.8433 77.4922 86.8296 77.8682L86.2349 77.6836C86.2349 76.9658 86.3066 76.3062 86.4502 75.7046C86.5938 75.0962 86.8022 74.5664 87.0757 74.1152C87.356 73.6641 87.6978 73.3154 88.1011 73.0693C88.5044 72.8232 88.9658 72.7002 89.4854 72.7002C89.6494 72.7002 89.8169 72.7139 89.9878 72.7412C90.1587 72.7617 90.2988 72.7925 90.4082 72.8335ZM103.989 80.0933C103.989 79.8267 103.948 79.5874 103.866 79.3755C103.791 79.1567 103.647 78.9585 103.436 78.7808C103.224 78.5962 102.926 78.415 102.543 78.2373C102.161 78.0596 101.665 77.875 101.057 77.6836C100.38 77.4648 99.7373 77.2188 99.1289 76.9453C98.5273 76.6719 97.9941 76.354 97.5293 75.9917C97.0713 75.6226 96.709 75.1953 96.4424 74.71C96.1826 74.2246 96.0527 73.6606 96.0527 73.0181C96.0527 72.396 96.1895 71.832 96.4629 71.3262C96.7363 70.8135 97.1191 70.376 97.6113 70.0137C98.1035 69.6445 98.6846 69.3608 99.3545 69.1626C100.031 68.9644 100.773 68.8652 101.58 68.8652C102.68 68.8652 103.641 69.0635 104.461 69.46C105.281 69.8564 105.917 70.3999 106.368 71.0903C106.826 71.7808 107.055 72.5703 107.055 73.459H104C104 73.0215 103.907 72.6387 103.723 72.3105C103.545 71.9756 103.271 71.7124 102.902 71.521C102.54 71.3296 102.082 71.2339 101.528 71.2339C100.995 71.2339 100.551 71.3159 100.195 71.48C99.8398 71.6372 99.5732 71.8525 99.3955 72.126C99.2178 72.3926 99.1289 72.6934 99.1289 73.0283C99.1289 73.2812 99.1904 73.5103 99.3135 73.7153C99.4434 73.9204 99.6348 74.1118 99.8877 74.2896C100.141 74.4673 100.452 74.6348 100.821 74.792C101.19 74.9492 101.617 75.103 102.103 75.2534C102.916 75.4995 103.63 75.7764 104.246 76.084C104.868 76.3916 105.387 76.7368 105.804 77.1196C106.221 77.5024 106.536 77.9365 106.748 78.4219C106.959 78.9072 107.065 79.4575 107.065 80.0728C107.065 80.7222 106.939 81.3032 106.686 81.8159C106.433 82.3286 106.067 82.7627 105.589 83.1182C105.11 83.4736 104.54 83.7437 103.876 83.9282C103.213 84.1128 102.472 84.2051 101.651 84.2051C100.913 84.2051 100.185 84.1094 99.4673 83.918C98.7495 83.7197 98.0967 83.4224 97.5088 83.0259C96.9277 82.6294 96.4629 82.1235 96.1143 81.5083C95.7656 80.8931 95.5913 80.165 95.5913 79.3242H98.6777C98.6777 79.7891 98.7495 80.1821 98.8931 80.5034C99.0366 80.8247 99.2383 81.0845 99.498 81.2827C99.7646 81.481 100.079 81.6245 100.441 81.7134C100.811 81.8022 101.214 81.8467 101.651 81.8467C102.185 81.8467 102.622 81.7715 102.964 81.6211C103.312 81.4707 103.569 81.2622 103.733 80.9956C103.904 80.729 103.989 80.4282 103.989 80.0933ZM108.001 78.5654V78.3501C108.001 77.5366 108.117 76.7881 108.35 76.1045C108.582 75.4141 108.92 74.8159 109.365 74.3101C109.809 73.8042 110.356 73.4111 111.005 73.1309C111.655 72.8438 112.4 72.7002 113.241 72.7002C114.082 72.7002 114.83 72.8438 115.486 73.1309C116.143 73.4111 116.693 73.8042 117.137 74.3101C117.588 74.8159 117.93 75.4141 118.163 76.1045C118.395 76.7881 118.511 77.5366 118.511 78.3501V78.5654C118.511 79.3721 118.395 80.1206 118.163 80.811C117.93 81.4946 117.588 82.0928 117.137 82.6055C116.693 83.1113 116.146 83.5044 115.497 83.7847C114.847 84.0649 114.102 84.2051 113.261 84.2051C112.42 84.2051 111.672 84.0649 111.016 83.7847C110.366 83.5044 109.816 83.1113 109.365 82.6055C108.92 82.0928 108.582 81.4946 108.35 80.811C108.117 80.1206 108.001 79.3721 108.001 78.5654ZM110.954 78.3501V78.5654C110.954 79.0303 110.995 79.4644 111.077 79.8677C111.159 80.271 111.289 80.6265 111.467 80.9341C111.651 81.2349 111.891 81.4707 112.185 81.6416C112.479 81.8125 112.837 81.8979 113.261 81.8979C113.671 81.8979 114.023 81.8125 114.317 81.6416C114.611 81.4707 114.847 81.2349 115.025 80.9341C115.203 80.6265 115.333 80.271 115.415 79.8677C115.503 79.4644 115.548 79.0303 115.548 78.5654V78.3501C115.548 77.8989 115.503 77.4751 115.415 77.0786C115.333 76.6753 115.199 76.3198 115.015 76.0122C114.837 75.6978 114.601 75.4517 114.307 75.2739C114.013 75.0962 113.658 75.0073 113.241 75.0073C112.824 75.0073 112.468 75.0962 112.174 75.2739C111.887 75.4517 111.651 75.6978 111.467 76.0122C111.289 76.3198 111.159 76.6753 111.077 77.0786C110.995 77.4751 110.954 77.8989 110.954 78.3501ZM123.589 84H120.616V71.9209C120.616 71.0801 120.78 70.3726 121.108 69.7983C121.443 69.2173 121.911 68.7798 122.513 68.4858C123.121 68.1851 123.842 68.0347 124.676 68.0347C124.95 68.0347 125.213 68.0552 125.466 68.0962C125.719 68.1304 125.965 68.1748 126.204 68.2295L126.173 70.4546C126.043 70.4204 125.907 70.3965 125.763 70.3828C125.62 70.3691 125.452 70.3623 125.261 70.3623C124.905 70.3623 124.601 70.4238 124.348 70.5469C124.102 70.6631 123.914 70.8374 123.784 71.0698C123.654 71.3022 123.589 71.5859 123.589 71.9209V84ZM125.804 72.9053V74.9971H118.965V72.9053H125.804ZM132.287 72.9053V74.9971H125.827V72.9053H132.287ZM127.427 70.1675H130.38V80.6572C130.38 80.9785 130.421 81.2246 130.503 81.3955C130.592 81.5664 130.722 81.686 130.893 81.7544C131.063 81.8159 131.279 81.8467 131.539 81.8467C131.723 81.8467 131.887 81.8398 132.031 81.8262C132.181 81.8057 132.308 81.7852 132.41 81.7646L132.42 83.9385C132.167 84.0205 131.894 84.0854 131.6 84.1333C131.306 84.1812 130.981 84.2051 130.626 84.2051C129.977 84.2051 129.409 84.0991 128.924 83.8872C128.445 83.6685 128.076 83.3198 127.816 82.8413C127.557 82.3628 127.427 81.7339 127.427 80.9546V70.1675ZM136.637 81.1289L138.944 72.9053H140.821L140.216 76.1353L137.909 84H136.34L136.637 81.1289ZM135.468 72.9053L137.119 81.1187L137.273 84H135.427L132.618 72.9053H135.468ZM142.933 80.9854L144.543 72.9053H147.404L144.594 84H142.759L142.933 80.9854ZM141.077 72.9053L143.374 81.0674L143.692 84H142.113L139.806 76.1455L139.221 72.9053H141.077ZM154.379 81.498V76.5557C154.379 76.2002 154.321 75.896 154.205 75.6431C154.088 75.3833 153.907 75.1816 153.661 75.0381C153.422 74.8945 153.111 74.8228 152.728 74.8228C152.4 74.8228 152.116 74.8809 151.877 74.9971C151.638 75.1064 151.453 75.2671 151.323 75.479C151.193 75.6841 151.128 75.9268 151.128 76.207H148.175C148.175 75.7354 148.285 75.2876 148.503 74.8638C148.722 74.4399 149.04 74.0674 149.457 73.7461C149.874 73.418 150.37 73.1616 150.944 72.9771C151.525 72.7925 152.174 72.7002 152.892 72.7002C153.753 72.7002 154.519 72.8438 155.189 73.1309C155.859 73.418 156.385 73.8486 156.768 74.4229C157.158 74.9971 157.353 75.7148 157.353 76.5762V81.3237C157.353 81.9321 157.39 82.4312 157.465 82.8208C157.541 83.2036 157.65 83.5386 157.793 83.8257V84H154.81C154.666 83.6992 154.557 83.3232 154.481 82.8721C154.413 82.4141 154.379 81.9561 154.379 81.498ZM154.769 77.2427L154.789 78.9141H153.138C152.749 78.9141 152.41 78.9585 152.123 79.0474C151.836 79.1362 151.6 79.2627 151.416 79.4268C151.231 79.584 151.094 79.7686 151.005 79.9805C150.923 80.1924 150.882 80.4248 150.882 80.6777C150.882 80.9307 150.94 81.1597 151.057 81.3647C151.173 81.563 151.34 81.7202 151.559 81.8364C151.778 81.9458 152.034 82.0005 152.328 82.0005C152.772 82.0005 153.159 81.9116 153.487 81.7339C153.815 81.5562 154.068 81.3374 154.246 81.0776C154.43 80.8179 154.526 80.5718 154.533 80.3394L155.312 81.5903C155.203 81.8706 155.052 82.1611 154.861 82.4619C154.676 82.7627 154.44 83.0464 154.153 83.313C153.866 83.5728 153.521 83.7881 153.118 83.959C152.714 84.123 152.236 84.2051 151.682 84.2051C150.978 84.2051 150.339 84.0649 149.765 83.7847C149.197 83.4976 148.746 83.1045 148.411 82.6055C148.083 82.0996 147.919 81.5254 147.919 80.8828C147.919 80.3018 148.028 79.7856 148.247 79.3345C148.466 78.8833 148.787 78.5039 149.211 78.1963C149.642 77.8818 150.178 77.646 150.821 77.4888C151.463 77.3247 152.208 77.2427 153.056 77.2427H154.769ZM162.082 75.3252V84H159.129V72.9053H161.908L162.082 75.3252ZM165.425 72.8335L165.374 75.5713C165.23 75.5508 165.056 75.5337 164.851 75.52C164.652 75.4995 164.471 75.4893 164.307 75.4893C163.89 75.4893 163.528 75.5439 163.22 75.6533C162.919 75.7559 162.667 75.9097 162.461 76.1147C162.263 76.3198 162.113 76.5693 162.01 76.8633C161.915 77.1572 161.86 77.4922 161.846 77.8682L161.251 77.6836C161.251 76.9658 161.323 76.3062 161.467 75.7046C161.61 75.0962 161.819 74.5664 162.092 74.1152C162.373 73.6641 162.714 73.3154 163.118 73.0693C163.521 72.8232 163.982 72.7002 164.502 72.7002C164.666 72.7002 164.833 72.7139 165.004 72.7412C165.175 72.7617 165.315 72.7925 165.425 72.8335ZM171.221 84.2051C170.359 84.2051 169.587 84.0684 168.903 83.7949C168.22 83.5146 167.639 83.1284 167.16 82.6362C166.688 82.144 166.326 81.5732 166.073 80.9238C165.82 80.2676 165.694 79.5703 165.694 78.832V78.4219C165.694 77.5811 165.813 76.812 166.053 76.1147C166.292 75.4175 166.634 74.8125 167.078 74.2998C167.529 73.7871 168.076 73.394 168.719 73.1206C169.361 72.8403 170.086 72.7002 170.893 72.7002C171.679 72.7002 172.376 72.8301 172.984 73.0898C173.593 73.3496 174.102 73.7188 174.512 74.1973C174.929 74.6758 175.244 75.25 175.456 75.9199C175.667 76.583 175.773 77.3213 175.773 78.1348V79.3652H166.955V77.3965H172.872V77.1709C172.872 76.7607 172.796 76.395 172.646 76.0737C172.502 75.7456 172.284 75.4858 171.99 75.2944C171.696 75.103 171.32 75.0073 170.862 75.0073C170.472 75.0073 170.137 75.0928 169.857 75.2637C169.577 75.4346 169.348 75.6738 169.17 75.9814C168.999 76.2891 168.869 76.6514 168.78 77.0684C168.698 77.4785 168.657 77.9297 168.657 78.4219V78.832C168.657 79.2764 168.719 79.6865 168.842 80.0625C168.972 80.4385 169.153 80.7632 169.385 81.0366C169.625 81.3101 169.912 81.522 170.247 81.6724C170.588 81.8228 170.975 81.8979 171.405 81.8979C171.938 81.8979 172.434 81.7954 172.892 81.5903C173.357 81.3784 173.757 81.0605 174.092 80.6367L175.527 82.1953C175.295 82.5303 174.977 82.8516 174.574 83.1592C174.177 83.4668 173.699 83.7197 173.138 83.918C172.578 84.1094 171.938 84.2051 171.221 84.2051ZM43.3511 113.601V116H35.4043V113.601H43.3511ZM36.4092 101.07V116H33.333V101.07H36.4092ZM42.3154 107.151V109.489H35.4043V107.151H42.3154ZM43.3408 101.07V103.48H35.4043V101.07H43.3408ZM47.3525 107.274V116H44.3994V104.905H47.168L47.3525 107.274ZM46.9219 110.063H46.1221C46.1221 109.243 46.228 108.504 46.4399 107.848C46.6519 107.185 46.9492 106.621 47.332 106.156C47.7148 105.685 48.1694 105.326 48.6958 105.08C49.229 104.827 49.8237 104.7 50.48 104.7C50.9995 104.7 51.4746 104.775 51.9053 104.926C52.3359 105.076 52.7051 105.315 53.0127 105.644C53.3271 105.972 53.5664 106.406 53.7305 106.946C53.9014 107.486 53.9868 108.146 53.9868 108.925V116H51.0132V108.915C51.0132 108.422 50.9448 108.04 50.8081 107.766C50.6714 107.493 50.4697 107.301 50.2031 107.192C49.9434 107.076 49.6221 107.018 49.2393 107.018C48.8428 107.018 48.4976 107.096 48.2036 107.253C47.9165 107.411 47.6772 107.629 47.4858 107.91C47.3013 108.183 47.1611 108.504 47.0654 108.874C46.9697 109.243 46.9219 109.639 46.9219 110.063ZM62.7563 104.905H65.4326V115.631C65.4326 116.643 65.207 117.5 64.7559 118.205C64.3115 118.916 63.6895 119.452 62.8896 119.814C62.0898 120.184 61.1602 120.368 60.1006 120.368C59.6357 120.368 59.1436 120.307 58.624 120.184C58.1113 120.061 57.6191 119.869 57.1475 119.609C56.6826 119.35 56.293 119.021 55.9785 118.625L57.2808 116.882C57.6226 117.278 58.019 117.586 58.4702 117.805C58.9214 118.03 59.4204 118.143 59.9673 118.143C60.5005 118.143 60.9517 118.044 61.3208 117.846C61.6899 117.654 61.9736 117.371 62.1719 116.995C62.3701 116.625 62.4692 116.178 62.4692 115.651V107.469L62.7563 104.905ZM55.2915 110.586V110.371C55.2915 109.523 55.394 108.754 55.5991 108.063C55.811 107.366 56.1084 106.768 56.4912 106.269C56.8809 105.77 57.3525 105.384 57.9062 105.11C58.46 104.837 59.0854 104.7 59.7827 104.7C60.521 104.7 61.1396 104.837 61.6387 105.11C62.1377 105.384 62.5479 105.773 62.8691 106.279C63.1904 106.778 63.4399 107.37 63.6177 108.053C63.8022 108.73 63.9458 109.472 64.0483 110.278V110.75C63.9458 111.522 63.792 112.24 63.5869 112.903C63.3818 113.566 63.1118 114.147 62.7769 114.646C62.4419 115.139 62.0249 115.521 61.5259 115.795C61.0337 116.068 60.4458 116.205 59.7622 116.205C59.0786 116.205 58.46 116.065 57.9062 115.785C57.3594 115.504 56.8911 115.111 56.5015 114.605C56.1118 114.1 55.811 113.505 55.5991 112.821C55.394 112.138 55.2915 111.393 55.2915 110.586ZM58.2446 110.371V110.586C58.2446 111.044 58.2891 111.471 58.3779 111.868C58.4668 112.264 58.6035 112.616 58.7881 112.924C58.9795 113.225 59.2153 113.46 59.4956 113.631C59.7827 113.795 60.1211 113.877 60.5107 113.877C61.0508 113.877 61.4917 113.765 61.8335 113.539C62.1753 113.307 62.4316 112.989 62.6025 112.585C62.7734 112.182 62.8726 111.717 62.8999 111.191V109.848C62.8862 109.417 62.8281 109.031 62.7256 108.689C62.623 108.34 62.4795 108.043 62.2949 107.797C62.1104 107.551 61.8711 107.359 61.5771 107.223C61.2832 107.086 60.9346 107.018 60.5312 107.018C60.1416 107.018 59.8032 107.106 59.5161 107.284C59.2358 107.455 59 107.691 58.8086 107.992C58.624 108.292 58.4839 108.648 58.3882 109.058C58.2925 109.461 58.2446 109.899 58.2446 110.371ZM70.3467 104.905V116H67.3833V104.905H70.3467ZM67.1987 102.014C67.1987 101.583 67.3491 101.228 67.6499 100.947C67.9507 100.667 68.354 100.527 68.8599 100.527C69.3589 100.527 69.7588 100.667 70.0596 100.947C70.3672 101.228 70.521 101.583 70.521 102.014C70.521 102.444 70.3672 102.8 70.0596 103.08C69.7588 103.36 69.3589 103.5 68.8599 103.5C68.354 103.5 67.9507 103.36 67.6499 103.08C67.3491 102.8 67.1987 102.444 67.1987 102.014ZM75.1787 107.274V116H72.2256V104.905H74.9941L75.1787 107.274ZM74.748 110.063H73.9482C73.9482 109.243 74.0542 108.504 74.2661 107.848C74.478 107.185 74.7754 106.621 75.1582 106.156C75.541 105.685 75.9956 105.326 76.522 105.08C77.0552 104.827 77.6499 104.7 78.3062 104.7C78.8257 104.7 79.3008 104.775 79.7314 104.926C80.1621 105.076 80.5312 105.315 80.8389 105.644C81.1533 105.972 81.3926 106.406 81.5566 106.946C81.7275 107.486 81.813 108.146 81.813 108.925V116H78.8394V108.915C78.8394 108.422 78.771 108.04 78.6343 107.766C78.4976 107.493 78.2959 107.301 78.0293 107.192C77.7695 107.076 77.4482 107.018 77.0654 107.018C76.6689 107.018 76.3237 107.096 76.0298 107.253C75.7427 107.411 75.5034 107.629 75.312 107.91C75.1274 108.183 74.9873 108.504 74.8916 108.874C74.7959 109.243 74.748 109.639 74.748 110.063ZM88.665 116.205C87.8037 116.205 87.0312 116.068 86.3477 115.795C85.6641 115.515 85.083 115.128 84.6045 114.636C84.1328 114.144 83.7705 113.573 83.5176 112.924C83.2646 112.268 83.1382 111.57 83.1382 110.832V110.422C83.1382 109.581 83.2578 108.812 83.4971 108.115C83.7363 107.417 84.0781 106.812 84.5225 106.3C84.9736 105.787 85.5205 105.394 86.1631 105.121C86.8057 104.84 87.5303 104.7 88.3369 104.7C89.123 104.7 89.8203 104.83 90.4287 105.09C91.0371 105.35 91.5464 105.719 91.9565 106.197C92.3735 106.676 92.688 107.25 92.8999 107.92C93.1118 108.583 93.2178 109.321 93.2178 110.135V111.365H84.3994V109.396H90.3159V109.171C90.3159 108.761 90.2407 108.395 90.0903 108.074C89.9468 107.746 89.728 107.486 89.4341 107.294C89.1401 107.103 88.7642 107.007 88.3062 107.007C87.9165 107.007 87.5815 107.093 87.3013 107.264C87.021 107.435 86.792 107.674 86.6143 107.981C86.4434 108.289 86.3135 108.651 86.2246 109.068C86.1426 109.479 86.1016 109.93 86.1016 110.422V110.832C86.1016 111.276 86.1631 111.687 86.2861 112.062C86.416 112.438 86.5972 112.763 86.8296 113.037C87.0688 113.31 87.356 113.522 87.6909 113.672C88.0327 113.823 88.4189 113.898 88.8496 113.898C89.3828 113.898 89.8784 113.795 90.3364 113.59C90.8013 113.378 91.2012 113.061 91.5361 112.637L92.9717 114.195C92.7393 114.53 92.4214 114.852 92.0181 115.159C91.6216 115.467 91.1431 115.72 90.5825 115.918C90.022 116.109 89.3828 116.205 88.665 116.205ZM99.5059 116.205C98.6445 116.205 97.8721 116.068 97.1885 115.795C96.5049 115.515 95.9238 115.128 95.4453 114.636C94.9736 114.144 94.6113 113.573 94.3584 112.924C94.1055 112.268 93.979 111.57 93.979 110.832V110.422C93.979 109.581 94.0986 108.812 94.3379 108.115C94.5771 107.417 94.9189 106.812 95.3633 106.3C95.8145 105.787 96.3613 105.394 97.0039 105.121C97.6465 104.84 98.3711 104.7 99.1777 104.7C99.9639 104.7 100.661 104.83 101.27 105.09C101.878 105.35 102.387 105.719 102.797 106.197C103.214 106.676 103.529 107.25 103.741 107.92C103.953 108.583 104.059 109.321 104.059 110.135V111.365H95.2402V109.396H101.157V109.171C101.157 108.761 101.082 108.395 100.931 108.074C100.788 107.746 100.569 107.486 100.275 107.294C99.981 107.103 99.605 107.007 99.147 107.007C98.7573 107.007 98.4224 107.093 98.1421 107.264C97.8618 107.435 97.6328 107.674 97.4551 107.981C97.2842 108.289 97.1543 108.651 97.0654 109.068C96.9834 109.479 96.9424 109.93 96.9424 110.422V110.832C96.9424 111.276 97.0039 111.687 97.127 112.062C97.2568 112.438 97.438 112.763 97.6704 113.037C97.9097 113.31 98.1968 113.522 98.5317 113.672C98.8735 113.823 99.2598 113.898 99.6904 113.898C100.224 113.898 100.719 113.795 101.177 113.59C101.642 113.378 102.042 113.061 102.377 112.637L103.812 114.195C103.58 114.53 103.262 114.852 102.859 115.159C102.462 115.467 101.984 115.72 101.423 115.918C100.863 116.109 100.224 116.205 99.5059 116.205ZM108.193 107.325V116H105.24V104.905H108.019L108.193 107.325ZM111.536 104.833L111.485 107.571C111.341 107.551 111.167 107.534 110.962 107.52C110.764 107.5 110.583 107.489 110.418 107.489C110.001 107.489 109.639 107.544 109.332 107.653C109.031 107.756 108.778 107.91 108.573 108.115C108.375 108.32 108.224 108.569 108.122 108.863C108.026 109.157 107.971 109.492 107.958 109.868L107.363 109.684C107.363 108.966 107.435 108.306 107.578 107.705C107.722 107.096 107.93 106.566 108.204 106.115C108.484 105.664 108.826 105.315 109.229 105.069C109.632 104.823 110.094 104.7 110.613 104.7C110.777 104.7 110.945 104.714 111.116 104.741C111.287 104.762 111.427 104.792 111.536 104.833Z" fill="#161C2D"/>
<path opacity="0.7" d="M41.4409 137.336V148H40.02L34.6514 139.775V148H33.2378V137.336H34.6514L40.042 145.583V137.336H41.4409ZM46.9293 148.146C46.3775 148.146 45.8771 148.054 45.4278 147.868C44.9835 147.678 44.6002 147.412 44.2779 147.07C43.9605 146.728 43.7164 146.323 43.5455 145.854C43.3746 145.385 43.2892 144.873 43.2892 144.316V144.008C43.2892 143.364 43.3844 142.79 43.5748 142.287C43.7652 141.779 44.024 141.35 44.3512 140.998C44.6783 140.646 45.0494 140.38 45.4645 140.2C45.8795 140.019 46.3092 139.929 46.7535 139.929C47.3199 139.929 47.8082 140.026 48.2184 140.222C48.6334 140.417 48.9728 140.69 49.2364 141.042C49.5001 141.389 49.6954 141.799 49.8224 142.272C49.9493 142.741 50.0128 143.254 50.0128 143.811V144.418H44.0948V143.312H48.6578V143.21C48.6383 142.858 48.565 142.517 48.4381 142.185C48.316 141.853 48.1207 141.579 47.8521 141.364C47.5836 141.149 47.2174 141.042 46.7535 141.042C46.4459 141.042 46.1627 141.108 45.9039 141.24C45.6451 141.367 45.4229 141.557 45.2374 141.811C45.0519 142.065 44.9078 142.375 44.8053 142.741C44.7027 143.107 44.6515 143.53 44.6515 144.008V144.316C44.6515 144.692 44.7027 145.046 44.8053 145.378C44.9127 145.705 45.0665 145.993 45.2667 146.242C45.4718 146.491 45.7184 146.687 46.0064 146.828C46.2994 146.97 46.6314 147.041 47.0025 147.041C47.4811 147.041 47.8863 146.943 48.2184 146.748C48.5504 146.552 48.8409 146.291 49.0899 145.964L49.9103 146.616C49.7394 146.875 49.5221 147.121 49.2584 147.355C48.9947 147.59 48.67 147.78 48.2843 147.927C47.9034 148.073 47.4518 148.146 46.9293 148.146ZM53.5017 146.594L55.5378 140.075H56.4313L56.2556 141.372L54.1828 148H53.3112L53.5017 146.594ZM52.132 140.075L53.8679 146.667L53.9924 148H53.0769L50.7771 140.075H52.132ZM58.3796 146.616L60.0349 140.075H61.3825L59.0827 148H58.1745L58.3796 146.616ZM56.6291 140.075L58.6213 146.484L58.8483 148H57.9841L55.8527 141.357L55.677 140.075H56.6291ZM66.9906 137.336L69.7592 142.69L72.5351 137.336H74.1391L70.4623 144.016V148H69.0487V144.016L65.372 137.336H66.9906ZM74.3613 144.125V143.957C74.3613 143.386 74.4443 142.856 74.6104 142.368C74.7764 141.875 75.0156 141.447 75.3281 141.086C75.6406 140.72 76.019 140.437 76.4634 140.236C76.9077 140.031 77.4058 139.929 77.9575 139.929C78.5142 139.929 79.0146 140.031 79.459 140.236C79.9082 140.437 80.2891 140.72 80.6016 141.086C80.9189 141.447 81.1606 141.875 81.3267 142.368C81.4927 142.856 81.5757 143.386 81.5757 143.957V144.125C81.5757 144.697 81.4927 145.227 81.3267 145.715C81.1606 146.203 80.9189 146.63 80.6016 146.997C80.2891 147.358 79.9106 147.641 79.4663 147.846C79.0269 148.046 78.5288 148.146 77.9722 148.146C77.4155 148.146 76.915 148.046 76.4707 147.846C76.0264 147.641 75.6455 147.358 75.3281 146.997C75.0156 146.63 74.7764 146.203 74.6104 145.715C74.4443 145.227 74.3613 144.697 74.3613 144.125ZM75.7163 143.957V144.125C75.7163 144.521 75.7627 144.895 75.8555 145.246C75.9482 145.593 76.0874 145.9 76.2729 146.169C76.4634 146.438 76.7002 146.65 76.9834 146.806C77.2666 146.958 77.5962 147.033 77.9722 147.033C78.3433 147.033 78.668 146.958 78.9463 146.806C79.2295 146.65 79.4639 146.438 79.6494 146.169C79.835 145.9 79.9741 145.593 80.0669 145.246C80.1646 144.895 80.2134 144.521 80.2134 144.125V143.957C80.2134 143.566 80.1646 143.198 80.0669 142.851C79.9741 142.5 79.8325 142.189 79.6421 141.921C79.4565 141.647 79.2222 141.433 78.939 141.276C78.6606 141.12 78.3335 141.042 77.9575 141.042C77.5864 141.042 77.2593 141.12 76.9761 141.276C76.6978 141.433 76.4634 141.647 76.2729 141.921C76.0874 142.189 75.9482 142.5 75.8555 142.851C75.7627 143.198 75.7163 143.566 75.7163 143.957ZM84.5299 141.32V148H83.1749V140.075H84.4933L84.5299 141.32ZM87.0055 140.031L86.9981 141.291C86.8858 141.267 86.7784 141.252 86.6759 141.247C86.5782 141.237 86.4659 141.232 86.339 141.232C86.0265 141.232 85.7506 141.281 85.5113 141.379C85.2721 141.477 85.0694 141.613 84.9034 141.789C84.7374 141.965 84.6056 142.175 84.5079 142.419C84.4151 142.658 84.3541 142.922 84.3248 143.21L83.9439 143.43C83.9439 142.951 83.9903 142.502 84.0831 142.082C84.1808 141.662 84.3297 141.291 84.5299 140.969C84.7301 140.642 84.984 140.388 85.2916 140.207C85.6041 140.021 85.9752 139.929 86.4049 139.929C86.5025 139.929 86.6148 139.941 86.7418 139.965C86.8688 139.985 86.9566 140.007 87.0055 140.031ZM89.5202 136.75V148H88.1579V136.75H89.5202ZM94.3615 140.075L90.9045 143.774L88.9709 145.781L88.861 144.338L90.2453 142.683L92.7062 140.075H94.3615ZM93.1237 148L90.2966 144.221L90.9997 143.012L94.7204 148H93.1237ZM96.8909 146.389V147.48C96.8909 147.924 96.7786 148.393 96.554 148.886C96.3294 149.384 96.0145 149.799 95.6092 150.131L94.8401 149.597C94.9964 149.382 95.1282 149.162 95.2356 148.938C95.3431 148.718 95.4236 148.488 95.4773 148.249C95.5359 148.015 95.5652 147.766 95.5652 147.502V146.389H96.8909ZM108.446 137.336H109.853V144.55C109.853 145.351 109.674 146.018 109.318 146.55C108.961 147.082 108.488 147.482 107.897 147.751C107.311 148.015 106.674 148.146 105.985 148.146C105.263 148.146 104.608 148.015 104.022 147.751C103.441 147.482 102.98 147.082 102.638 146.55C102.301 146.018 102.133 145.351 102.133 144.55V137.336H103.532V144.55C103.532 145.107 103.634 145.566 103.839 145.927C104.044 146.289 104.33 146.557 104.696 146.733C105.067 146.909 105.497 146.997 105.985 146.997C106.479 146.997 106.908 146.909 107.274 146.733C107.646 146.557 107.934 146.289 108.139 145.927C108.344 145.566 108.446 145.107 108.446 144.55V137.336ZM117.655 145.305C117.655 145.056 117.616 144.836 117.538 144.646C117.465 144.45 117.333 144.274 117.143 144.118C116.957 143.962 116.698 143.813 116.366 143.671C116.039 143.53 115.624 143.386 115.121 143.239C114.594 143.083 114.118 142.91 113.693 142.719C113.268 142.524 112.904 142.302 112.602 142.053C112.299 141.804 112.067 141.518 111.906 141.196C111.745 140.874 111.664 140.505 111.664 140.09C111.664 139.675 111.75 139.292 111.921 138.94C112.091 138.588 112.336 138.283 112.653 138.024C112.975 137.761 113.358 137.556 113.803 137.409C114.247 137.263 114.743 137.189 115.29 137.189C116.09 137.189 116.769 137.343 117.326 137.651C117.887 137.954 118.315 138.352 118.608 138.845C118.9 139.333 119.047 139.855 119.047 140.412H117.641C117.641 140.012 117.555 139.658 117.384 139.35C117.213 139.038 116.955 138.793 116.608 138.618C116.261 138.437 115.822 138.347 115.29 138.347C114.787 138.347 114.372 138.422 114.045 138.574C113.717 138.725 113.473 138.93 113.312 139.189C113.156 139.448 113.078 139.743 113.078 140.075C113.078 140.3 113.124 140.505 113.217 140.69C113.315 140.871 113.463 141.04 113.664 141.196C113.869 141.352 114.128 141.496 114.44 141.628C114.757 141.76 115.136 141.887 115.575 142.009C116.181 142.18 116.703 142.37 117.143 142.58C117.582 142.79 117.943 143.027 118.227 143.291C118.515 143.549 118.727 143.845 118.864 144.177C119.005 144.504 119.076 144.875 119.076 145.29C119.076 145.725 118.988 146.118 118.813 146.469C118.637 146.821 118.385 147.121 118.058 147.37C117.731 147.619 117.338 147.812 116.879 147.949C116.425 148.081 115.917 148.146 115.356 148.146C114.862 148.146 114.377 148.078 113.898 147.941C113.424 147.805 112.992 147.6 112.602 147.326C112.216 147.053 111.906 146.716 111.671 146.315C111.442 145.91 111.327 145.441 111.327 144.909H112.733C112.733 145.275 112.804 145.59 112.946 145.854C113.088 146.113 113.28 146.328 113.525 146.499C113.774 146.669 114.054 146.796 114.367 146.879C114.684 146.958 115.014 146.997 115.356 146.997C115.849 146.997 116.266 146.928 116.608 146.792C116.95 146.655 117.209 146.459 117.384 146.206C117.565 145.952 117.655 145.651 117.655 145.305ZM124.726 138.281L121.196 148H119.753L123.818 137.336H124.748L124.726 138.281ZM127.685 148L124.147 138.281L124.125 137.336H125.055L129.135 148H127.685ZM127.502 144.052V145.209H121.51V144.052H127.502Z" fill="#161C2D"/>
<path d="M36.7295 31.7578V41H34.8252V31.7578H36.7295ZM40.4111 35.7061V37.1914H36.209V35.7061H40.4111ZM40.8555 31.7578V33.2495H36.209V31.7578H40.8555ZM48.6885 31.7578H50.5864V37.8643C50.5864 38.5752 50.4341 39.174 50.1294 39.6606C49.8289 40.1473 49.4121 40.5133 48.8789 40.7588C48.3499 41.0042 47.7406 41.127 47.0508 41.127C46.361 41.127 45.7474 41.0042 45.21 40.7588C44.6768 40.5133 44.2578 40.1473 43.9531 39.6606C43.6527 39.174 43.5024 38.5752 43.5024 37.8643V31.7578H45.4067V37.8643C45.4067 38.279 45.4723 38.6175 45.6035 38.8799C45.7347 39.1423 45.923 39.3348 46.1685 39.4575C46.4181 39.5802 46.7122 39.6416 47.0508 39.6416C47.3978 39.6416 47.6919 39.5802 47.9331 39.4575C48.1785 39.3348 48.3647 39.1423 48.4917 38.8799C48.6229 38.6175 48.6885 38.279 48.6885 37.8643V31.7578ZM59.7207 39.5146V41H55.0679V39.5146H59.7207ZM55.6836 31.7578V41H53.7793V31.7578H55.6836ZM68.3789 39.5146V41H63.7261V39.5146H68.3789ZM64.3418 31.7578V41H62.4375V31.7578H64.3418ZM74.5869 36.3154V37.75H71.0005V36.3154H74.5869ZM81.9819 31.7578V41H80.084V31.7578H81.9819ZM84.8257 31.7578V33.2495H77.2847V31.7578H84.8257ZM89.561 31.7578V41H87.6631V31.7578H89.561ZM93.8394 31.7578H95.4517L97.8257 38.5435L100.2 31.7578H101.812L98.4731 41H97.1782L93.8394 31.7578ZM92.9697 31.7578H94.5757L94.8677 38.3721V41H92.9697V31.7578ZM101.076 31.7578H102.688V41H100.784V38.3721L101.076 31.7578ZM112.184 39.5146V41H107.265V39.5146H112.184ZM107.887 31.7578V41H105.982V31.7578H107.887ZM111.543 35.522V36.9692H107.265V35.522H111.543ZM112.178 31.7578V33.2495H107.265V31.7578H112.178Z" fill="#68D585"/>
</g>
<defs>
<filter id="filter0_d_1_117" x="-10.5" y="-0.5" width="276" height="324" filterUnits="userSpaceOnUse" color-interpolation-filters="sRGB">
<feFlood flood-opacity="0" result="BackgroundImageFix"/>
<feColorMatrix in="SourceAlpha" type="matrix" values="0 0 0 0 0 0 0 0 0 0 0 0 0 0 0 0 0 0 127 0" result="hardAlpha"/>
<feMorphology radius="23" operator="erode" in="SourceAlpha" result="effect1_dropShadow_1_117"/>
<feOffset dy="34"/>
<feGaussianBlur stdDeviation="16.5"/>
<feColorMatrix type="matrix" values="0 0 0 0 0.0862745 0 0 0 0 0.109804 0 0 0 0 0.176471 0 0 0 0.129453 0"/>
<feBlend mode="normal" in2="BackgroundImageFix" result="effect1_dropShadow_1_117"/>
<feBlend mode="normal" in="SourceGraphic" in2="effect1_dropShadow_1_117" result="shape"/>
</filter>
<clipPath id="clip0_1_117">
<rect width="255" height="279" fill="white"/>
</clipPath>
<clipPath id="clip1_1_117">
<rect width="32" height="33" fill="white" transform="translate(32 212)"/>
</clipPath>
</defs>
</svg>
