<svg width="255" height="279" viewBox="0 0 255 279" fill="none" xmlns="http://www.w3.org/2000/svg">
<g clip-path="url(#clip0_1_149)">
<rect width="255" height="279" rx="10" fill="white" stroke="#E7E9ED"/>
<circle cx="48" cy="229" r="16" fill="#56CD5D"/>
<path d="M54.9 222.1C54.8333 222.033 54.7333 222 54.6 222C54.3 222.033 47.3 223.233 44.4333 226.1C42.2333 228.3 42.3667 230.767 42.7333 232.233L46.1667 229.9C46.3333 229.8 46.5333 230 46.3667 230.167L41.1 235.433C40.9667 235.567 40.9667 235.767 41.1 235.9C41.1667 235.967 41.2333 236 41.3333 236C41.4333 236 41.5 235.967 41.5667 235.9L43.6333 233.833C44.0667 234.033 45.1333 234.467 46.5 234.467C48.1667 234.467 49.6667 233.833 50.9333 232.567C54 229.5 54.9667 222.667 55 222.367C55 222.267 54.9667 222.167 54.9 222.1Z" fill="#2D2D2D"/>
<path d="M85.9121 227.94V233.293C85.7018 233.547 85.3771 233.822 84.938 234.119C84.4989 234.409 83.9329 234.66 83.2402 234.87C82.5475 235.08 81.7095 235.186 80.7261 235.186C79.854 235.186 79.0592 235.043 78.3418 234.759C77.6243 234.468 77.0059 234.044 76.4863 233.488C75.973 232.931 75.5771 232.251 75.2988 231.447C75.0205 230.637 74.8813 229.712 74.8813 228.673V227.829C74.8813 226.79 75.0143 225.865 75.2803 225.055C75.5524 224.244 75.939 223.561 76.4399 223.004C76.9409 222.448 77.5378 222.024 78.2305 221.733C78.9232 221.443 79.6932 221.297 80.5405 221.297C81.7157 221.297 82.6805 221.489 83.4351 221.873C84.1896 222.25 84.7648 222.776 85.1606 223.45C85.5627 224.118 85.8101 224.885 85.9028 225.75H83.2031C83.1351 225.293 83.0052 224.894 82.8135 224.554C82.6217 224.214 82.3465 223.948 81.9878 223.756C81.6353 223.564 81.1776 223.468 80.6147 223.468C80.1509 223.468 79.7365 223.564 79.3716 223.756C79.0129 223.941 78.7098 224.217 78.4624 224.582C78.215 224.946 78.0264 225.398 77.8965 225.936C77.7666 226.474 77.7017 227.099 77.7017 227.81V228.673C77.7017 229.378 77.7697 230.003 77.9058 230.547C78.0418 231.085 78.2428 231.54 78.5088 231.911C78.7809 232.276 79.1149 232.551 79.5107 232.736C79.9066 232.922 80.3674 233.015 80.8931 233.015C81.3322 233.015 81.6971 232.978 81.9878 232.903C82.2847 232.829 82.5228 232.739 82.7021 232.634C82.8877 232.523 83.0299 232.418 83.1289 232.319V229.925H80.5869V227.94H85.9121ZM90.4621 227.151V235H87.7902V224.962H90.3044L90.4621 227.151ZM93.4865 224.897L93.4401 227.374C93.3103 227.355 93.1525 227.34 92.967 227.328C92.7876 227.309 92.6237 227.3 92.4753 227.3C92.098 227.3 91.7702 227.349 91.4919 227.448C91.2198 227.541 90.9909 227.68 90.8054 227.866C90.626 228.051 90.4899 228.277 90.3972 228.543C90.3106 228.809 90.2611 229.112 90.2487 229.452L89.7106 229.285C89.7106 228.636 89.7756 228.039 89.9055 227.495C90.0354 226.944 90.224 226.465 90.4714 226.057C90.725 225.648 91.0342 225.333 91.3991 225.11C91.764 224.888 92.1815 224.776 92.6516 224.776C92.8 224.776 92.9515 224.789 93.1062 224.813C93.2608 224.832 93.3876 224.86 93.4865 224.897ZM98.9828 235.186C98.2035 235.186 97.5046 235.062 96.8861 234.814C96.2676 234.561 95.7419 234.211 95.309 233.766C94.8822 233.321 94.5544 232.804 94.3256 232.217C94.0967 231.623 93.9823 230.992 93.9823 230.324V229.953C93.9823 229.192 94.0906 228.497 94.307 227.866C94.5235 227.235 94.8327 226.688 95.2348 226.224C95.643 225.76 96.1378 225.404 96.7191 225.157C97.3005 224.903 97.9561 224.776 98.6859 224.776C99.3972 224.776 100.028 224.894 100.579 225.129C101.129 225.364 101.59 225.698 101.961 226.131C102.338 226.564 102.623 227.083 102.814 227.689C103.006 228.289 103.102 228.957 103.102 229.693V230.807H95.1234V229.025H100.476V228.821C100.476 228.45 100.408 228.119 100.272 227.829C100.142 227.532 99.9446 227.297 99.6786 227.124C99.4127 226.95 99.0725 226.864 98.6581 226.864C98.3056 226.864 98.0025 226.941 97.7489 227.096C97.4953 227.25 97.2882 227.467 97.1273 227.745C96.9727 228.023 96.8552 228.351 96.7748 228.729C96.7006 229.1 96.6635 229.508 96.6635 229.953V230.324C96.6635 230.726 96.7191 231.097 96.8305 231.438C96.948 231.778 97.1119 232.071 97.3222 232.319C97.5386 232.566 97.7984 232.758 98.1015 232.894C98.4107 233.03 98.7602 233.098 99.1498 233.098C99.6322 233.098 100.081 233.005 100.495 232.82C100.916 232.628 101.277 232.34 101.58 231.957L102.879 233.367C102.669 233.67 102.381 233.961 102.017 234.239C101.658 234.518 101.225 234.746 100.718 234.926C100.211 235.099 99.6322 235.186 98.9828 235.186ZM109.044 235.186C108.264 235.186 107.565 235.062 106.947 234.814C106.328 234.561 105.803 234.211 105.37 233.766C104.943 233.321 104.615 232.804 104.386 232.217C104.157 231.623 104.043 230.992 104.043 230.324V229.953C104.043 229.192 104.151 228.497 104.368 227.866C104.584 227.235 104.893 226.688 105.296 226.224C105.704 225.76 106.199 225.404 106.78 225.157C107.361 224.903 108.017 224.776 108.747 224.776C109.458 224.776 110.089 224.894 110.639 225.129C111.19 225.364 111.65 225.698 112.022 226.131C112.399 226.564 112.683 227.083 112.875 227.689C113.067 228.289 113.163 228.957 113.163 229.693V230.807H105.184V229.025H110.537V228.821C110.537 228.45 110.469 228.119 110.333 227.829C110.203 227.532 110.005 227.297 109.739 227.124C109.473 226.95 109.133 226.864 108.719 226.864C108.366 226.864 108.063 226.941 107.81 227.096C107.556 227.25 107.349 227.467 107.188 227.745C107.033 228.023 106.916 228.351 106.836 228.729C106.761 229.1 106.724 229.508 106.724 229.953V230.324C106.724 230.726 106.78 231.097 106.891 231.438C107.009 231.778 107.173 232.071 107.383 232.319C107.599 232.566 107.859 232.758 108.162 232.894C108.471 233.03 108.821 233.098 109.211 233.098C109.693 233.098 110.141 233.005 110.556 232.82C110.976 232.628 111.338 232.34 111.641 231.957L112.94 233.367C112.73 233.67 112.442 233.961 112.077 234.239C111.719 234.518 111.286 234.746 110.778 234.926C110.271 235.099 109.693 235.186 109.044 235.186ZM117.1 227.105V235H114.429V224.962H116.933L117.1 227.105ZM116.711 229.628H115.987C115.987 228.886 116.083 228.218 116.275 227.625C116.466 227.025 116.735 226.514 117.082 226.094C117.428 225.667 117.839 225.342 118.316 225.12C118.798 224.891 119.336 224.776 119.93 224.776C120.4 224.776 120.83 224.844 121.22 224.98C121.609 225.117 121.943 225.333 122.221 225.63C122.506 225.927 122.722 226.319 122.871 226.808C123.026 227.297 123.103 227.894 123.103 228.599V235H120.412V228.589C120.412 228.144 120.351 227.798 120.227 227.55C120.103 227.303 119.921 227.13 119.679 227.031C119.444 226.926 119.154 226.873 118.807 226.873C118.449 226.873 118.136 226.944 117.87 227.086C117.611 227.229 117.394 227.427 117.221 227.68C117.054 227.928 116.927 228.218 116.841 228.552C116.754 228.886 116.711 229.245 116.711 229.628ZM129.555 235.186C128.775 235.186 128.076 235.062 127.458 234.814C126.84 234.561 126.314 234.211 125.881 233.766C125.454 233.321 125.126 232.804 124.897 232.217C124.669 231.623 124.554 230.992 124.554 230.324V229.953C124.554 229.192 124.662 228.497 124.879 227.866C125.095 227.235 125.405 226.688 125.807 226.224C126.215 225.76 126.71 225.404 127.291 225.157C127.872 224.903 128.528 224.776 129.258 224.776C129.969 224.776 130.6 224.894 131.15 225.129C131.701 225.364 132.162 225.698 132.533 226.131C132.91 226.564 133.194 227.083 133.386 227.689C133.578 228.289 133.674 228.957 133.674 229.693V230.807H125.695V229.025H131.048V228.821C131.048 228.45 130.98 228.119 130.844 227.829C130.714 227.532 130.516 227.297 130.25 227.124C129.985 226.95 129.644 226.864 129.23 226.864C128.877 226.864 128.574 226.941 128.321 227.096C128.067 227.25 127.86 227.467 127.699 227.745C127.545 228.023 127.427 228.351 127.347 228.729C127.272 229.1 127.235 229.508 127.235 229.953V230.324C127.235 230.726 127.291 231.097 127.402 231.438C127.52 231.778 127.684 232.071 127.894 232.319C128.111 232.566 128.37 232.758 128.673 232.894C128.983 233.03 129.332 233.098 129.722 233.098C130.204 233.098 130.653 233.005 131.067 232.82C131.487 232.628 131.849 232.34 132.152 231.957L133.451 233.367C133.241 233.67 132.953 233.961 132.588 234.239C132.23 234.518 131.797 234.746 131.29 234.926C130.782 235.099 130.204 235.186 129.555 235.186ZM137.667 227.151V235H134.995V224.962H137.509L137.667 227.151ZM140.692 224.897L140.645 227.374C140.515 227.355 140.358 227.34 140.172 227.328C139.993 227.309 139.829 227.3 139.68 227.3C139.303 227.3 138.975 227.349 138.697 227.448C138.425 227.541 138.196 227.68 138.01 227.866C137.831 228.051 137.695 228.277 137.602 228.543C137.516 228.809 137.466 229.112 137.454 229.452L136.916 229.285C136.916 228.636 136.981 228.039 137.111 227.495C137.24 226.944 137.429 226.465 137.676 226.057C137.93 225.648 138.239 225.333 138.604 225.11C138.969 224.888 139.387 224.776 139.857 224.776C140.005 224.776 140.157 224.789 140.311 224.813C140.466 224.832 140.593 224.86 140.692 224.897Z" fill="#161C2D"/>
<path d="M36.4092 69.0703V84H33.333V69.0703H36.4092ZM42.3564 75.4482V77.8477H35.5684V75.4482H42.3564ZM43.0742 69.0703V71.48H35.5684V69.0703H43.0742ZM50.5107 81.3442V72.9053H53.4639V84H50.6851L50.5107 81.3442ZM50.8389 79.0679L51.7104 79.0474C51.7104 79.7856 51.625 80.4727 51.4541 81.1084C51.2832 81.7373 51.0269 82.2842 50.6851 82.749C50.3433 83.207 49.9126 83.5659 49.3931 83.8257C48.8735 84.0786 48.2617 84.2051 47.5576 84.2051C47.0176 84.2051 46.5186 84.1299 46.0605 83.9795C45.6094 83.8223 45.2197 83.5796 44.8916 83.2515C44.5703 82.9165 44.3174 82.4893 44.1328 81.9697C43.9551 81.4434 43.8662 80.811 43.8662 80.0728V72.9053H46.8193V80.0933C46.8193 80.4214 46.8569 80.6982 46.9321 80.9238C47.0142 81.1494 47.127 81.334 47.2705 81.4775C47.4141 81.6211 47.5815 81.7236 47.7729 81.7852C47.9712 81.8467 48.1899 81.8774 48.4292 81.8774C49.0376 81.8774 49.5161 81.7544 49.8647 81.5083C50.2202 81.2622 50.4697 80.9272 50.6133 80.5034C50.7637 80.0728 50.8389 79.5942 50.8389 79.0679ZM58.3369 68.25V84H55.3735V68.25H58.3369ZM63.3945 68.25V84H60.4312V68.25H63.3945ZM71.1592 76.4326V78.75H65.3657V76.4326H71.1592ZM79.1187 80.9341C79.1187 80.7222 79.0571 80.5308 78.9341 80.3599C78.811 80.189 78.582 80.0317 78.2471 79.8882C77.9189 79.7378 77.4438 79.6011 76.8218 79.478C76.2612 79.355 75.7383 79.2012 75.2529 79.0166C74.7744 78.8252 74.3574 78.5962 74.002 78.3296C73.6533 78.063 73.3799 77.7485 73.1816 77.3862C72.9834 77.0171 72.8843 76.5967 72.8843 76.125C72.8843 75.6602 72.9834 75.2227 73.1816 74.8125C73.3867 74.4023 73.6772 74.04 74.0532 73.7256C74.436 73.4043 74.9009 73.1548 75.4478 72.9771C76.0015 72.7925 76.6235 72.7002 77.314 72.7002C78.2778 72.7002 79.105 72.854 79.7954 73.1616C80.4927 73.4692 81.0259 73.8931 81.395 74.4331C81.771 74.9663 81.959 75.5747 81.959 76.2583H79.0059C79.0059 75.9712 78.9443 75.7148 78.8213 75.4893C78.7051 75.2568 78.5205 75.0757 78.2676 74.9458C78.0215 74.8091 77.7002 74.7407 77.3037 74.7407C76.9756 74.7407 76.6919 74.7988 76.4526 74.915C76.2134 75.0244 76.0288 75.1748 75.8989 75.3662C75.7759 75.5508 75.7144 75.7559 75.7144 75.9814C75.7144 76.1523 75.7485 76.3062 75.8169 76.4429C75.8921 76.5728 76.0117 76.6924 76.1758 76.8018C76.3398 76.9111 76.5518 77.0137 76.8115 77.1094C77.0781 77.1982 77.4062 77.2803 77.7959 77.3555C78.5957 77.5195 79.3101 77.7349 79.939 78.0015C80.5679 78.2612 81.0669 78.6167 81.436 79.0679C81.8052 79.5122 81.9897 80.0967 81.9897 80.8213C81.9897 81.3135 81.8804 81.7646 81.6616 82.1748C81.4429 82.585 81.1284 82.9438 80.7183 83.2515C80.3081 83.5522 79.8159 83.7881 79.2417 83.959C78.6743 84.123 78.0352 84.2051 77.3242 84.2051C76.292 84.2051 75.417 84.0205 74.6992 83.6514C73.9883 83.2822 73.4482 82.814 73.0791 82.2466C72.7168 81.6724 72.5356 81.0845 72.5356 80.4829H75.335C75.3486 80.8862 75.4512 81.2109 75.6426 81.457C75.8408 81.7031 76.0903 81.8809 76.3911 81.9902C76.6987 82.0996 77.0303 82.1543 77.3857 82.1543C77.7686 82.1543 78.0864 82.103 78.3394 82.0005C78.5923 81.8911 78.7837 81.7476 78.9136 81.5698C79.0503 81.3853 79.1187 81.1733 79.1187 80.9341ZM88.8418 72.9053V74.9971H82.3818V72.9053H88.8418ZM83.9814 70.1675H86.9346V80.6572C86.9346 80.9785 86.9756 81.2246 87.0576 81.3955C87.1465 81.5664 87.2764 81.686 87.4473 81.7544C87.6182 81.8159 87.8335 81.8467 88.0933 81.8467C88.2778 81.8467 88.4419 81.8398 88.5854 81.8262C88.7358 81.8057 88.8623 81.7852 88.9648 81.7646L88.9751 83.9385C88.7222 84.0205 88.4487 84.0854 88.1548 84.1333C87.8608 84.1812 87.5361 84.2051 87.1807 84.2051C86.5312 84.2051 85.9639 84.0991 85.4785 83.8872C85 83.6685 84.6309 83.3198 84.3711 82.8413C84.1113 82.3628 83.9814 81.7339 83.9814 80.9546V70.1675ZM96.0117 81.498V76.5557C96.0117 76.2002 95.9536 75.896 95.8374 75.6431C95.7212 75.3833 95.54 75.1816 95.2939 75.0381C95.0547 74.8945 94.7437 74.8228 94.3608 74.8228C94.0327 74.8228 93.749 74.8809 93.5098 74.9971C93.2705 75.1064 93.0859 75.2671 92.9561 75.479C92.8262 75.6841 92.7612 75.9268 92.7612 76.207H89.8081C89.8081 75.7354 89.9175 75.2876 90.1362 74.8638C90.355 74.4399 90.6729 74.0674 91.0898 73.7461C91.5068 73.418 92.0024 73.1616 92.5767 72.9771C93.1577 72.7925 93.8071 72.7002 94.5249 72.7002C95.3862 72.7002 96.1519 72.8438 96.8218 73.1309C97.4917 73.418 98.0181 73.8486 98.4009 74.4229C98.7905 74.9971 98.9854 75.7148 98.9854 76.5762V81.3237C98.9854 81.9321 99.0229 82.4312 99.0981 82.8208C99.1733 83.2036 99.2827 83.5386 99.4263 83.8257V84H96.4424C96.2988 83.6992 96.1895 83.3232 96.1143 82.8721C96.0459 82.4141 96.0117 81.9561 96.0117 81.498ZM96.4014 77.2427L96.4219 78.9141H94.771C94.3813 78.9141 94.043 78.9585 93.7559 79.0474C93.4688 79.1362 93.2329 79.2627 93.0483 79.4268C92.8638 79.584 92.7271 79.7686 92.6382 79.9805C92.5562 80.1924 92.5151 80.4248 92.5151 80.6777C92.5151 80.9307 92.5732 81.1597 92.6895 81.3647C92.8057 81.563 92.9731 81.7202 93.1919 81.8364C93.4106 81.9458 93.667 82.0005 93.9609 82.0005C94.4053 82.0005 94.7915 81.9116 95.1196 81.7339C95.4478 81.5562 95.7007 81.3374 95.8784 81.0776C96.063 80.8179 96.1587 80.5718 96.1655 80.3394L96.9448 81.5903C96.8354 81.8706 96.6851 82.1611 96.4937 82.4619C96.3091 82.7627 96.0732 83.0464 95.7861 83.313C95.499 83.5728 95.1538 83.7881 94.7505 83.959C94.3472 84.123 93.8687 84.2051 93.3149 84.2051C92.6108 84.2051 91.9717 84.0649 91.3975 83.7847C90.8301 83.4976 90.3789 83.1045 90.0439 82.6055C89.7158 82.0996 89.5518 81.5254 89.5518 80.8828C89.5518 80.3018 89.6611 79.7856 89.8799 79.3345C90.0986 78.8833 90.4199 78.5039 90.8438 78.1963C91.2744 77.8818 91.811 77.646 92.4536 77.4888C93.0962 77.3247 93.8413 77.2427 94.689 77.2427H96.4014ZM105.345 81.8979C105.708 81.8979 106.029 81.8296 106.309 81.6929C106.589 81.5493 106.808 81.3511 106.965 81.0981C107.129 80.8384 107.215 80.5342 107.222 80.1855H110C109.994 80.9648 109.785 81.6587 109.375 82.2671C108.965 82.8687 108.415 83.3438 107.724 83.6924C107.034 84.0342 106.261 84.2051 105.407 84.2051C104.545 84.2051 103.793 84.0615 103.151 83.7744C102.515 83.4873 101.985 83.0908 101.562 82.585C101.138 82.0723 100.82 81.4775 100.608 80.8008C100.396 80.1172 100.29 79.3857 100.29 78.6064V78.3091C100.29 77.5229 100.396 76.7915 100.608 76.1147C100.82 75.4312 101.138 74.8364 101.562 74.3306C101.985 73.8179 102.515 73.418 103.151 73.1309C103.787 72.8438 104.532 72.7002 105.386 72.7002C106.295 72.7002 107.092 72.8745 107.775 73.2231C108.466 73.5718 109.006 74.0708 109.396 74.7202C109.792 75.3628 109.994 76.125 110 77.0068H107.222C107.215 76.6377 107.136 76.3027 106.986 76.002C106.842 75.7012 106.63 75.4619 106.35 75.2842C106.077 75.0996 105.738 75.0073 105.335 75.0073C104.904 75.0073 104.552 75.0996 104.279 75.2842C104.005 75.4619 103.793 75.708 103.643 76.0225C103.493 76.3301 103.387 76.6821 103.325 77.0786C103.271 77.4683 103.243 77.8784 103.243 78.3091V78.6064C103.243 79.0371 103.271 79.4507 103.325 79.8472C103.38 80.2437 103.482 80.5957 103.633 80.9033C103.79 81.2109 104.005 81.4536 104.279 81.6313C104.552 81.8091 104.908 81.8979 105.345 81.8979ZM114.166 68.2397V84H111.213V68.2397H114.166ZM121.159 72.9053L116.34 78.4014L113.756 81.0161L112.679 78.8833L114.73 76.2788L117.611 72.9053H121.159ZM118.093 84L114.812 78.873L116.853 77.0889L121.498 84H118.093ZM130.444 81.6313L133.417 69.0703H135.079L135.458 71.1621L132.29 84H130.505L130.444 81.6313ZM128.916 69.0703L131.377 81.6313L131.172 84H129.183L125.871 69.0703H128.916ZM138.073 81.5801L140.503 69.0703H143.548L140.247 84H138.257L138.073 81.5801ZM136.012 69.0703L139.006 81.6826L138.924 84H137.14L133.951 71.1519L134.361 69.0703H136.012ZM149.313 84.2051C148.452 84.2051 147.68 84.0684 146.996 83.7949C146.312 83.5146 145.731 83.1284 145.253 82.6362C144.781 82.144 144.419 81.5732 144.166 80.9238C143.913 80.2676 143.787 79.5703 143.787 78.832V78.4219C143.787 77.5811 143.906 76.812 144.146 76.1147C144.385 75.4175 144.727 74.8125 145.171 74.2998C145.622 73.7871 146.169 73.394 146.812 73.1206C147.454 72.8403 148.179 72.7002 148.985 72.7002C149.771 72.7002 150.469 72.8301 151.077 73.0898C151.686 73.3496 152.195 73.7188 152.605 74.1973C153.022 74.6758 153.336 75.25 153.548 75.9199C153.76 76.583 153.866 77.3213 153.866 78.1348V79.3652H145.048V77.3965H150.964V77.1709C150.964 76.7607 150.889 76.395 150.739 76.0737C150.595 75.7456 150.376 75.4858 150.083 75.2944C149.789 75.103 149.413 75.0073 148.955 75.0073C148.565 75.0073 148.23 75.0928 147.95 75.2637C147.669 75.4346 147.44 75.6738 147.263 75.9814C147.092 76.2891 146.962 76.6514 146.873 77.0684C146.791 77.4785 146.75 77.9297 146.75 78.4219V78.832C146.75 79.2764 146.812 79.6865 146.935 80.0625C147.064 80.4385 147.246 80.7632 147.478 81.0366C147.717 81.3101 148.004 81.522 148.339 81.6724C148.681 81.8228 149.067 81.8979 149.498 81.8979C150.031 81.8979 150.527 81.7954 150.985 81.5903C151.45 81.3784 151.85 81.0605 152.185 80.6367L153.62 82.1953C153.388 82.5303 153.07 82.8516 152.667 83.1592C152.27 83.4668 151.792 83.7197 151.231 83.918C150.67 84.1094 150.031 84.2051 149.313 84.2051ZM155.048 68.25H158.001V81.457L157.704 84H155.048V68.25ZM165.025 78.3398V78.5552C165.025 79.3823 164.936 80.1411 164.758 80.8315C164.587 81.522 164.321 82.1201 163.958 82.626C163.596 83.125 163.145 83.5146 162.605 83.7949C162.072 84.0684 161.443 84.2051 160.718 84.2051C160.042 84.2051 159.454 84.0684 158.955 83.7949C158.462 83.5215 158.049 83.1353 157.714 82.6362C157.379 82.1372 157.109 81.5527 156.904 80.8828C156.699 80.2129 156.545 79.4814 156.442 78.6885V78.2168C156.545 77.4238 156.699 76.6924 156.904 76.0225C157.109 75.3525 157.379 74.7681 157.714 74.269C158.049 73.77 158.462 73.3838 158.955 73.1104C159.447 72.8369 160.028 72.7002 160.698 72.7002C161.429 72.7002 162.065 72.8403 162.605 73.1206C163.152 73.394 163.603 73.7837 163.958 74.2896C164.321 74.7886 164.587 75.3833 164.758 76.0737C164.936 76.7573 165.025 77.5127 165.025 78.3398ZM162.072 78.5552V78.3398C162.072 77.8887 162.038 77.4648 161.969 77.0684C161.908 76.665 161.798 76.313 161.641 76.0122C161.484 75.7046 161.269 75.4619 160.995 75.2842C160.729 75.1064 160.383 75.0176 159.959 75.0176C159.556 75.0176 159.214 75.0859 158.934 75.2227C158.654 75.3594 158.421 75.5508 158.237 75.7969C158.059 76.043 157.926 76.3369 157.837 76.6787C157.748 77.0137 157.693 77.3828 157.673 77.7861V79.1294C157.693 79.6694 157.782 80.1479 157.939 80.5649C158.104 80.9751 158.35 81.2998 158.678 81.5391C159.013 81.7715 159.447 81.8877 159.98 81.8877C160.397 81.8877 160.742 81.8057 161.016 81.6416C161.289 81.4775 161.501 81.2451 161.651 80.9443C161.809 80.6436 161.918 80.2915 161.979 79.8882C162.041 79.478 162.072 79.0337 162.072 78.5552ZM37.9165 116H34.666L34.6865 113.601H37.9165C38.7231 113.601 39.4033 113.419 39.957 113.057C40.5107 112.688 40.9277 112.151 41.208 111.447C41.4951 110.743 41.6387 109.892 41.6387 108.894V108.166C41.6387 107.4 41.5566 106.727 41.3926 106.146C41.2354 105.565 40.9995 105.076 40.6851 104.68C40.3706 104.283 39.9844 103.986 39.5264 103.788C39.0684 103.583 38.542 103.48 37.9473 103.48H34.6045V101.07H37.9473C38.9453 101.07 39.8579 101.241 40.6851 101.583C41.519 101.918 42.2402 102.4 42.8486 103.029C43.457 103.658 43.9253 104.41 44.2534 105.285C44.5884 106.153 44.7559 107.12 44.7559 108.187V108.894C44.7559 109.954 44.5884 110.921 44.2534 111.796C43.9253 112.671 43.457 113.423 42.8486 114.052C42.2471 114.674 41.5259 115.156 40.6851 115.498C39.8511 115.833 38.9282 116 37.9165 116ZM36.4092 101.07V116H33.333V101.07H36.4092ZM51.4131 116.205C50.5518 116.205 49.7793 116.068 49.0957 115.795C48.4121 115.515 47.8311 115.128 47.3525 114.636C46.8809 114.144 46.5186 113.573 46.2656 112.924C46.0127 112.268 45.8862 111.57 45.8862 110.832V110.422C45.8862 109.581 46.0059 108.812 46.2451 108.115C46.4844 107.417 46.8262 106.812 47.2705 106.3C47.7217 105.787 48.2686 105.394 48.9111 105.121C49.5537 104.84 50.2783 104.7 51.085 104.7C51.8711 104.7 52.5684 104.83 53.1768 105.09C53.7852 105.35 54.2944 105.719 54.7046 106.197C55.1216 106.676 55.436 107.25 55.6479 107.92C55.8599 108.583 55.9658 109.321 55.9658 110.135V111.365H47.1475V109.396H53.064V109.171C53.064 108.761 52.9888 108.395 52.8384 108.074C52.6948 107.746 52.4761 107.486 52.1821 107.294C51.8882 107.103 51.5122 107.007 51.0542 107.007C50.6646 107.007 50.3296 107.093 50.0493 107.264C49.769 107.435 49.54 107.674 49.3623 107.981C49.1914 108.289 49.0615 108.651 48.9727 109.068C48.8906 109.479 48.8496 109.93 48.8496 110.422V110.832C48.8496 111.276 48.9111 111.687 49.0342 112.062C49.1641 112.438 49.3452 112.763 49.5776 113.037C49.8169 113.31 50.104 113.522 50.439 113.672C50.7808 113.823 51.167 113.898 51.5977 113.898C52.1309 113.898 52.6265 113.795 53.0845 113.59C53.5493 113.378 53.9492 113.061 54.2842 112.637L55.7197 114.195C55.4873 114.53 55.1694 114.852 54.7661 115.159C54.3696 115.467 53.8911 115.72 53.3306 115.918C52.77 116.109 52.1309 116.205 51.4131 116.205ZM60.7773 113.847L63.2383 104.905H66.3247L62.582 116H60.7158L60.7773 113.847ZM59.0854 104.905L61.5566 113.857L61.6079 116H59.7314L55.9888 104.905H59.0854ZM72.1104 116.205C71.249 116.205 70.4766 116.068 69.793 115.795C69.1094 115.515 68.5283 115.128 68.0498 114.636C67.5781 114.144 67.2158 113.573 66.9629 112.924C66.71 112.268 66.5835 111.57 66.5835 110.832V110.422C66.5835 109.581 66.7031 108.812 66.9424 108.115C67.1816 107.417 67.5234 106.812 67.9678 106.3C68.4189 105.787 68.9658 105.394 69.6084 105.121C70.251 104.84 70.9756 104.7 71.7822 104.7C72.5684 104.7 73.2656 104.83 73.874 105.09C74.4824 105.35 74.9917 105.719 75.4019 106.197C75.8188 106.676 76.1333 107.25 76.3452 107.92C76.5571 108.583 76.6631 109.321 76.6631 110.135V111.365H67.8447V109.396H73.7612V109.171C73.7612 108.761 73.686 108.395 73.5356 108.074C73.3921 107.746 73.1733 107.486 72.8794 107.294C72.5854 107.103 72.2095 107.007 71.7515 107.007C71.3618 107.007 71.0269 107.093 70.7466 107.264C70.4663 107.435 70.2373 107.674 70.0596 107.981C69.8887 108.289 69.7588 108.651 69.6699 109.068C69.5879 109.479 69.5469 109.93 69.5469 110.422V110.832C69.5469 111.276 69.6084 111.687 69.7314 112.062C69.8613 112.438 70.0425 112.763 70.2749 113.037C70.5142 113.31 70.8013 113.522 71.1362 113.672C71.478 113.823 71.8643 113.898 72.2949 113.898C72.8281 113.898 73.3237 113.795 73.7817 113.59C74.2466 113.378 74.6465 113.061 74.9814 112.637L76.417 114.195C76.1846 114.53 75.8667 114.852 75.4634 115.159C75.0669 115.467 74.5884 115.72 74.0278 115.918C73.4673 116.109 72.8281 116.205 72.1104 116.205ZM80.9619 100.25V116H77.9985V100.25H80.9619ZM82.4307 110.565V110.35C82.4307 109.537 82.5469 108.788 82.7793 108.104C83.0117 107.414 83.3501 106.816 83.7944 106.31C84.2388 105.804 84.7856 105.411 85.4351 105.131C86.0845 104.844 86.8296 104.7 87.6704 104.7C88.5112 104.7 89.2598 104.844 89.916 105.131C90.5723 105.411 91.1226 105.804 91.5669 106.31C92.0181 106.816 92.3599 107.414 92.5923 108.104C92.8247 108.788 92.9409 109.537 92.9409 110.35V110.565C92.9409 111.372 92.8247 112.121 92.5923 112.811C92.3599 113.495 92.0181 114.093 91.5669 114.605C91.1226 115.111 90.5757 115.504 89.9263 115.785C89.2769 116.065 88.5317 116.205 87.6909 116.205C86.8501 116.205 86.1016 116.065 85.4453 115.785C84.7959 115.504 84.2456 115.111 83.7944 114.605C83.3501 114.093 83.0117 113.495 82.7793 112.811C82.5469 112.121 82.4307 111.372 82.4307 110.565ZM85.3838 110.35V110.565C85.3838 111.03 85.4248 111.464 85.5068 111.868C85.5889 112.271 85.7188 112.626 85.8965 112.934C86.0811 113.235 86.3203 113.471 86.6143 113.642C86.9082 113.812 87.2671 113.898 87.6909 113.898C88.1011 113.898 88.4531 113.812 88.7471 113.642C89.041 113.471 89.2769 113.235 89.4546 112.934C89.6323 112.626 89.7622 112.271 89.8442 111.868C89.9331 111.464 89.9775 111.03 89.9775 110.565V110.35C89.9775 109.899 89.9331 109.475 89.8442 109.079C89.7622 108.675 89.6289 108.32 89.4443 108.012C89.2666 107.698 89.0308 107.452 88.7368 107.274C88.4429 107.096 88.0874 107.007 87.6704 107.007C87.2534 107.007 86.8979 107.096 86.604 107.274C86.3169 107.452 86.0811 107.698 85.8965 108.012C85.7188 108.32 85.5889 108.675 85.5068 109.079C85.4248 109.475 85.3838 109.899 85.3838 110.35ZM97.209 107.038V120.266H94.2559V104.905H96.9937L97.209 107.038ZM104.233 110.33V110.545C104.233 111.352 104.137 112.1 103.946 112.791C103.761 113.481 103.488 114.083 103.125 114.595C102.763 115.101 102.312 115.498 101.772 115.785C101.239 116.065 100.624 116.205 99.9263 116.205C99.2495 116.205 98.6616 116.068 98.1626 115.795C97.6636 115.521 97.2432 115.139 96.9014 114.646C96.5664 114.147 96.2964 113.57 96.0913 112.914C95.8862 112.257 95.729 111.553 95.6196 110.801V110.237C95.729 109.431 95.8862 108.692 96.0913 108.022C96.2964 107.346 96.5664 106.761 96.9014 106.269C97.2432 105.77 97.6602 105.384 98.1523 105.11C98.6514 104.837 99.2358 104.7 99.9058 104.7C100.61 104.7 101.229 104.833 101.762 105.1C102.302 105.367 102.753 105.75 103.115 106.249C103.484 106.748 103.761 107.342 103.946 108.033C104.137 108.723 104.233 109.489 104.233 110.33ZM101.27 110.545V110.33C101.27 109.858 101.229 109.424 101.146 109.027C101.071 108.624 100.948 108.272 100.777 107.971C100.613 107.67 100.395 107.438 100.121 107.274C99.8545 107.103 99.5298 107.018 99.147 107.018C98.7437 107.018 98.3984 107.083 98.1113 107.212C97.8311 107.342 97.6021 107.53 97.4243 107.776C97.2466 108.022 97.1133 108.316 97.0244 108.658C96.9355 109 96.8809 109.386 96.8604 109.817V111.242C96.8945 111.748 96.9902 112.203 97.1475 112.606C97.3047 113.002 97.5474 113.317 97.8755 113.549C98.2036 113.782 98.6343 113.898 99.1675 113.898C99.5571 113.898 99.8853 113.812 100.152 113.642C100.418 113.464 100.634 113.221 100.798 112.914C100.969 112.606 101.088 112.25 101.157 111.847C101.232 111.444 101.27 111.01 101.27 110.545ZM110.675 116.205C109.813 116.205 109.041 116.068 108.357 115.795C107.674 115.515 107.093 115.128 106.614 114.636C106.143 114.144 105.78 113.573 105.527 112.924C105.274 112.268 105.148 111.57 105.148 110.832V110.422C105.148 109.581 105.268 108.812 105.507 108.115C105.746 107.417 106.088 106.812 106.532 106.3C106.983 105.787 107.53 105.394 108.173 105.121C108.815 104.84 109.54 104.7 110.347 104.7C111.133 104.7 111.83 104.83 112.438 105.09C113.047 105.35 113.556 105.719 113.966 106.197C114.383 106.676 114.698 107.25 114.91 107.92C115.122 108.583 115.228 109.321 115.228 110.135V111.365H106.409V109.396H112.326V109.171C112.326 108.761 112.25 108.395 112.1 108.074C111.957 107.746 111.738 107.486 111.444 107.294C111.15 107.103 110.774 107.007 110.316 107.007C109.926 107.007 109.591 107.093 109.311 107.264C109.031 107.435 108.802 107.674 108.624 107.981C108.453 108.289 108.323 108.651 108.234 109.068C108.152 109.479 108.111 109.93 108.111 110.422V110.832C108.111 111.276 108.173 111.687 108.296 112.062C108.426 112.438 108.607 112.763 108.839 113.037C109.079 113.31 109.366 113.522 109.701 113.672C110.042 113.823 110.429 113.898 110.859 113.898C111.393 113.898 111.888 113.795 112.346 113.59C112.811 113.378 113.211 113.061 113.546 112.637L114.981 114.195C114.749 114.53 114.431 114.852 114.028 115.159C113.631 115.467 113.153 115.72 112.592 115.918C112.032 116.109 111.393 116.205 110.675 116.205ZM119.362 107.325V116H116.409V104.905H119.188L119.362 107.325ZM122.705 104.833L122.654 107.571C122.51 107.551 122.336 107.534 122.131 107.52C121.933 107.5 121.751 107.489 121.587 107.489C121.17 107.489 120.808 107.544 120.5 107.653C120.2 107.756 119.947 107.91 119.742 108.115C119.543 108.32 119.393 108.569 119.291 108.863C119.195 109.157 119.14 109.492 119.126 109.868L118.532 109.684C118.532 108.966 118.604 108.306 118.747 107.705C118.891 107.096 119.099 106.566 119.373 106.115C119.653 105.664 119.995 105.315 120.398 105.069C120.801 104.823 121.263 104.7 121.782 104.7C121.946 104.7 122.114 104.714 122.285 104.741C122.456 104.762 122.596 104.792 122.705 104.833Z" fill="#161C2D"/>
<path opacity="0.7" d="M34.6514 137.336V148H33.2378V137.336H34.6514ZM41.0894 137.336L36.6582 142.309L34.168 144.895L33.9336 143.386L35.8086 141.32L39.3901 137.336H41.0894ZM39.7271 148L35.7793 142.8L36.6216 141.679L41.4116 148H39.7271ZM47.0245 146.645V142.565C47.0245 142.253 46.961 141.982 46.8341 141.752C46.712 141.518 46.5265 141.337 46.2774 141.21C46.0284 141.083 45.7208 141.02 45.3546 141.02C45.0128 141.02 44.7125 141.079 44.4537 141.196C44.1998 141.313 43.9996 141.467 43.8531 141.657C43.7115 141.848 43.6407 142.053 43.6407 142.272H42.2857C42.2857 141.989 42.359 141.708 42.5055 141.43C42.652 141.152 42.8619 140.9 43.1354 140.676C43.4137 140.446 43.7457 140.266 44.1314 140.134C44.5221 139.997 44.9566 139.929 45.4352 139.929C46.0113 139.929 46.5191 140.026 46.9586 140.222C47.4029 140.417 47.7496 140.712 47.9986 141.108C48.2525 141.499 48.3795 141.989 48.3795 142.58V146.271C48.3795 146.535 48.4015 146.816 48.4454 147.114C48.4942 147.412 48.565 147.668 48.6578 147.883V148H47.2442C47.1759 147.844 47.1222 147.636 47.0831 147.377C47.044 147.114 47.0245 146.87 47.0245 146.645ZM47.2589 143.195L47.2735 144.147H45.9039C45.5182 144.147 45.1739 144.179 44.8712 144.243C44.5685 144.301 44.3146 144.392 44.1095 144.514C43.9044 144.636 43.7481 144.79 43.6407 144.975C43.5333 145.156 43.4796 145.368 43.4796 145.612C43.4796 145.861 43.5357 146.088 43.648 146.293C43.7604 146.499 43.9288 146.662 44.1534 146.784C44.3829 146.901 44.6637 146.96 44.9957 146.96C45.4107 146.96 45.777 146.872 46.0943 146.696C46.4117 146.521 46.6632 146.306 46.8487 146.052C47.0392 145.798 47.1417 145.551 47.1563 145.312L47.735 145.964C47.7008 146.169 47.608 146.396 47.4566 146.645C47.3053 146.894 47.1026 147.133 46.8487 147.363C46.5997 147.587 46.3019 147.775 45.9552 147.927C45.6134 148.073 45.2276 148.146 44.7979 148.146C44.2608 148.146 43.7896 148.042 43.3844 147.832C42.984 147.622 42.6715 147.341 42.4469 146.989C42.2271 146.633 42.1173 146.235 42.1173 145.795C42.1173 145.371 42.2003 144.997 42.3663 144.675C42.5323 144.348 42.7716 144.077 43.0841 143.862C43.3966 143.642 43.7726 143.476 44.212 143.364C44.6515 143.251 45.1422 143.195 45.6842 143.195H47.2589ZM53.7287 140.075V141.115H49.444V140.075H53.7287ZM50.8942 138.149H52.2492V146.037C52.2492 146.306 52.2907 146.508 52.3737 146.645C52.4567 146.782 52.5642 146.872 52.696 146.916C52.8278 146.96 52.9694 146.982 53.1208 146.982C53.2331 146.982 53.3503 146.972 53.4724 146.953C53.5993 146.928 53.6945 146.909 53.758 146.894L53.7653 148C53.6579 148.034 53.5163 148.066 53.3405 148.095C53.1696 148.129 52.9621 148.146 52.718 148.146C52.3859 148.146 52.0808 148.081 51.8024 147.949C51.5241 147.817 51.302 147.597 51.1359 147.29C50.9748 146.977 50.8942 146.557 50.8942 146.03V138.149ZM56.6902 136.75V148H55.3279V136.75H56.6902ZM60.9921 147.18L63.1967 140.075H64.6469L61.4682 149.223C61.3949 149.418 61.2973 149.628 61.1752 149.853C61.058 150.083 60.9066 150.3 60.7211 150.505C60.5355 150.71 60.3109 150.876 60.0473 151.003C59.7885 151.135 59.4784 151.201 59.1171 151.201C59.0097 151.201 58.8729 151.186 58.7069 151.157C58.5409 151.127 58.4237 151.103 58.3554 151.083L58.348 149.985C58.3871 149.99 58.4481 149.995 58.5312 150C58.619 150.009 58.6801 150.014 58.7143 150.014C59.0219 150.014 59.2831 149.973 59.4979 149.89C59.7128 149.812 59.8935 149.677 60.0399 149.487C60.1913 149.301 60.3207 149.045 60.4281 148.718L60.9921 147.18ZM59.3734 140.075L61.4315 146.228L61.7831 147.656L60.809 148.154L57.8939 140.075H59.3734ZM67.125 141.767V148H65.77V140.075H67.0518L67.125 141.767ZM66.8027 143.737L66.2388 143.715C66.2437 143.173 66.3242 142.673 66.4805 142.214C66.6367 141.75 66.8564 141.347 67.1396 141.005C67.4229 140.664 67.7598 140.4 68.1504 140.214C68.5459 140.024 68.9829 139.929 69.4614 139.929C69.8521 139.929 70.2036 139.982 70.5161 140.09C70.8286 140.192 71.0947 140.358 71.3145 140.588C71.5391 140.817 71.71 141.115 71.8271 141.481C71.9443 141.843 72.0029 142.285 72.0029 142.807V148H70.6406V142.792C70.6406 142.377 70.5796 142.045 70.4575 141.796C70.3354 141.542 70.1572 141.359 69.9229 141.247C69.6885 141.13 69.4004 141.071 69.0586 141.071C68.7217 141.071 68.4141 141.142 68.1357 141.284C67.8623 141.425 67.6255 141.621 67.4253 141.87C67.23 142.119 67.0762 142.404 66.9639 142.727C66.8564 143.044 66.8027 143.381 66.8027 143.737ZM73.9537 136.75H75.316V146.462L75.1988 148H73.9537V136.75ZM80.67 143.972V144.125C80.67 144.702 80.6017 145.236 80.4649 145.729C80.3282 146.218 80.128 146.643 79.8644 147.004C79.6007 147.365 79.2784 147.646 78.8976 147.846C78.5167 148.046 78.0797 148.146 77.5865 148.146C77.0836 148.146 76.6417 148.061 76.2608 147.89C75.8849 147.714 75.5675 147.463 75.3087 147.136C75.0499 146.809 74.8424 146.413 74.6861 145.949C74.5348 145.485 74.4298 144.963 74.3712 144.382V143.708C74.4298 143.122 74.5348 142.597 74.6861 142.133C74.8424 141.669 75.0499 141.274 75.3087 140.947C75.5675 140.615 75.8849 140.363 76.2608 140.192C76.6368 140.017 77.0738 139.929 77.5719 139.929C78.0699 139.929 78.5118 140.026 78.8976 140.222C79.2833 140.412 79.6056 140.686 79.8644 141.042C80.128 141.398 80.3282 141.826 80.4649 142.324C80.6017 142.817 80.67 143.366 80.67 143.972ZM79.3077 144.125V143.972C79.3077 143.576 79.2711 143.205 79.1979 142.858C79.1246 142.507 79.0074 142.199 78.8463 141.936C78.6852 141.667 78.4728 141.457 78.2091 141.306C77.9454 141.149 77.6207 141.071 77.235 141.071C76.8932 141.071 76.5953 141.13 76.3414 141.247C76.0924 141.364 75.88 141.523 75.7042 141.723C75.5284 141.918 75.3844 142.143 75.2721 142.397C75.1646 142.646 75.0841 142.905 75.0304 143.173V144.938C75.1085 145.28 75.2355 145.61 75.4112 145.927C75.5919 146.24 75.8312 146.496 76.129 146.696C76.4317 146.896 76.8053 146.997 77.2496 146.997C77.6158 146.997 77.9283 146.923 78.1871 146.777C78.4508 146.625 78.6632 146.418 78.8243 146.154C78.9903 145.891 79.1124 145.585 79.1905 145.239C79.2687 144.892 79.3077 144.521 79.3077 144.125ZM87.1325 146.169V140.075H88.4948V148H87.1984L87.1325 146.169ZM87.3889 144.499L87.9528 144.484C87.9528 145.012 87.8967 145.5 87.7844 145.949C87.677 146.394 87.5012 146.779 87.257 147.106C87.0129 147.434 86.6931 147.69 86.2976 147.875C85.9021 148.056 85.4211 148.146 84.8547 148.146C84.4689 148.146 84.1149 148.09 83.7927 147.978C83.4753 147.866 83.2019 147.692 82.9724 147.458C82.7429 147.224 82.5646 146.918 82.4377 146.542C82.3156 146.167 82.2546 145.715 82.2546 145.188V140.075H83.6096V145.202C83.6096 145.559 83.6486 145.854 83.7268 146.088C83.8098 146.318 83.9196 146.501 84.0563 146.638C84.1979 146.77 84.3542 146.862 84.5251 146.916C84.7009 146.97 84.8815 146.997 85.0671 146.997C85.6433 146.997 86.0998 146.887 86.4367 146.667C86.7736 146.442 87.0153 146.142 87.1618 145.766C87.3132 145.385 87.3889 144.963 87.3889 144.499ZM91.8152 141.32V148H90.4603V140.075H91.7786L91.8152 141.32ZM94.2908 140.031L94.2835 141.291C94.1712 141.267 94.0638 141.252 93.9612 141.247C93.8636 141.237 93.7513 141.232 93.6243 141.232C93.3118 141.232 93.0359 141.281 92.7967 141.379C92.5574 141.477 92.3548 141.613 92.1888 141.789C92.0228 141.965 91.8909 142.175 91.7933 142.419C91.7005 142.658 91.6395 142.922 91.6102 143.21L91.2293 143.43C91.2293 142.951 91.2757 142.502 91.3685 142.082C91.4661 141.662 91.615 141.291 91.8152 140.969C92.0154 140.642 92.2693 140.388 92.577 140.207C92.8895 140.021 93.2605 139.929 93.6902 139.929C93.7879 139.929 93.9002 139.941 94.0271 139.965C94.1541 139.985 94.242 140.007 94.2908 140.031ZM100.431 140.075H101.662V147.832C101.662 148.53 101.52 149.125 101.237 149.619C100.954 150.112 100.558 150.485 100.05 150.739C99.5473 150.998 98.9662 151.127 98.307 151.127C98.0336 151.127 97.7113 151.083 97.3402 150.996C96.974 150.913 96.6127 150.769 96.2562 150.563C95.9047 150.363 95.6093 150.092 95.37 149.75L96.0805 148.945C96.4125 149.345 96.7592 149.624 97.1205 149.78C97.4867 149.936 97.848 150.014 98.2045 150.014C98.6342 150.014 99.0053 149.934 99.3178 149.772C99.6303 149.611 99.872 149.372 100.043 149.055C100.219 148.742 100.307 148.356 100.307 147.897V141.818L100.431 140.075ZM94.9745 144.125V143.972C94.9745 143.366 95.0453 142.817 95.1869 142.324C95.3334 141.826 95.5409 141.398 95.8095 141.042C96.0829 140.686 96.4125 140.412 96.7982 140.222C97.184 140.026 97.6186 139.929 98.102 139.929C98.6 139.929 99.0346 140.017 99.4057 140.192C99.7816 140.363 100.099 140.615 100.358 140.947C100.621 141.274 100.829 141.669 100.98 142.133C101.132 142.597 101.237 143.122 101.295 143.708V144.382C101.242 144.963 101.137 145.485 100.98 145.949C100.829 146.413 100.621 146.809 100.358 147.136C100.099 147.463 99.7816 147.714 99.4057 147.89C99.0297 148.061 98.5902 148.146 98.0873 148.146C97.6137 148.146 97.184 148.046 96.7982 147.846C96.4174 147.646 96.0902 147.365 95.8168 147.004C95.5434 146.643 95.3334 146.218 95.1869 145.729C95.0453 145.236 94.9745 144.702 94.9745 144.125ZM96.3295 143.972V144.125C96.3295 144.521 96.3686 144.892 96.4467 145.239C96.5297 145.585 96.6542 145.891 96.8202 146.154C96.9911 146.418 97.2084 146.625 97.4721 146.777C97.7357 146.923 98.0507 146.997 98.4169 146.997C98.8661 146.997 99.2372 146.901 99.5302 146.711C99.8231 146.521 100.055 146.269 100.226 145.957C100.402 145.644 100.538 145.305 100.636 144.938V143.173C100.582 142.905 100.499 142.646 100.387 142.397C100.28 142.143 100.138 141.918 99.9623 141.723C99.7914 141.523 99.579 141.364 99.3251 141.247C99.0712 141.13 98.7733 141.071 98.4315 141.071C98.0604 141.071 97.7406 141.149 97.4721 141.306C97.2084 141.457 96.9911 141.667 96.8202 141.936C96.6542 142.199 96.5297 142.507 96.4467 142.858C96.3686 143.205 96.3295 143.576 96.3295 143.972ZM104.975 136.75V148H103.62V136.75H104.975ZM104.652 143.737L104.088 143.715C104.093 143.173 104.174 142.673 104.33 142.214C104.486 141.75 104.706 141.347 104.989 141.005C105.272 140.664 105.609 140.4 106 140.214C106.396 140.024 106.833 139.929 107.311 139.929C107.702 139.929 108.053 139.982 108.366 140.09C108.678 140.192 108.944 140.358 109.164 140.588C109.389 140.817 109.56 141.115 109.677 141.481C109.794 141.843 109.853 142.285 109.853 142.807V148H108.49V142.792C108.49 142.377 108.429 142.045 108.307 141.796C108.185 141.542 108.007 141.359 107.772 141.247C107.538 141.13 107.25 141.071 106.908 141.071C106.571 141.071 106.264 141.142 105.985 141.284C105.712 141.425 105.475 141.621 105.275 141.87C105.08 142.119 104.926 142.404 104.813 142.727C104.706 143.044 104.652 143.381 104.652 143.737ZM113.012 146.389V147.48C113.012 147.924 112.9 148.393 112.675 148.886C112.45 149.384 112.135 149.799 111.73 150.131L110.961 149.597C111.117 149.382 111.249 149.162 111.357 148.938C111.464 148.718 111.545 148.488 111.598 148.249C111.657 148.015 111.686 147.766 111.686 147.502V146.389H113.012ZM124.15 145.305C124.15 145.056 124.111 144.836 124.033 144.646C123.959 144.45 123.827 144.274 123.637 144.118C123.451 143.962 123.193 143.813 122.861 143.671C122.533 143.53 122.118 143.386 121.616 143.239C121.088 143.083 120.612 142.91 120.187 142.719C119.762 142.524 119.399 142.302 119.096 142.053C118.793 141.804 118.561 141.518 118.4 141.196C118.239 140.874 118.158 140.505 118.158 140.09C118.158 139.675 118.244 139.292 118.415 138.94C118.586 138.588 118.83 138.283 119.147 138.024C119.47 137.761 119.853 137.556 120.297 137.409C120.742 137.263 121.237 137.189 121.784 137.189C122.585 137.189 123.263 137.343 123.82 137.651C124.382 137.954 124.809 138.352 125.102 138.845C125.395 139.333 125.541 139.855 125.541 140.412H124.135C124.135 140.012 124.05 139.658 123.879 139.35C123.708 139.038 123.449 138.793 123.102 138.618C122.756 138.437 122.316 138.347 121.784 138.347C121.281 138.347 120.866 138.422 120.539 138.574C120.212 138.725 119.968 138.93 119.806 139.189C119.65 139.448 119.572 139.743 119.572 140.075C119.572 140.3 119.618 140.505 119.711 140.69C119.809 140.871 119.958 141.04 120.158 141.196C120.363 141.352 120.622 141.496 120.934 141.628C121.252 141.76 121.63 141.887 122.07 142.009C122.675 142.18 123.198 142.37 123.637 142.58C124.076 142.79 124.438 143.027 124.721 143.291C125.009 143.549 125.221 143.845 125.358 144.177C125.5 144.504 125.571 144.875 125.571 145.29C125.571 145.725 125.483 146.118 125.307 146.469C125.131 146.821 124.88 147.121 124.553 147.37C124.225 147.619 123.832 147.812 123.373 147.949C122.919 148.081 122.411 148.146 121.85 148.146C121.357 148.146 120.871 148.078 120.392 147.941C119.919 147.805 119.487 147.6 119.096 147.326C118.71 147.053 118.4 146.716 118.166 146.315C117.936 145.91 117.822 145.441 117.822 144.909H119.228C119.228 145.275 119.299 145.59 119.44 145.854C119.582 146.113 119.775 146.328 120.019 146.499C120.268 146.669 120.549 146.796 120.861 146.879C121.179 146.958 121.508 146.997 121.85 146.997C122.343 146.997 122.761 146.928 123.102 146.792C123.444 146.655 123.703 146.459 123.879 146.206C124.059 145.952 124.15 145.651 124.15 145.305ZM129.074 146.594L131.11 140.075H132.004L131.828 141.372L129.755 148H128.884L129.074 146.594ZM127.704 140.075L129.44 146.667L129.565 148H128.649L126.35 140.075H127.704ZM133.952 146.616L135.607 140.075H136.955L134.655 148H133.747L133.952 146.616ZM132.202 140.075L134.194 146.484L134.421 148H133.557L131.425 141.357L131.249 140.075H132.202ZM141.535 148.146C140.983 148.146 140.483 148.054 140.034 147.868C139.589 147.678 139.206 147.412 138.884 147.07C138.566 146.728 138.322 146.323 138.151 145.854C137.98 145.385 137.895 144.873 137.895 144.316V144.008C137.895 143.364 137.99 142.79 138.181 142.287C138.371 141.779 138.63 141.35 138.957 140.998C139.284 140.646 139.655 140.38 140.07 140.2C140.485 140.019 140.915 139.929 141.359 139.929C141.926 139.929 142.414 140.026 142.824 140.222C143.239 140.417 143.579 140.69 143.842 141.042C144.106 141.389 144.301 141.799 144.428 142.272C144.555 142.741 144.619 143.254 144.619 143.811V144.418H138.701V143.312H143.264V143.21C143.244 142.858 143.171 142.517 143.044 142.185C142.922 141.853 142.727 141.579 142.458 141.364C142.189 141.149 141.823 141.042 141.359 141.042C141.052 141.042 140.769 141.108 140.51 141.24C140.251 141.367 140.029 141.557 139.843 141.811C139.658 142.065 139.514 142.375 139.411 142.741C139.309 143.107 139.257 143.53 139.257 144.008V144.316C139.257 144.692 139.309 145.046 139.411 145.378C139.519 145.705 139.672 145.993 139.873 146.242C140.078 146.491 140.324 146.687 140.612 146.828C140.905 146.97 141.237 147.041 141.608 147.041C142.087 147.041 142.492 146.943 142.824 146.748C143.156 146.552 143.447 146.291 143.696 145.964L144.516 146.616C144.345 146.875 144.128 147.121 143.864 147.355C143.601 147.59 143.276 147.78 142.89 147.927C142.509 148.073 142.058 148.146 141.535 148.146ZM151.096 146.462V136.75H152.458V148H151.213L151.096 146.462ZM145.764 144.125V143.972C145.764 143.366 145.837 142.817 145.983 142.324C146.135 141.826 146.347 141.398 146.621 141.042C146.899 140.686 147.229 140.412 147.609 140.222C147.995 140.026 148.425 139.929 148.899 139.929C149.397 139.929 149.831 140.017 150.202 140.192C150.578 140.363 150.896 140.615 151.154 140.947C151.418 141.274 151.626 141.669 151.777 142.133C151.928 142.597 152.033 143.122 152.092 143.708V144.382C152.038 144.963 151.933 145.485 151.777 145.949C151.626 146.413 151.418 146.809 151.154 147.136C150.896 147.463 150.578 147.714 150.202 147.89C149.826 148.061 149.387 148.146 148.884 148.146C148.42 148.146 147.995 148.046 147.609 147.846C147.229 147.646 146.899 147.365 146.621 147.004C146.347 146.643 146.135 146.218 145.983 145.729C145.837 145.236 145.764 144.702 145.764 144.125ZM147.126 143.972V144.125C147.126 144.521 147.165 144.892 147.243 145.239C147.326 145.585 147.453 145.891 147.624 146.154C147.795 146.418 148.012 146.625 148.276 146.777C148.54 146.923 148.855 146.997 149.221 146.997C149.67 146.997 150.039 146.901 150.327 146.711C150.62 146.521 150.854 146.269 151.03 145.957C151.206 145.644 151.342 145.305 151.44 144.938V143.173C151.381 142.905 151.296 142.646 151.184 142.397C151.076 142.143 150.935 141.918 150.759 141.723C150.588 141.523 150.376 141.364 150.122 141.247C149.873 141.13 149.577 141.071 149.235 141.071C148.864 141.071 148.545 141.149 148.276 141.306C148.012 141.457 147.795 141.667 147.624 141.936C147.453 142.199 147.326 142.507 147.243 142.858C147.165 143.205 147.126 143.576 147.126 143.972ZM157.756 148.146C157.204 148.146 156.704 148.054 156.255 147.868C155.81 147.678 155.427 147.412 155.105 147.07C154.787 146.728 154.543 146.323 154.372 145.854C154.201 145.385 154.116 144.873 154.116 144.316V144.008C154.116 143.364 154.211 142.79 154.402 142.287C154.592 141.779 154.851 141.35 155.178 140.998C155.505 140.646 155.876 140.38 156.291 140.2C156.706 140.019 157.136 139.929 157.58 139.929C158.147 139.929 158.635 140.026 159.045 140.222C159.46 140.417 159.8 140.69 160.063 141.042C160.327 141.389 160.522 141.799 160.649 142.272C160.776 142.741 160.84 143.254 160.84 143.811V144.418H154.922V143.312H159.485V143.21C159.465 142.858 159.392 142.517 159.265 142.185C159.143 141.853 158.947 141.579 158.679 141.364C158.41 141.149 158.044 141.042 157.58 141.042C157.273 141.042 156.989 141.108 156.731 141.24C156.472 141.367 156.25 141.557 156.064 141.811C155.879 142.065 155.735 142.375 155.632 142.741C155.529 143.107 155.478 143.53 155.478 144.008V144.316C155.478 144.692 155.529 145.046 155.632 145.378C155.739 145.705 155.893 145.993 156.093 146.242C156.299 146.491 156.545 146.687 156.833 146.828C157.126 146.97 157.458 147.041 157.829 147.041C158.308 147.041 158.713 146.943 159.045 146.748C159.377 146.552 159.668 146.291 159.917 145.964L160.737 146.616C160.566 146.875 160.349 147.121 160.085 147.355C159.821 147.59 159.497 147.78 159.111 147.927C158.73 148.073 158.279 148.146 157.756 148.146ZM163.677 141.767V148H162.322V140.075H163.603L163.677 141.767ZM163.354 143.737L162.79 143.715C162.795 143.173 162.876 142.673 163.032 142.214C163.188 141.75 163.408 141.347 163.691 141.005C163.974 140.664 164.311 140.4 164.702 140.214C165.097 140.024 165.534 139.929 166.013 139.929C166.404 139.929 166.755 139.982 167.068 140.09C167.38 140.192 167.646 140.358 167.866 140.588C168.091 140.817 168.262 141.115 168.379 141.481C168.496 141.843 168.554 142.285 168.554 142.807V148H167.192V142.792C167.192 142.377 167.131 142.045 167.009 141.796C166.887 141.542 166.709 141.359 166.474 141.247C166.24 141.13 165.952 141.071 165.61 141.071C165.273 141.071 164.966 141.142 164.687 141.284C164.414 141.425 164.177 141.621 163.977 141.87C163.782 142.119 163.628 142.404 163.515 142.727C163.408 143.044 163.354 143.381 163.354 143.737Z" fill="#161C2D"/>
<path d="M38.4243 37.7056H36.0693V36.2202H38.4243C38.7882 36.2202 39.0845 36.161 39.313 36.0425C39.5415 35.9198 39.7087 35.7505 39.8145 35.5347C39.9202 35.3188 39.9731 35.0755 39.9731 34.8047C39.9731 34.5296 39.9202 34.2736 39.8145 34.0366C39.7087 33.7996 39.5415 33.6092 39.313 33.4653C39.0845 33.3215 38.7882 33.2495 38.4243 33.2495H36.7295V41H34.8252V31.7578H38.4243C39.1479 31.7578 39.7679 31.889 40.2842 32.1514C40.8047 32.4095 41.2025 32.7671 41.4775 33.2241C41.7526 33.6812 41.8901 34.2038 41.8901 34.792C41.8901 35.3887 41.7526 35.9049 41.4775 36.3408C41.2025 36.7767 40.8047 37.1131 40.2842 37.3501C39.7679 37.5871 39.1479 37.7056 38.4243 37.7056ZM47.5332 33.3384L45.0195 41H42.9946L46.4287 31.7578H47.7173L47.5332 33.3384ZM49.6216 41L47.1016 33.3384L46.8984 31.7578H48.1997L51.6528 41H49.6216ZM49.5073 37.5596V39.0513H44.626V37.5596H49.5073ZM54.1348 31.7578H57.5815C58.2882 31.7578 58.8955 31.8636 59.4033 32.0752C59.9154 32.2868 60.3089 32.5999 60.584 33.0146C60.859 33.4294 60.9966 33.9393 60.9966 34.5444C60.9966 35.0396 60.9119 35.4648 60.7427 35.8203C60.5776 36.1715 60.3428 36.4657 60.0381 36.7026C59.7376 36.9354 59.3843 37.1216 58.978 37.2612L58.375 37.5786H55.3789L55.3662 36.0933H57.5942C57.9285 36.0933 58.2057 36.034 58.4258 35.9155C58.6458 35.797 58.8109 35.632 58.9209 35.4204C59.0352 35.2088 59.0923 34.9634 59.0923 34.6841C59.0923 34.3879 59.0373 34.1318 58.9272 33.916C58.8172 33.7002 58.6501 33.5352 58.4258 33.4209C58.2015 33.3066 57.9201 33.2495 57.5815 33.2495H56.0391V41H54.1348V31.7578ZM59.3018 41L57.1943 36.8804L59.2065 36.8677L61.3394 40.9111V41H59.3018ZM67.8394 31.7578V41H65.9414V31.7578H67.8394ZM70.6831 31.7578V33.2495H63.1421V31.7578H70.6831ZM75.2344 36.3154V37.75H71.6479V36.3154H75.2344ZM82.6294 31.7578V41H80.7314V31.7578H82.6294ZM85.4731 31.7578V33.2495H77.9321V31.7578H85.4731ZM90.2085 31.7578V41H88.3105V31.7578H90.2085ZM94.4868 31.7578H96.0991L98.4731 38.5435L100.847 31.7578H102.459L99.1206 41H97.8257L94.4868 31.7578ZM93.6172 31.7578H95.2231L95.5151 38.3721V41H93.6172V31.7578ZM101.723 31.7578H103.335V41H101.431V38.3721L101.723 31.7578ZM112.832 39.5146V41H107.912V39.5146H112.832ZM108.534 31.7578V41H106.63V31.7578H108.534ZM112.19 35.522V36.9692H107.912V35.522H112.19ZM112.825 31.7578V33.2495H107.912V31.7578H112.825Z" fill="#F64B4B"/>
</g>
<defs>
<clipPath id="clip0_1_149">
<rect width="255" height="279" fill="white"/>
</clipPath>
</defs>
</svg>
