<svg width="255" height="279" viewBox="0 0 255 279" fill="none" xmlns="http://www.w3.org/2000/svg">
<g clip-path="url(#clip0_1_126)">
<rect width="255" height="279" rx="10" fill="white" stroke="#E7E9ED"/>
<circle cx="48" cy="229" r="16" fill="#FB6D45"/>
<path d="M44.5072 232.848V228.546L43.048 224.531C42.9264 224.172 42.5653 223.952 42.1909 224.009C41.9728 224.049 41.7834 224.183 41.673 224.376C41.5627 224.568 41.5426 224.8 41.6182 225.008L43.5205 230.244C43.5471 230.317 43.5255 230.4 43.4663 230.451C43.4071 230.502 43.3225 230.511 43.2537 230.474L41.405 229.472C40.9822 229.233 40.4473 229.355 40.1695 229.754C39.8917 230.152 39.962 230.697 40.332 231.012L45 235C44.6808 234.327 44.5126 233.593 44.5072 232.848Z" fill="#2D2D2D"/>
<path d="M46.9931 224.69C47.5895 224.814 48.0645 225.275 48.2175 225.878L48.2303 225.926L48.3608 227L49 225.835L47.4733 221.542C47.352 221.175 46.9911 220.951 46.6171 221.009C46.3991 221.05 46.2097 221.187 46.0995 221.383C45.9893 221.58 45.9696 221.816 46.0456 222.029L46.9931 224.69Z" fill="#2D2D2D"/>
<path d="M48.3218 225L49 223.408C48.939 223.231 48.8244 223.095 48.6841 223.035C48.5439 222.974 48.3907 222.994 48.2619 223.089C48.0358 223.271 47.9412 223.641 48.0374 223.967L48.3218 225Z" fill="#2D2D2D"/>
<path d="M44.6436 226C44.7423 225.317 45.2693 224.745 46 224.527L44.8017 221.579C44.6534 221.187 44.212 220.947 43.7549 221.01C43.4884 221.053 43.2567 221.199 43.1219 221.41C42.987 221.62 42.9628 221.872 43.0556 222.1L44.6436 226Z" fill="#2D2D2D"/>
<path d="M56.5873 227.882C56.2483 227.748 55.8692 227.896 55.6875 228.232L54.1626 231.114C54.0678 231.294 53.8564 231.356 53.6904 231.254C53.5244 231.151 53.4667 230.923 53.5615 230.744L56.289 225.59C56.4681 225.268 56.4078 224.854 56.1457 224.608C55.9881 224.468 55.7815 224.41 55.581 224.45C55.3805 224.49 55.2065 224.623 55.1054 224.814L52.3588 230.004C52.2975 230.12 52.1835 230.192 52.0599 230.192C51.9362 230.193 51.8216 230.122 51.7593 230.007C51.697 229.892 51.6963 229.75 51.7577 229.634L54.6572 224.155C54.8377 223.833 54.7773 223.417 54.5139 223.17C54.3563 223.03 54.1495 222.972 53.9489 223.012C53.7483 223.052 53.5742 223.186 53.4732 223.377L50.5557 228.89C50.4609 229.07 50.2495 229.132 50.0835 229.03C49.9175 228.927 49.8598 228.699 49.9546 228.52L52.1674 224.337C52.3456 224.016 52.2853 223.603 52.0242 223.356C51.8665 223.217 51.6598 223.159 51.4592 223.199C51.2586 223.239 51.0845 223.373 50.9835 223.564L48.1625 228.979C48.1259 229.049 48.0516 229.086 47.9782 229.071C47.9049 229.055 47.8491 228.99 47.84 228.91L47.5285 226.227C47.4341 225.83 47.088 225.565 46.71 225.6C46.2975 225.656 45.9909 226.039 46.0002 226.488V232.643C46.0057 234.176 46.7694 235.59 48.0033 236.351C50.0132 237.647 52.6165 236.941 53.8196 234.774L56.9088 228.936C57.0061 228.752 57.0266 228.533 56.9653 228.332C56.904 228.131 56.7666 227.967 56.5873 227.882Z" fill="#2D2D2D"/>
<path d="M83.0361 230.519H85.8101C85.7544 231.428 85.5039 232.235 85.0586 232.94C84.6195 233.646 84.0041 234.196 83.2124 234.592C82.4269 234.988 81.4806 235.186 80.3735 235.186C79.5076 235.186 78.7314 235.037 78.0449 234.74C77.3584 234.437 76.7708 234.004 76.2822 233.441C75.7998 232.879 75.4318 232.198 75.1782 231.4C74.9246 230.603 74.7979 229.709 74.7979 228.719V227.782C74.7979 226.793 74.9277 225.899 75.1875 225.101C75.4535 224.297 75.8307 223.614 76.3193 223.051C76.8141 222.488 77.4048 222.055 78.0913 221.752C78.7778 221.449 79.5448 221.297 80.3921 221.297C81.5177 221.297 82.4671 221.501 83.2402 221.91C84.0195 222.318 84.6226 222.881 85.0493 223.598C85.4823 224.316 85.742 225.132 85.8286 226.047H83.0454C83.0145 225.503 82.9062 225.042 82.7207 224.665C82.5352 224.282 82.2537 223.994 81.8765 223.802C81.5054 223.604 81.0106 223.505 80.3921 223.505C79.9282 223.505 79.5231 223.592 79.1768 223.765C78.8304 223.938 78.5397 224.201 78.3047 224.554C78.0697 224.906 77.8934 225.352 77.7759 225.89C77.6646 226.422 77.6089 227.046 77.6089 227.764V228.719C77.6089 229.418 77.6615 230.034 77.7666 230.565C77.8717 231.091 78.0326 231.536 78.249 231.901C78.4717 232.26 78.7562 232.532 79.1025 232.718C79.4551 232.897 79.8787 232.987 80.3735 232.987C80.9549 232.987 81.4342 232.894 81.8115 232.708C82.1888 232.523 82.4764 232.248 82.6743 231.883C82.8784 231.518 82.999 231.063 83.0361 230.519ZM86.8439 230.083V229.888C86.8439 229.152 86.9491 228.475 87.1594 227.856C87.3697 227.232 87.6758 226.691 88.0778 226.233C88.4799 225.775 88.9746 225.42 89.5622 225.166C90.1498 224.906 90.8239 224.776 91.5847 224.776C92.3454 224.776 93.0227 224.906 93.6164 225.166C94.2102 225.42 94.708 225.775 95.1101 226.233C95.5183 226.691 95.8275 227.232 96.0378 227.856C96.2481 228.475 96.3532 229.152 96.3532 229.888V230.083C96.3532 230.813 96.2481 231.49 96.0378 232.115C95.8275 232.733 95.5183 233.274 95.1101 233.738C94.708 234.196 94.2132 234.552 93.6257 234.805C93.0381 235.059 92.364 235.186 91.6032 235.186C90.8425 235.186 90.1652 235.059 89.5715 234.805C88.9839 234.552 88.486 234.196 88.0778 233.738C87.6758 233.274 87.3697 232.733 87.1594 232.115C86.9491 231.49 86.8439 230.813 86.8439 230.083ZM89.5158 229.888V230.083C89.5158 230.504 89.5529 230.896 89.6271 231.261C89.7014 231.626 89.8189 231.948 89.9797 232.226C90.1467 232.498 90.3632 232.712 90.6291 232.866C90.8951 233.021 91.2198 233.098 91.6032 233.098C91.9743 233.098 92.2928 233.021 92.5588 232.866C92.8247 232.712 93.0381 232.498 93.1989 232.226C93.3597 231.948 93.4772 231.626 93.5515 231.261C93.6319 230.896 93.6721 230.504 93.6721 230.083V229.888C93.6721 229.48 93.6319 229.097 93.5515 228.738C93.4772 228.373 93.3566 228.051 93.1896 227.773C93.0288 227.488 92.8155 227.266 92.5495 227.105C92.2836 226.944 91.9619 226.864 91.5847 226.864C91.2074 226.864 90.8858 226.944 90.6198 227.105C90.3601 227.266 90.1467 227.488 89.9797 227.773C89.8189 228.051 89.7014 228.373 89.6271 228.738C89.5529 229.097 89.5158 229.48 89.5158 229.888ZM100.662 232.402L102.749 224.962H104.447L103.9 227.884L101.812 235H100.393L100.662 232.402ZM99.6044 224.962L101.098 232.393L101.237 235H99.5673L97.0253 224.962H99.6044ZM106.358 232.272L107.815 224.962H110.403L107.861 235H106.201L106.358 232.272ZM104.679 224.962L106.757 232.347L107.045 235H105.616L103.529 227.894L103 224.962H104.679ZM111.122 230.083V229.888C111.122 229.152 111.227 228.475 111.437 227.856C111.647 227.232 111.954 226.691 112.356 226.233C112.758 225.775 113.252 225.42 113.84 225.166C114.428 224.906 115.102 224.776 115.862 224.776C116.623 224.776 117.3 224.906 117.894 225.166C118.488 225.42 118.986 225.775 119.388 226.233C119.796 226.691 120.105 227.232 120.316 227.856C120.526 228.475 120.631 229.152 120.631 229.888V230.083C120.631 230.813 120.526 231.49 120.316 232.115C120.105 232.733 119.796 233.274 119.388 233.738C118.986 234.196 118.491 234.552 117.903 234.805C117.316 235.059 116.642 235.186 115.881 235.186C115.12 235.186 114.443 235.059 113.849 234.805C113.262 234.552 112.764 234.196 112.356 233.738C111.954 233.274 111.647 232.733 111.437 232.115C111.227 231.49 111.122 230.813 111.122 230.083ZM113.794 229.888V230.083C113.794 230.504 113.831 230.896 113.905 231.261C113.979 231.626 114.097 231.948 114.257 232.226C114.424 232.498 114.641 232.712 114.907 232.866C115.173 233.021 115.497 233.098 115.881 233.098C116.252 233.098 116.571 233.021 116.837 232.866C117.102 232.712 117.316 232.498 117.477 232.226C117.637 231.948 117.755 231.626 117.829 231.261C117.91 230.896 117.95 230.504 117.95 230.083V229.888C117.95 229.48 117.91 229.097 117.829 228.738C117.755 228.373 117.634 228.051 117.467 227.773C117.307 227.488 117.093 227.266 116.827 227.105C116.561 226.944 116.24 226.864 115.862 226.864C115.485 226.864 115.164 226.944 114.898 227.105C114.638 227.266 114.424 227.488 114.257 227.773C114.097 228.051 113.979 228.373 113.905 228.738C113.831 229.097 113.794 229.48 113.794 229.888ZM124.745 227.151V235H122.073V224.962H124.587L124.745 227.151ZM127.769 224.897L127.723 227.374C127.593 227.355 127.435 227.34 127.25 227.328C127.07 227.309 126.907 227.3 126.758 227.3C126.381 227.3 126.053 227.349 125.775 227.448C125.503 227.541 125.274 227.68 125.088 227.866C124.909 228.051 124.773 228.277 124.68 228.543C124.593 228.809 124.544 229.112 124.532 229.452L123.993 229.285C123.993 228.636 124.058 228.039 124.188 227.495C124.318 226.944 124.507 226.465 124.754 226.057C125.008 225.648 125.317 225.333 125.682 225.11C126.047 224.888 126.464 224.776 126.934 224.776C127.083 224.776 127.234 224.789 127.389 224.813C127.544 224.832 127.67 224.86 127.769 224.897ZM131.503 220.741V235H128.831V220.741H131.503ZM137.83 224.962L133.47 229.935L131.132 232.3L130.158 230.371L132.013 228.014L134.62 224.962H137.83ZM135.056 235L132.087 230.361L133.934 228.747L138.136 235H135.056ZM144.208 232.226C144.208 232.034 144.152 231.861 144.041 231.707C143.929 231.552 143.722 231.41 143.419 231.28C143.122 231.144 142.692 231.02 142.13 230.909C141.622 230.797 141.149 230.658 140.71 230.491C140.277 230.318 139.9 230.111 139.578 229.87C139.263 229.628 139.015 229.344 138.836 229.016C138.657 228.682 138.567 228.302 138.567 227.875C138.567 227.454 138.657 227.059 138.836 226.688C139.022 226.316 139.285 225.989 139.625 225.704C139.971 225.413 140.392 225.188 140.886 225.027C141.387 224.86 141.95 224.776 142.575 224.776C143.447 224.776 144.195 224.916 144.82 225.194C145.451 225.472 145.933 225.856 146.267 226.344C146.607 226.827 146.778 227.377 146.778 227.996H144.106C144.106 227.736 144.05 227.504 143.939 227.3C143.834 227.09 143.667 226.926 143.438 226.808C143.215 226.684 142.924 226.623 142.566 226.623C142.269 226.623 142.012 226.675 141.796 226.78C141.579 226.879 141.412 227.015 141.295 227.188C141.183 227.355 141.128 227.541 141.128 227.745C141.128 227.9 141.159 228.039 141.22 228.163C141.288 228.28 141.397 228.388 141.545 228.487C141.694 228.586 141.885 228.679 142.12 228.766C142.362 228.846 142.658 228.92 143.011 228.988C143.735 229.137 144.381 229.332 144.95 229.573C145.519 229.808 145.97 230.129 146.304 230.538C146.638 230.94 146.805 231.468 146.805 232.124C146.805 232.569 146.706 232.978 146.508 233.349C146.311 233.72 146.026 234.044 145.655 234.323C145.284 234.595 144.839 234.808 144.319 234.963C143.806 235.111 143.227 235.186 142.584 235.186C141.65 235.186 140.859 235.019 140.209 234.685C139.566 234.351 139.077 233.927 138.743 233.414C138.416 232.894 138.252 232.362 138.252 231.818H140.784C140.797 232.183 140.89 232.477 141.063 232.699C141.242 232.922 141.468 233.083 141.74 233.182C142.018 233.281 142.318 233.33 142.64 233.33C142.986 233.33 143.274 233.284 143.503 233.191C143.731 233.092 143.905 232.962 144.022 232.801C144.146 232.634 144.208 232.443 144.208 232.226Z" fill="#161C2D"/>
<path d="M39.147 78.6782H35.3428V76.2788H39.147C39.7349 76.2788 40.2134 76.1831 40.5825 75.9917C40.9517 75.7935 41.2217 75.52 41.3926 75.1714C41.5635 74.8228 41.6489 74.4297 41.6489 73.9922C41.6489 73.5479 41.5635 73.1343 41.3926 72.7515C41.2217 72.3687 40.9517 72.061 40.5825 71.8286C40.2134 71.5962 39.7349 71.48 39.147 71.48H36.4092V84H33.333V69.0703H39.147C40.3159 69.0703 41.3174 69.2822 42.1514 69.7061C42.9922 70.123 43.6348 70.7007 44.0791 71.439C44.5234 72.1772 44.7456 73.0215 44.7456 73.9717C44.7456 74.9355 44.5234 75.7695 44.0791 76.4736C43.6348 77.1777 42.9922 77.7212 42.1514 78.104C41.3174 78.4868 40.3159 78.6782 39.147 78.6782ZM49.1367 75.3252V84H46.1836V72.9053H48.9624L49.1367 75.3252ZM52.4795 72.8335L52.4282 75.5713C52.2847 75.5508 52.1104 75.5337 51.9053 75.52C51.707 75.4995 51.5259 75.4893 51.3618 75.4893C50.9448 75.4893 50.5825 75.5439 50.2749 75.6533C49.9741 75.7559 49.7212 75.9097 49.5161 76.1147C49.3179 76.3198 49.1675 76.5693 49.0649 76.8633C48.9692 77.1572 48.9146 77.4922 48.9009 77.8682L48.3062 77.6836C48.3062 76.9658 48.3779 76.3062 48.5215 75.7046C48.665 75.0962 48.8735 74.5664 49.147 74.1152C49.4272 73.6641 49.769 73.3154 50.1724 73.0693C50.5757 72.8232 51.0371 72.7002 51.5566 72.7002C51.7207 72.7002 51.8882 72.7139 52.0591 72.7412C52.23 72.7617 52.3701 72.7925 52.4795 72.8335ZM52.5947 78.5654V78.3501C52.5947 77.5366 52.7109 76.7881 52.9434 76.1045C53.1758 75.4141 53.5142 74.8159 53.9585 74.3101C54.4028 73.8042 54.9497 73.4111 55.5991 73.1309C56.2485 72.8438 56.9937 72.7002 57.8345 72.7002C58.6753 72.7002 59.4238 72.8438 60.0801 73.1309C60.7363 73.4111 61.2866 73.8042 61.731 74.3101C62.1821 74.8159 62.5239 75.4141 62.7563 76.1045C62.9888 76.7881 63.105 77.5366 63.105 78.3501V78.5654C63.105 79.3721 62.9888 80.1206 62.7563 80.811C62.5239 81.4946 62.1821 82.0928 61.731 82.6055C61.2866 83.1113 60.7397 83.5044 60.0903 83.7847C59.4409 84.0649 58.6958 84.2051 57.855 84.2051C57.0142 84.2051 56.2656 84.0649 55.6094 83.7847C54.96 83.5044 54.4097 83.1113 53.9585 82.6055C53.5142 82.0928 53.1758 81.4946 52.9434 80.811C52.7109 80.1206 52.5947 79.3721 52.5947 78.5654ZM55.5479 78.3501V78.5654C55.5479 79.0303 55.5889 79.4644 55.6709 79.8677C55.7529 80.271 55.8828 80.6265 56.0605 80.9341C56.2451 81.2349 56.4844 81.4707 56.7783 81.6416C57.0723 81.8125 57.4312 81.8979 57.855 81.8979C58.2651 81.8979 58.6172 81.8125 58.9111 81.6416C59.2051 81.4707 59.4409 81.2349 59.6187 80.9341C59.7964 80.6265 59.9263 80.271 60.0083 79.8677C60.0972 79.4644 60.1416 79.0303 60.1416 78.5654V78.3501C60.1416 77.8989 60.0972 77.4751 60.0083 77.0786C59.9263 76.6753 59.793 76.3198 59.6084 76.0122C59.4307 75.6978 59.1948 75.4517 58.9009 75.2739C58.6069 75.0962 58.2515 75.0073 57.8345 75.0073C57.4175 75.0073 57.062 75.0962 56.7681 75.2739C56.481 75.4517 56.2451 75.6978 56.0605 76.0122C55.8828 76.3198 55.7529 76.6753 55.6709 77.0786C55.5889 77.4751 55.5479 77.8989 55.5479 78.3501ZM70.9722 81.5801V68.25H73.9458V84H71.2695L70.9722 81.5801ZM63.9585 78.5859V78.3706C63.9585 77.5229 64.0542 76.7539 64.2456 76.0635C64.437 75.3662 64.7173 74.7681 65.0864 74.269C65.4556 73.77 65.9102 73.3838 66.4502 73.1104C66.9902 72.8369 67.6055 72.7002 68.2959 72.7002C68.9453 72.7002 69.5127 72.8369 69.998 73.1104C70.4902 73.3838 70.9072 73.7734 71.249 74.2793C71.5977 74.7783 71.8779 75.3696 72.0898 76.0532C72.3018 76.73 72.4556 77.4717 72.5513 78.2783V78.75C72.4556 79.5225 72.3018 80.2402 72.0898 80.9033C71.8779 81.5664 71.5977 82.1475 71.249 82.6465C70.9072 83.1387 70.4902 83.5215 69.998 83.7949C69.5059 84.0684 68.9316 84.2051 68.2754 84.2051C67.585 84.2051 66.9697 84.0649 66.4297 83.7847C65.8965 83.5044 65.4453 83.1113 65.0762 82.6055C64.7139 82.0996 64.437 81.5049 64.2456 80.8213C64.0542 80.1377 63.9585 79.3926 63.9585 78.5859ZM66.9116 78.3706V78.5859C66.9116 79.0439 66.9458 79.4712 67.0142 79.8677C67.0894 80.2642 67.209 80.6162 67.373 80.9238C67.5439 81.2246 67.7627 81.4604 68.0293 81.6313C68.3027 81.7954 68.6343 81.8774 69.0239 81.8774C69.5298 81.8774 69.9468 81.7646 70.2749 81.5391C70.603 81.3066 70.8525 80.9888 71.0234 80.5854C71.2012 80.1821 71.3037 79.7173 71.3311 79.1909V77.8477C71.3105 77.417 71.249 77.0308 71.1465 76.689C71.0508 76.3403 70.9072 76.043 70.7158 75.7969C70.5312 75.5508 70.2988 75.3594 70.0186 75.2227C69.7451 75.0859 69.4204 75.0176 69.0444 75.0176C68.6616 75.0176 68.3335 75.1064 68.0601 75.2842C67.7866 75.4551 67.5645 75.6909 67.3936 75.9917C67.2295 76.2925 67.1064 76.6479 67.0244 77.0581C66.9492 77.4614 66.9116 77.8989 66.9116 78.3706ZM82.3154 81.3442V72.9053H85.2686V84H82.4897L82.3154 81.3442ZM82.6436 79.0679L83.5151 79.0474C83.5151 79.7856 83.4297 80.4727 83.2588 81.1084C83.0879 81.7373 82.8315 82.2842 82.4897 82.749C82.1479 83.207 81.7173 83.5659 81.1978 83.8257C80.6782 84.0786 80.0664 84.2051 79.3623 84.2051C78.8223 84.2051 78.3232 84.1299 77.8652 83.9795C77.4141 83.8223 77.0244 83.5796 76.6963 83.2515C76.375 82.9165 76.1221 82.4893 75.9375 81.9697C75.7598 81.4434 75.6709 80.811 75.6709 80.0728V72.9053H78.624V80.0933C78.624 80.4214 78.6616 80.6982 78.7368 80.9238C78.8188 81.1494 78.9316 81.334 79.0752 81.4775C79.2188 81.6211 79.3862 81.7236 79.5776 81.7852C79.7759 81.8467 79.9946 81.8774 80.2339 81.8774C80.8423 81.8774 81.3208 81.7544 81.6694 81.5083C82.0249 81.2622 82.2744 80.9272 82.418 80.5034C82.5684 80.0728 82.6436 79.5942 82.6436 79.0679ZM91.6079 81.8979C91.9702 81.8979 92.2915 81.8296 92.5718 81.6929C92.8521 81.5493 93.0708 81.3511 93.228 81.0981C93.3921 80.8384 93.4775 80.5342 93.4844 80.1855H96.2632C96.2563 80.9648 96.0479 81.6587 95.6377 82.2671C95.2275 82.8687 94.6772 83.3438 93.9868 83.6924C93.2964 84.0342 92.5239 84.2051 91.6694 84.2051C90.8081 84.2051 90.0562 84.0615 89.4136 83.7744C88.7778 83.4873 88.248 83.0908 87.8242 82.585C87.4004 82.0723 87.0825 81.4775 86.8706 80.8008C86.6587 80.1172 86.5527 79.3857 86.5527 78.6064V78.3091C86.5527 77.5229 86.6587 76.7915 86.8706 76.1147C87.0825 75.4312 87.4004 74.8364 87.8242 74.3306C88.248 73.8179 88.7778 73.418 89.4136 73.1309C90.0493 72.8438 90.7944 72.7002 91.6489 72.7002C92.5581 72.7002 93.3545 72.8745 94.0381 73.2231C94.7285 73.5718 95.2686 74.0708 95.6582 74.7202C96.0547 75.3628 96.2563 76.125 96.2632 77.0068H93.4844C93.4775 76.6377 93.3989 76.3027 93.2485 76.002C93.105 75.7012 92.8931 75.4619 92.6128 75.2842C92.3394 75.0996 92.001 75.0073 91.5977 75.0073C91.167 75.0073 90.8149 75.0996 90.5415 75.2842C90.2681 75.4619 90.0562 75.708 89.9058 76.0225C89.7554 76.3301 89.6494 76.6821 89.5879 77.0786C89.5332 77.4683 89.5059 77.8784 89.5059 78.3091V78.6064C89.5059 79.0371 89.5332 79.4507 89.5879 79.8472C89.6426 80.2437 89.7451 80.5957 89.8955 80.9033C90.0527 81.2109 90.2681 81.4536 90.5415 81.6313C90.8149 81.8091 91.1704 81.8979 91.6079 81.8979ZM102.91 72.9053V74.9971H96.4502V72.9053H102.91ZM98.0498 70.1675H101.003V80.6572C101.003 80.9785 101.044 81.2246 101.126 81.3955C101.215 81.5664 101.345 81.686 101.516 81.7544C101.687 81.8159 101.902 81.8467 102.162 81.8467C102.346 81.8467 102.51 81.8398 102.654 81.8262C102.804 81.8057 102.931 81.7852 103.033 81.7646L103.043 83.9385C102.791 84.0205 102.517 84.0854 102.223 84.1333C101.929 84.1812 101.604 84.2051 101.249 84.2051C100.6 84.2051 100.032 84.0991 99.5469 83.8872C99.0684 83.6685 98.6992 83.3198 98.4395 82.8413C98.1797 82.3628 98.0498 81.7339 98.0498 80.9546V70.1675ZM113.589 84H110.339L110.359 81.6006H113.589C114.396 81.6006 115.076 81.4194 115.63 81.0571C116.184 80.688 116.601 80.1514 116.881 79.4473C117.168 78.7432 117.312 77.8921 117.312 76.894V76.166C117.312 75.4004 117.229 74.7271 117.065 74.146C116.908 73.5649 116.672 73.0762 116.358 72.6797C116.043 72.2832 115.657 71.9858 115.199 71.7876C114.741 71.5825 114.215 71.48 113.62 71.48H110.277V69.0703H113.62C114.618 69.0703 115.531 69.2412 116.358 69.583C117.192 69.918 117.913 70.3999 118.521 71.0288C119.13 71.6577 119.598 72.4097 119.926 73.2847C120.261 74.1528 120.429 75.1201 120.429 76.1865V76.894C120.429 77.9536 120.261 78.9209 119.926 79.7959C119.598 80.6709 119.13 81.4229 118.521 82.0518C117.92 82.6738 117.199 83.1558 116.358 83.4976C115.524 83.8325 114.601 84 113.589 84ZM112.082 69.0703V84H109.006V69.0703H112.082ZM127.086 84.2051C126.225 84.2051 125.452 84.0684 124.769 83.7949C124.085 83.5146 123.504 83.1284 123.025 82.6362C122.554 82.144 122.191 81.5732 121.938 80.9238C121.686 80.2676 121.559 79.5703 121.559 78.832V78.4219C121.559 77.5811 121.679 76.812 121.918 76.1147C122.157 75.4175 122.499 74.8125 122.943 74.2998C123.395 73.7871 123.941 73.394 124.584 73.1206C125.227 72.8403 125.951 72.7002 126.758 72.7002C127.544 72.7002 128.241 72.8301 128.85 73.0898C129.458 73.3496 129.967 73.7188 130.377 74.1973C130.794 74.6758 131.109 75.25 131.321 75.9199C131.533 76.583 131.639 77.3213 131.639 78.1348V79.3652H122.82V77.3965H128.737V77.1709C128.737 76.7607 128.662 76.395 128.511 76.0737C128.368 75.7456 128.149 75.4858 127.855 75.2944C127.561 75.103 127.185 75.0073 126.727 75.0073C126.337 75.0073 126.002 75.0928 125.722 75.2637C125.442 75.4346 125.213 75.6738 125.035 75.9814C124.864 76.2891 124.734 76.6514 124.646 77.0684C124.563 77.4785 124.522 77.9297 124.522 78.4219V78.832C124.522 79.2764 124.584 79.6865 124.707 80.0625C124.837 80.4385 125.018 80.7632 125.25 81.0366C125.49 81.3101 125.777 81.522 126.112 81.6724C126.454 81.8228 126.84 81.8979 127.271 81.8979C127.804 81.8979 128.299 81.7954 128.757 81.5903C129.222 81.3784 129.622 81.0605 129.957 80.6367L131.393 82.1953C131.16 82.5303 130.842 82.8516 130.439 83.1592C130.042 83.4668 129.564 83.7197 129.003 83.918C128.443 84.1094 127.804 84.2051 127.086 84.2051ZM138.819 80.9341C138.819 80.7222 138.757 80.5308 138.634 80.3599C138.511 80.189 138.282 80.0317 137.947 79.8882C137.619 79.7378 137.144 79.6011 136.522 79.478C135.961 79.355 135.438 79.2012 134.953 79.0166C134.475 78.8252 134.058 78.5962 133.702 78.3296C133.354 78.063 133.08 77.7485 132.882 77.3862C132.684 77.0171 132.584 76.5967 132.584 76.125C132.584 75.6602 132.684 75.2227 132.882 74.8125C133.087 74.4023 133.377 74.04 133.753 73.7256C134.136 73.4043 134.601 73.1548 135.148 72.9771C135.702 72.7925 136.324 72.7002 137.014 72.7002C137.978 72.7002 138.805 72.854 139.496 73.1616C140.193 73.4692 140.726 73.8931 141.095 74.4331C141.471 74.9663 141.659 75.5747 141.659 76.2583H138.706C138.706 75.9712 138.645 75.7148 138.521 75.4893C138.405 75.2568 138.221 75.0757 137.968 74.9458C137.722 74.8091 137.4 74.7407 137.004 74.7407C136.676 74.7407 136.392 74.7988 136.153 74.915C135.914 75.0244 135.729 75.1748 135.599 75.3662C135.476 75.5508 135.415 75.7559 135.415 75.9814C135.415 76.1523 135.449 76.3062 135.517 76.4429C135.592 76.5728 135.712 76.6924 135.876 76.8018C136.04 76.9111 136.252 77.0137 136.512 77.1094C136.778 77.1982 137.106 77.2803 137.496 77.3555C138.296 77.5195 139.01 77.7349 139.639 78.0015C140.268 78.2612 140.767 78.6167 141.136 79.0679C141.505 79.5122 141.69 80.0967 141.69 80.8213C141.69 81.3135 141.581 81.7646 141.362 82.1748C141.143 82.585 140.829 82.9438 140.418 83.2515C140.008 83.5522 139.516 83.7881 138.942 83.959C138.375 84.123 137.735 84.2051 137.024 84.2051C135.992 84.2051 135.117 84.0205 134.399 83.6514C133.688 83.2822 133.148 82.814 132.779 82.2466C132.417 81.6724 132.236 81.0845 132.236 80.4829H135.035C135.049 80.8862 135.151 81.2109 135.343 81.457C135.541 81.7031 135.791 81.8809 136.091 81.9902C136.399 82.0996 136.73 82.1543 137.086 82.1543C137.469 82.1543 137.787 82.103 138.04 82.0005C138.292 81.8911 138.484 81.7476 138.614 81.5698C138.75 81.3853 138.819 81.1733 138.819 80.9341ZM146.225 72.9053V84H143.261V72.9053H146.225ZM143.077 70.0137C143.077 69.583 143.227 69.2275 143.528 68.9473C143.829 68.667 144.232 68.5269 144.738 68.5269C145.237 68.5269 145.637 68.667 145.938 68.9473C146.245 69.2275 146.399 69.583 146.399 70.0137C146.399 70.4443 146.245 70.7998 145.938 71.0801C145.637 71.3604 145.237 71.5005 144.738 71.5005C144.232 71.5005 143.829 71.3604 143.528 71.0801C143.227 70.7998 143.077 70.4443 143.077 70.0137ZM155.189 72.9053H157.865V83.6309C157.865 84.6426 157.64 85.5005 157.188 86.2046C156.744 86.9155 156.122 87.4521 155.322 87.8145C154.522 88.1836 153.593 88.3682 152.533 88.3682C152.068 88.3682 151.576 88.3066 151.057 88.1836C150.544 88.0605 150.052 87.8691 149.58 87.6094C149.115 87.3496 148.726 87.0215 148.411 86.625L149.713 84.8818C150.055 85.2783 150.452 85.5859 150.903 85.8047C151.354 86.0303 151.853 86.1431 152.4 86.1431C152.933 86.1431 153.384 86.0439 153.753 85.8457C154.123 85.6543 154.406 85.3706 154.604 84.9946C154.803 84.6255 154.902 84.1777 154.902 83.6514V75.4688L155.189 72.9053ZM147.724 78.5859V78.3706C147.724 77.5229 147.827 76.7539 148.032 76.0635C148.244 75.3662 148.541 74.7681 148.924 74.269C149.313 73.77 149.785 73.3838 150.339 73.1104C150.893 72.8369 151.518 72.7002 152.215 72.7002C152.954 72.7002 153.572 72.8369 154.071 73.1104C154.57 73.3838 154.98 73.7734 155.302 74.2793C155.623 74.7783 155.873 75.3696 156.05 76.0532C156.235 76.73 156.378 77.4717 156.481 78.2783V78.75C156.378 79.5225 156.225 80.2402 156.02 80.9033C155.814 81.5664 155.544 82.1475 155.209 82.6465C154.875 83.1387 154.458 83.5215 153.958 83.7949C153.466 84.0684 152.878 84.2051 152.195 84.2051C151.511 84.2051 150.893 84.0649 150.339 83.7847C149.792 83.5044 149.324 83.1113 148.934 82.6055C148.544 82.0996 148.244 81.5049 148.032 80.8213C147.827 80.1377 147.724 79.3926 147.724 78.5859ZM150.677 78.3706V78.5859C150.677 79.0439 150.722 79.4712 150.811 79.8677C150.899 80.2642 151.036 80.6162 151.221 80.9238C151.412 81.2246 151.648 81.4604 151.928 81.6313C152.215 81.7954 152.554 81.8774 152.943 81.8774C153.483 81.8774 153.924 81.7646 154.266 81.5391C154.608 81.3066 154.864 80.9888 155.035 80.5854C155.206 80.1821 155.305 79.7173 155.333 79.1909V77.8477C155.319 77.417 155.261 77.0308 155.158 76.689C155.056 76.3403 154.912 76.043 154.728 75.7969C154.543 75.5508 154.304 75.3594 154.01 75.2227C153.716 75.0859 153.367 75.0176 152.964 75.0176C152.574 75.0176 152.236 75.1064 151.949 75.2842C151.668 75.4551 151.433 75.6909 151.241 75.9917C151.057 76.2925 150.917 76.6479 150.821 77.0581C150.725 77.4614 150.677 77.8989 150.677 78.3706ZM162.554 75.2739V84H159.601V72.9053H162.369L162.554 75.2739ZM162.123 78.063H161.323C161.323 77.2427 161.429 76.5044 161.641 75.8481C161.853 75.1851 162.15 74.6211 162.533 74.1562C162.916 73.6846 163.371 73.3257 163.897 73.0796C164.43 72.8267 165.025 72.7002 165.681 72.7002C166.201 72.7002 166.676 72.7754 167.106 72.9258C167.537 73.0762 167.906 73.3154 168.214 73.6436C168.528 73.9717 168.768 74.4058 168.932 74.9458C169.103 75.4858 169.188 76.1455 169.188 76.9248V84H166.214V76.9146C166.214 76.4224 166.146 76.0396 166.009 75.7661C165.873 75.4927 165.671 75.3013 165.404 75.1919C165.145 75.0757 164.823 75.0176 164.44 75.0176C164.044 75.0176 163.699 75.0962 163.405 75.2534C163.118 75.4106 162.878 75.6294 162.687 75.9097C162.502 76.1831 162.362 76.5044 162.267 76.8735C162.171 77.2427 162.123 77.6392 162.123 78.063ZM176.04 84.2051C175.179 84.2051 174.406 84.0684 173.723 83.7949C173.039 83.5146 172.458 83.1284 171.979 82.6362C171.508 82.144 171.146 81.5732 170.893 80.9238C170.64 80.2676 170.513 79.5703 170.513 78.832V78.4219C170.513 77.5811 170.633 76.812 170.872 76.1147C171.111 75.4175 171.453 74.8125 171.897 74.2998C172.349 73.7871 172.896 73.394 173.538 73.1206C174.181 72.8403 174.905 72.7002 175.712 72.7002C176.498 72.7002 177.195 72.8301 177.804 73.0898C178.412 73.3496 178.921 73.7188 179.332 74.1973C179.749 74.6758 180.063 75.25 180.275 75.9199C180.487 76.583 180.593 77.3213 180.593 78.1348V79.3652H171.774V77.3965H177.691V77.1709C177.691 76.7607 177.616 76.395 177.465 76.0737C177.322 75.7456 177.103 75.4858 176.809 75.2944C176.515 75.103 176.139 75.0073 175.681 75.0073C175.292 75.0073 174.957 75.0928 174.676 75.2637C174.396 75.4346 174.167 75.6738 173.989 75.9814C173.818 76.2891 173.688 76.6514 173.6 77.0684C173.518 77.4785 173.477 77.9297 173.477 78.4219V78.832C173.477 79.2764 173.538 79.6865 173.661 80.0625C173.791 80.4385 173.972 80.7632 174.205 81.0366C174.444 81.3101 174.731 81.522 175.066 81.6724C175.408 81.8228 175.794 81.8979 176.225 81.8979C176.758 81.8979 177.253 81.7954 177.711 81.5903C178.176 81.3784 178.576 81.0605 178.911 80.6367L180.347 82.1953C180.114 82.5303 179.796 82.8516 179.393 83.1592C178.997 83.4668 178.518 83.7197 177.958 83.918C177.397 84.1094 176.758 84.2051 176.04 84.2051ZM184.728 75.3252V84H181.774V72.9053H184.553L184.728 75.3252ZM188.07 72.8335L188.019 75.5713C187.875 75.5508 187.701 75.5337 187.496 75.52C187.298 75.4995 187.117 75.4893 186.953 75.4893C186.536 75.4893 186.173 75.5439 185.866 75.6533C185.565 75.7559 185.312 75.9097 185.107 76.1147C184.909 76.3198 184.758 76.5693 184.656 76.8633C184.56 77.1572 184.505 77.4922 184.492 77.8682L183.897 77.6836C183.897 76.9658 183.969 76.3062 184.112 75.7046C184.256 75.0962 184.464 74.5664 184.738 74.1152C185.018 73.6641 185.36 73.3154 185.763 73.0693C186.167 72.8232 186.628 72.7002 187.147 72.7002C187.312 72.7002 187.479 72.7139 187.65 72.7412C187.821 72.7617 187.961 72.7925 188.07 72.8335Z" fill="#161C2D"/>
<path opacity="0.7" d="M39.7051 114.85V116H34.373V114.85H39.7051ZM34.6514 105.336V116H33.2378V105.336H34.6514ZM45.6915 114.645V110.565C45.6915 110.253 45.628 109.982 45.5011 109.752C45.379 109.518 45.1935 109.337 44.9444 109.21C44.6954 109.083 44.3878 109.02 44.0216 109.02C43.6798 109.02 43.3795 109.079 43.1207 109.196C42.8668 109.313 42.6666 109.467 42.5201 109.657C42.3785 109.848 42.3077 110.053 42.3077 110.272H40.9527C40.9527 109.989 41.026 109.708 41.1725 109.43C41.3189 109.152 41.5289 108.9 41.8023 108.676C42.0807 108.446 42.4127 108.266 42.7984 108.134C43.1891 107.997 43.6236 107.929 44.1021 107.929C44.6783 107.929 45.1861 108.026 45.6256 108.222C46.0699 108.417 46.4166 108.712 46.6656 109.108C46.9195 109.499 47.0465 109.989 47.0465 110.58V114.271C47.0465 114.535 47.0685 114.816 47.1124 115.114C47.1612 115.412 47.232 115.668 47.3248 115.883V116H45.9112C45.8429 115.844 45.7892 115.636 45.7501 115.377C45.711 115.114 45.6915 114.87 45.6915 114.645ZM45.9259 111.195L45.9405 112.147H44.5709C44.1852 112.147 43.8409 112.179 43.5382 112.243C43.2354 112.301 42.9815 112.392 42.7765 112.514C42.5714 112.636 42.4151 112.79 42.3077 112.975C42.2003 113.156 42.1466 113.368 42.1466 113.612C42.1466 113.861 42.2027 114.088 42.315 114.293C42.4273 114.499 42.5958 114.662 42.8204 114.784C43.0499 114.901 43.3307 114.96 43.6627 114.96C44.0777 114.96 44.4439 114.872 44.7613 114.696C45.0787 114.521 45.3302 114.306 45.5157 114.052C45.7062 113.798 45.8087 113.551 45.8233 113.312L46.402 113.964C46.3678 114.169 46.275 114.396 46.1236 114.645C45.9723 114.894 45.7696 115.133 45.5157 115.363C45.2667 115.587 44.9688 115.775 44.6222 115.927C44.2804 116.073 43.8946 116.146 43.4649 116.146C42.9278 116.146 42.4566 116.042 42.0514 115.832C41.651 115.622 41.3385 115.341 41.1139 114.989C40.8941 114.633 40.7843 114.235 40.7843 113.795C40.7843 113.371 40.8673 112.997 41.0333 112.675C41.1993 112.348 41.4386 112.077 41.7511 111.862C42.0636 111.642 42.4396 111.476 42.879 111.364C43.3185 111.251 43.8092 111.195 44.3512 111.195H45.9259ZM50.4401 104.75V116H49.0778V104.75H50.4401ZM55.2814 108.075L51.8244 111.774L49.8908 113.781L49.781 112.338L51.1652 110.683L53.6262 108.075H55.2814ZM54.0437 116L51.2165 112.221L51.9196 111.012L55.6403 116H54.0437ZM59.7225 116.146C59.1707 116.146 58.6702 116.054 58.221 115.868C57.7767 115.678 57.3934 115.412 57.0711 115.07C56.7537 114.728 56.5096 114.323 56.3387 113.854C56.1678 113.385 56.0823 112.873 56.0823 112.316V112.008C56.0823 111.364 56.1775 110.79 56.368 110.287C56.5584 109.779 56.8172 109.35 57.1443 108.998C57.4715 108.646 57.8426 108.38 58.2576 108.2C58.6727 108.019 59.1023 107.929 59.5467 107.929C60.1131 107.929 60.6014 108.026 61.0115 108.222C61.4266 108.417 61.7659 108.69 62.0296 109.042C62.2933 109.389 62.4886 109.799 62.6155 110.272C62.7425 110.741 62.806 111.254 62.806 111.811V112.418H56.888V111.312H61.451V111.21C61.4314 110.858 61.3582 110.517 61.2313 110.185C61.1092 109.853 60.9139 109.579 60.6453 109.364C60.3768 109.149 60.0105 109.042 59.5467 109.042C59.2391 109.042 58.9559 109.108 58.6971 109.24C58.4383 109.367 58.2161 109.557 58.0306 109.811C57.845 110.065 57.701 110.375 57.5984 110.741C57.4959 111.107 57.4446 111.53 57.4446 112.008V112.316C57.4446 112.692 57.4959 113.046 57.5984 113.378C57.7059 113.705 57.8597 113.993 58.0599 114.242C58.2649 114.491 58.5115 114.687 58.7996 114.828C59.0926 114.97 59.4246 115.041 59.7957 115.041C60.2742 115.041 60.6795 114.943 61.0115 114.748C61.3436 114.552 61.6341 114.291 61.8831 113.964L62.7034 114.616C62.5325 114.875 62.3152 115.121 62.0516 115.355C61.7879 115.59 61.4632 115.78 61.0774 115.927C60.6966 116.073 60.2449 116.146 59.7225 116.146ZM74.5518 112.609H75.958C75.8848 113.283 75.6919 113.886 75.3794 114.418C75.0669 114.95 74.625 115.373 74.0537 115.685C73.4824 115.993 72.7695 116.146 71.915 116.146C71.29 116.146 70.7212 116.029 70.2085 115.795C69.7007 115.561 69.2637 115.229 68.8975 114.799C68.5312 114.364 68.248 113.844 68.0479 113.239C67.8525 112.628 67.7549 111.95 67.7549 111.203V110.141C67.7549 109.394 67.8525 108.717 68.0479 108.112C68.248 107.501 68.5337 106.979 68.9048 106.544C69.2808 106.11 69.7324 105.775 70.2598 105.541C70.7871 105.307 71.3804 105.189 72.0396 105.189C72.8452 105.189 73.5264 105.341 74.083 105.644C74.6396 105.946 75.0718 106.366 75.3794 106.903C75.6919 107.436 75.8848 108.053 75.958 108.756H74.5518C74.4834 108.258 74.3564 107.831 74.1709 107.475C73.9854 107.113 73.7217 106.835 73.3799 106.64C73.0381 106.444 72.5913 106.347 72.0396 106.347C71.5659 106.347 71.1484 106.437 70.7871 106.618C70.4307 106.798 70.1304 107.055 69.8862 107.387C69.647 107.719 69.4663 108.117 69.3442 108.581C69.2222 109.044 69.1611 109.56 69.1611 110.126V111.203C69.1611 111.725 69.2148 112.216 69.3223 112.675C69.4346 113.134 69.603 113.537 69.8276 113.883C70.0522 114.23 70.3379 114.503 70.6846 114.704C71.0312 114.899 71.4414 114.997 71.915 114.997C72.5156 114.997 72.9941 114.901 73.3506 114.711C73.707 114.521 73.9756 114.247 74.1562 113.891C74.3418 113.534 74.4736 113.107 74.5518 112.609ZM77.2203 112.125V111.957C77.2203 111.386 77.3033 110.856 77.4693 110.368C77.6354 109.875 77.8746 109.447 78.1871 109.086C78.4996 108.72 78.878 108.437 79.3224 108.236C79.7667 108.031 80.2647 107.929 80.8165 107.929C81.3731 107.929 81.8736 108.031 82.318 108.236C82.7672 108.437 83.148 108.72 83.4605 109.086C83.7779 109.447 84.0196 109.875 84.1856 110.368C84.3517 110.856 84.4347 111.386 84.4347 111.957V112.125C84.4347 112.697 84.3517 113.227 84.1856 113.715C84.0196 114.203 83.7779 114.63 83.4605 114.997C83.148 115.358 82.7696 115.641 82.3253 115.846C81.8858 116.046 81.3878 116.146 80.8312 116.146C80.2745 116.146 79.774 116.046 79.3297 115.846C78.8854 115.641 78.5045 115.358 78.1871 114.997C77.8746 114.63 77.6354 114.203 77.4693 113.715C77.3033 113.227 77.2203 112.697 77.2203 112.125ZM78.5753 111.957V112.125C78.5753 112.521 78.6217 112.895 78.7145 113.246C78.8072 113.593 78.9464 113.9 79.1319 114.169C79.3224 114.438 79.5592 114.65 79.8424 114.806C80.1256 114.958 80.4552 115.033 80.8312 115.033C81.2022 115.033 81.527 114.958 81.8053 114.806C82.0885 114.65 82.3229 114.438 82.5084 114.169C82.6939 113.9 82.8331 113.593 82.9259 113.246C83.0235 112.895 83.0724 112.521 83.0724 112.125V111.957C83.0724 111.566 83.0235 111.198 82.9259 110.851C82.8331 110.5 82.6915 110.189 82.5011 109.921C82.3155 109.647 82.0812 109.433 81.798 109.276C81.5196 109.12 81.1925 109.042 80.8165 109.042C80.4454 109.042 80.1183 109.12 79.8351 109.276C79.5567 109.433 79.3224 109.647 79.1319 109.921C78.9464 110.189 78.8072 110.5 78.7145 110.851C78.6217 111.198 78.5753 111.566 78.5753 111.957ZM87.5061 104.75V116H86.1437V104.75H87.5061ZM89.574 104.75H90.9363V114.462L90.8191 116H89.574V104.75ZM96.2903 111.972V112.125C96.2903 112.702 96.222 113.236 96.0853 113.729C95.9485 114.218 95.7483 114.643 95.4847 115.004C95.221 115.365 94.8987 115.646 94.5179 115.846C94.137 116.046 93.7 116.146 93.2068 116.146C92.7039 116.146 92.262 116.061 91.8812 115.89C91.5052 115.714 91.1878 115.463 90.929 115.136C90.6702 114.809 90.4627 114.413 90.3064 113.949C90.1551 113.485 90.0501 112.963 89.9915 112.382V111.708C90.0501 111.122 90.1551 110.597 90.3064 110.133C90.4627 109.669 90.6702 109.274 90.929 108.947C91.1878 108.615 91.5052 108.363 91.8812 108.192C92.2571 108.017 92.6941 107.929 93.1922 107.929C93.6902 107.929 94.1321 108.026 94.5179 108.222C94.9036 108.412 95.2259 108.686 95.4847 109.042C95.7483 109.398 95.9485 109.826 96.0853 110.324C96.222 110.817 96.2903 111.366 96.2903 111.972ZM94.928 112.125V111.972C94.928 111.576 94.8914 111.205 94.8182 110.858C94.7449 110.507 94.6277 110.199 94.4666 109.936C94.3055 109.667 94.0931 109.457 93.8294 109.306C93.5657 109.149 93.241 109.071 92.8553 109.071C92.5135 109.071 92.2156 109.13 91.9617 109.247C91.7127 109.364 91.5003 109.523 91.3245 109.723C91.1487 109.918 91.0047 110.143 90.8924 110.397C90.785 110.646 90.7044 110.905 90.6507 111.173V112.938C90.7288 113.28 90.8558 113.61 91.0315 113.927C91.2122 114.24 91.4515 114.496 91.7493 114.696C92.0521 114.896 92.4256 114.997 92.8699 114.997C93.2361 114.997 93.5486 114.923 93.8074 114.777C94.0711 114.625 94.2835 114.418 94.4446 114.154C94.6106 113.891 94.7327 113.585 94.8108 113.239C94.889 112.892 94.928 112.521 94.928 112.125ZM100.043 115.18L102.247 108.075H103.698L100.519 117.223C100.446 117.418 100.348 117.628 100.226 117.853C100.109 118.083 99.9574 118.3 99.7719 118.505C99.5863 118.71 99.3617 118.876 99.098 119.003C98.8393 119.135 98.5292 119.201 98.1679 119.201C98.0604 119.201 97.9237 119.186 97.7577 119.157C97.5917 119.127 97.4745 119.103 97.4062 119.083L97.3988 117.985C97.4379 117.99 97.4989 117.995 97.5819 118C97.6698 118.009 97.7309 118.014 97.765 118.014C98.0727 118.014 98.3339 117.973 98.5487 117.89C98.7636 117.812 98.9442 117.677 99.0907 117.487C99.2421 117.301 99.3715 117.045 99.4789 116.718L100.043 115.18ZM98.4242 108.075L100.482 114.228L100.834 115.656L99.8598 116.154L96.9447 108.075H98.4242ZM105.26 114.389V115.48C105.26 115.924 105.148 116.393 104.923 116.886C104.699 117.384 104.384 117.799 103.979 118.131L103.209 117.597C103.366 117.382 103.498 117.162 103.605 116.938C103.712 116.718 103.793 116.488 103.847 116.249C103.905 116.015 103.935 115.766 103.935 115.502V114.389H105.26ZM116.816 105.336H118.222V112.55C118.222 113.351 118.044 114.018 117.687 114.55C117.331 115.082 116.857 115.482 116.266 115.751C115.68 116.015 115.043 116.146 114.355 116.146C113.632 116.146 112.978 116.015 112.392 115.751C111.811 115.482 111.349 115.082 111.008 114.55C110.671 114.018 110.502 113.351 110.502 112.55V105.336H111.901V112.55C111.901 113.107 112.004 113.566 112.209 113.927C112.414 114.289 112.699 114.557 113.066 114.733C113.437 114.909 113.866 114.997 114.355 114.997C114.848 114.997 115.278 114.909 115.644 114.733C116.015 114.557 116.303 114.289 116.508 113.927C116.713 113.566 116.816 113.107 116.816 112.55V105.336ZM121.755 105.336V116H120.341V105.336H121.755ZM128.193 105.336L123.762 110.309L121.271 112.895L121.037 111.386L122.912 109.32L126.493 105.336H128.193ZM126.83 116L122.883 110.8L123.725 109.679L128.515 116H126.83Z" fill="#161C2D"/>
<path d="M34.8252 31.7578H38.272C38.9787 31.7578 39.5859 31.8636 40.0938 32.0752C40.6058 32.2868 40.9993 32.5999 41.2744 33.0146C41.5495 33.4294 41.687 33.9393 41.687 34.5444C41.687 35.0396 41.6024 35.4648 41.4331 35.8203C41.2681 36.1715 41.0332 36.4657 40.7285 36.7026C40.4281 36.9354 40.0747 37.1216 39.6685 37.2612L39.0654 37.5786H36.0693L36.0566 36.0933H38.2847C38.619 36.0933 38.8962 36.034 39.1162 35.9155C39.3363 35.797 39.5013 35.632 39.6113 35.4204C39.7256 35.2088 39.7827 34.9634 39.7827 34.6841C39.7827 34.3879 39.7277 34.1318 39.6177 33.916C39.5076 33.7002 39.3405 33.5352 39.1162 33.4209C38.8919 33.3066 38.6105 33.2495 38.272 33.2495H36.7295V41H34.8252V31.7578ZM39.9922 41L37.8848 36.8804L39.897 36.8677L42.0298 40.9111V41H39.9922ZM50.98 39.5146V41H46.0605V39.5146H50.98ZM46.6826 31.7578V41H44.7783V31.7578H46.6826ZM50.3389 35.522V36.9692H46.0605V35.522H50.3389ZM50.9736 31.7578V33.2495H46.0605V31.7578H50.9736ZM54.5854 31.7578H56.1978L58.5718 38.5435L60.9458 31.7578H62.5581L59.2192 41H57.9243L54.5854 31.7578ZM53.7158 31.7578H55.3218L55.6138 38.3721V41H53.7158V31.7578ZM61.8218 31.7578H63.4341V41H61.5298V38.3721L61.8218 31.7578ZM74.3203 36.1631V36.6011C74.3203 37.3035 74.2251 37.9341 74.0347 38.4927C73.8442 39.0513 73.5755 39.5273 73.2285 39.9209C72.8815 40.3102 72.4668 40.6086 71.9844 40.8159C71.5062 41.0233 70.9751 41.127 70.3911 41.127C69.8114 41.127 69.2803 41.0233 68.7979 40.8159C68.3197 40.6086 67.9049 40.3102 67.5537 39.9209C67.2025 39.5273 66.9295 39.0513 66.7349 38.4927C66.5444 37.9341 66.4492 37.3035 66.4492 36.6011V36.1631C66.4492 35.4564 66.5444 34.8258 66.7349 34.2715C66.9253 33.7129 67.194 33.2368 67.541 32.8433C67.8923 32.4497 68.307 32.1493 68.7852 31.9419C69.2676 31.7345 69.7987 31.6309 70.3784 31.6309C70.9624 31.6309 71.4935 31.7345 71.9717 31.9419C72.4541 32.1493 72.8688 32.4497 73.2158 32.8433C73.5671 33.2368 73.8379 33.7129 74.0283 34.2715C74.223 34.8258 74.3203 35.4564 74.3203 36.1631ZM72.397 36.6011V36.1504C72.397 35.6595 72.3525 35.2279 72.2637 34.8555C72.1748 34.4831 72.0436 34.1699 71.8701 33.916C71.6966 33.6621 71.485 33.4717 71.2354 33.3447C70.9857 33.2135 70.7 33.1479 70.3784 33.1479C70.0568 33.1479 69.7712 33.2135 69.5215 33.3447C69.276 33.4717 69.0666 33.6621 68.8931 33.916C68.7238 34.1699 68.5947 34.4831 68.5059 34.8555C68.417 35.2279 68.3726 35.6595 68.3726 36.1504V36.6011C68.3726 37.0877 68.417 37.5194 68.5059 37.896C68.5947 38.2684 68.7259 38.5837 68.8994 38.8418C69.0729 39.0957 69.2845 39.2882 69.5342 39.4194C69.7839 39.5506 70.0695 39.6162 70.3911 39.6162C70.7127 39.6162 70.9984 39.5506 71.248 39.4194C71.4977 39.2882 71.7072 39.0957 71.8765 38.8418C72.0457 38.5837 72.1748 38.2684 72.2637 37.896C72.3525 37.5194 72.397 37.0877 72.397 36.6011ZM81.0171 31.7578V41H79.1191V31.7578H81.0171ZM83.8608 31.7578V33.2495H76.3198V31.7578H83.8608ZM92.7729 39.5146V41H87.8535V39.5146H92.7729ZM88.4756 31.7578V41H86.5713V31.7578H88.4756ZM92.1318 35.522V36.9692H87.8535V35.522H92.1318ZM92.7666 31.7578V33.2495H87.8535V31.7578H92.7666Z" fill="#473BF0"/>
</g>
<defs>
<clipPath id="clip0_1_126">
<rect width="255" height="279" fill="white"/>
</clipPath>
</defs>
</svg>
