<svg width="255" height="279" viewBox="0 0 255 279" fill="none" xmlns="http://www.w3.org/2000/svg">
<g clip-path="url(#clip0_1_140)">
<rect width="255" height="279" rx="10" fill="white" stroke="#E7E9ED"/>
<g clip-path="url(#clip1_1_140)">
<circle cx="48" cy="229" r="16" fill="#473BF0"/>
<path d="M50.375 231.344C50.3333 231.438 50.2969 231.536 50.2656 231.641C50.2344 231.745 50.2188 231.833 50.2188 231.906C50.2188 232.031 50.2448 232.115 50.2969 232.156C50.3594 232.198 50.4375 232.219 50.5312 232.219C50.6771 232.219 50.8542 232.146 51.0625 232C51.2708 231.854 51.4896 231.641 51.7188 231.359L54.5781 227.828L54.9688 228.141L51.5156 232.406C51.2656 232.719 51.0312 232.979 50.8125 233.188C50.5938 233.396 50.3854 233.562 50.1875 233.688C50 233.802 49.8073 233.885 49.6094 233.938C49.4219 233.99 49.2292 234.016 49.0312 234.016C48.7188 234.016 48.4583 233.927 48.25 233.75C48.0417 233.562 47.9375 233.328 47.9375 233.047C47.9375 232.734 47.9948 232.411 48.1094 232.078C48.2344 231.745 48.4115 231.328 48.6406 230.828C48.724 230.651 48.8229 230.422 48.9375 230.141C49.0625 229.849 49.1927 229.547 49.3281 229.234C49.4635 228.911 49.599 228.589 49.7344 228.266C49.8698 227.943 49.9896 227.651 50.0938 227.391C50.1979 227.12 50.2812 226.896 50.3438 226.719C50.4167 226.542 50.4531 226.438 50.4531 226.406C50.4531 226.302 50.4167 226.25 50.3438 226.25C50.25 226.25 50.151 226.328 50.0469 226.484C49.9844 226.568 49.8594 226.745 49.6719 227.016C49.4844 227.286 49.2552 227.609 48.9844 227.984C48.7135 228.359 48.4219 228.766 48.1094 229.203C47.7969 229.641 47.4844 230.068 47.1719 230.484C46.8594 230.901 46.5625 231.281 46.2812 231.625C46 231.969 45.7604 232.24 45.5625 232.438C45.0625 232.938 44.6198 233.333 44.2344 233.625C43.849 233.906 43.4688 234.047 43.0938 234.047C42.9688 234.047 42.8333 234.021 42.6875 233.969C42.5312 233.917 42.3906 233.828 42.2656 233.703C42.1302 233.568 42.0208 233.385 41.9375 233.156C41.8542 232.917 41.8125 232.615 41.8125 232.25C41.8125 231.708 41.9375 231.109 42.1875 230.453C42.4271 229.797 42.7604 229.13 43.1875 228.453C43.6146 227.766 44.1198 227.094 44.7031 226.438C45.2865 225.781 45.9167 225.193 46.5938 224.672C47.2812 224.141 48 223.698 48.75 223.344C49.5 222.99 50.2604 222.776 51.0312 222.703V222.984C50.3958 223.172 49.7865 223.464 49.2031 223.859C48.6198 224.245 48.0729 224.693 47.5625 225.203C47.0521 225.714 46.5885 226.26 46.1719 226.844C45.7552 227.417 45.3958 227.984 45.0938 228.547C44.7917 229.109 44.5625 229.646 44.4062 230.156C44.2396 230.656 44.1562 231.078 44.1562 231.422C44.1562 231.609 44.1875 231.766 44.25 231.891C44.3021 232.016 44.3802 232.078 44.4844 232.078C44.599 232.078 44.7708 231.984 45 231.797C45.2188 231.609 45.474 231.359 45.7656 231.047C46.0573 230.724 46.375 230.359 46.7188 229.953C47.0625 229.536 47.4115 229.104 47.7656 228.656C48.1198 228.208 48.4688 227.755 48.8125 227.297C49.1667 226.839 49.4948 226.406 49.7969 226C50.2552 225.375 50.6354 224.859 50.9375 224.453C51.2396 224.047 51.5 223.724 51.7188 223.484C51.9375 223.234 52.1354 223.062 52.3125 222.969C52.4896 222.875 52.6823 222.828 52.8906 222.828C53.1094 222.828 53.2604 222.885 53.3438 223C53.4271 223.115 53.4688 223.255 53.4688 223.422C53.4688 223.557 53.4479 223.698 53.4062 223.844C53.375 223.99 53.3333 224.12 53.2812 224.234C53.2396 224.328 53.1458 224.552 53 224.906C52.8646 225.25 52.6979 225.667 52.5 226.156C52.3021 226.635 52.0885 227.151 51.8594 227.703C51.6406 228.255 51.4271 228.781 51.2188 229.281C51.0208 229.771 50.8438 230.208 50.6875 230.594C50.5312 230.969 50.4271 231.219 50.375 231.344Z" fill="white"/>
</g>
<path d="M80.6982 223.802L77.0244 235H74.0649L79.084 221.492H80.9673L80.6982 223.802ZM83.7505 235L80.0674 223.802L79.7705 221.492H81.6724L86.7192 235H83.7505ZM83.5835 229.972V232.152H76.4492V229.972H83.5835ZM93.0319 232.226C93.0319 232.034 92.9763 231.861 92.8649 231.707C92.7536 231.552 92.5464 231.41 92.2434 231.28C91.9465 231.144 91.5166 231.02 90.9538 230.909C90.4466 230.797 89.9735 230.658 89.5344 230.491C89.1014 230.318 88.7242 230.111 88.4025 229.87C88.0871 229.628 87.8397 229.344 87.6604 229.016C87.481 228.682 87.3913 228.302 87.3913 227.875C87.3913 227.454 87.481 227.059 87.6604 226.688C87.8459 226.316 88.1088 225.989 88.4489 225.704C88.7953 225.413 89.2159 225.188 89.7106 225.027C90.2116 224.86 90.7744 224.776 91.3991 224.776C92.2712 224.776 93.0196 224.916 93.6442 225.194C94.2751 225.472 94.7575 225.856 95.0915 226.344C95.4317 226.827 95.6018 227.377 95.6018 227.996H92.9299C92.9299 227.736 92.8742 227.504 92.7629 227.3C92.6577 227.09 92.4908 226.926 92.2619 226.808C92.0393 226.684 91.7486 226.623 91.3898 226.623C91.093 226.623 90.8363 226.675 90.6198 226.78C90.4034 226.879 90.2364 227.015 90.1188 227.188C90.0075 227.355 89.9519 227.541 89.9519 227.745C89.9519 227.9 89.9828 228.039 90.0446 228.163C90.1127 228.28 90.2209 228.388 90.3693 228.487C90.5178 228.586 90.7095 228.679 90.9445 228.766C91.1857 228.846 91.4826 228.92 91.8352 228.988C92.5588 229.137 93.2051 229.332 93.7741 229.573C94.3431 229.808 94.7946 230.129 95.1286 230.538C95.4626 230.94 95.6296 231.468 95.6296 232.124C95.6296 232.569 95.5306 232.978 95.3327 233.349C95.1348 233.72 94.8503 234.044 94.4792 234.323C94.1081 234.595 93.6628 234.808 93.1433 234.963C92.6299 235.111 92.0516 235.186 91.4084 235.186C90.4745 235.186 89.6828 235.019 89.0334 234.685C88.3902 234.351 87.9016 233.927 87.5676 233.414C87.2398 232.894 87.0759 232.362 87.0759 231.818H89.6086C89.621 232.183 89.7137 232.477 89.8869 232.699C90.0663 232.922 90.292 233.083 90.5642 233.182C90.8425 233.281 91.1424 233.33 91.4641 233.33C91.8104 233.33 92.098 233.284 92.3269 233.191C92.5557 233.092 92.7289 232.962 92.8464 232.801C92.9701 232.634 93.0319 232.443 93.0319 232.226ZM99.8363 220.741V235H97.1645V220.741H99.8363ZM106.163 224.962L101.803 229.935L99.4652 232.3L98.4911 230.371L100.347 228.014L102.954 224.962H106.163ZM103.39 235L100.421 230.361L102.267 228.747L106.47 235H103.39ZM109.934 224.962V235H107.253V224.962H109.934ZM107.086 222.346C107.086 221.956 107.222 221.634 107.494 221.381C107.766 221.127 108.131 221 108.589 221C109.04 221 109.402 221.127 109.674 221.381C109.953 221.634 110.092 221.956 110.092 222.346C110.092 222.735 109.953 223.057 109.674 223.311C109.402 223.564 109.04 223.691 108.589 223.691C108.131 223.691 107.766 223.564 107.494 223.311C107.222 223.057 107.086 222.735 107.086 222.346ZM114.614 227.04V235H111.933V224.962H114.447L114.614 227.04ZM114.243 229.628H113.501C113.501 228.93 113.584 228.286 113.751 227.699C113.924 227.105 114.175 226.592 114.503 226.159C114.837 225.72 115.248 225.379 115.737 225.138C116.225 224.897 116.791 224.776 117.434 224.776C117.88 224.776 118.288 224.844 118.659 224.98C119.03 225.11 119.349 225.318 119.615 225.602C119.887 225.88 120.097 226.245 120.245 226.697C120.394 227.142 120.468 227.677 120.468 228.302V235H117.796V228.599C117.796 228.141 117.734 227.788 117.611 227.541C117.487 227.294 117.311 227.12 117.082 227.021C116.859 226.923 116.59 226.873 116.275 226.873C115.928 226.873 115.625 226.944 115.366 227.086C115.112 227.229 114.902 227.427 114.735 227.68C114.568 227.928 114.444 228.218 114.364 228.552C114.283 228.886 114.243 229.245 114.243 229.628ZM120.218 229.322L119.262 229.443C119.262 228.787 119.342 228.178 119.503 227.615C119.67 227.052 119.915 226.558 120.236 226.131C120.564 225.704 120.969 225.373 121.451 225.138C121.934 224.897 122.491 224.776 123.121 224.776C123.604 224.776 124.043 224.847 124.439 224.99C124.835 225.126 125.172 225.345 125.45 225.648C125.735 225.945 125.951 226.335 126.099 226.817C126.254 227.3 126.331 227.89 126.331 228.589V235H123.65V228.589C123.65 228.125 123.588 227.773 123.465 227.532C123.347 227.284 123.174 227.114 122.945 227.021C122.722 226.923 122.457 226.873 122.147 226.873C121.826 226.873 121.544 226.938 121.303 227.068C121.062 227.192 120.861 227.365 120.7 227.587C120.539 227.81 120.419 228.07 120.338 228.367C120.258 228.657 120.218 228.976 120.218 229.322ZM133.618 232.736V228.265C133.618 227.943 133.566 227.668 133.46 227.439C133.355 227.204 133.191 227.021 132.969 226.892C132.752 226.762 132.471 226.697 132.125 226.697C131.828 226.697 131.571 226.749 131.354 226.854C131.138 226.953 130.971 227.099 130.854 227.291C130.736 227.476 130.677 227.696 130.677 227.949H128.005C128.005 227.522 128.104 227.117 128.302 226.734C128.5 226.35 128.788 226.013 129.165 225.723C129.542 225.426 129.991 225.194 130.51 225.027C131.036 224.86 131.624 224.776 132.273 224.776C133.052 224.776 133.745 224.906 134.351 225.166C134.957 225.426 135.433 225.815 135.78 226.335C136.132 226.854 136.309 227.504 136.309 228.283V232.579C136.309 233.129 136.343 233.581 136.411 233.933C136.479 234.279 136.578 234.583 136.708 234.842V235H134.008C133.878 234.728 133.779 234.388 133.711 233.979C133.649 233.565 133.618 233.151 133.618 232.736ZM133.971 228.886L133.989 230.398H132.496C132.143 230.398 131.837 230.439 131.577 230.519C131.317 230.599 131.104 230.714 130.937 230.862C130.77 231.005 130.646 231.172 130.566 231.363C130.492 231.555 130.455 231.765 130.455 231.994C130.455 232.223 130.507 232.43 130.612 232.616C130.717 232.795 130.869 232.937 131.067 233.042C131.265 233.141 131.497 233.191 131.763 233.191C132.165 233.191 132.514 233.111 132.811 232.95C133.108 232.789 133.337 232.591 133.498 232.356C133.665 232.121 133.751 231.898 133.757 231.688L134.462 232.82C134.363 233.073 134.227 233.336 134.054 233.608C133.887 233.881 133.674 234.137 133.414 234.378C133.154 234.613 132.842 234.808 132.477 234.963C132.112 235.111 131.679 235.186 131.178 235.186C130.541 235.186 129.963 235.059 129.443 234.805C128.93 234.545 128.522 234.19 128.219 233.738C127.922 233.281 127.773 232.761 127.773 232.18C127.773 231.654 127.872 231.187 128.07 230.779C128.268 230.371 128.559 230.027 128.942 229.749C129.332 229.465 129.818 229.251 130.399 229.109C130.98 228.96 131.654 228.886 132.421 228.886H133.971ZM143.085 224.962V226.854H137.24V224.962H143.085ZM138.688 222.485H141.36V231.976C141.36 232.266 141.397 232.489 141.471 232.644C141.551 232.798 141.669 232.906 141.823 232.968C141.978 233.024 142.173 233.052 142.408 233.052C142.575 233.052 142.723 233.046 142.853 233.033C142.989 233.015 143.104 232.996 143.196 232.978L143.206 234.944C142.977 235.019 142.73 235.077 142.464 235.121C142.198 235.164 141.904 235.186 141.582 235.186C140.995 235.186 140.481 235.09 140.042 234.898C139.609 234.7 139.275 234.385 139.04 233.952C138.805 233.519 138.688 232.95 138.688 232.245V222.485Z" fill="#161C2D"/>
<path d="M41.5771 69.0703H44.6431V78.9346C44.6431 80.083 44.397 81.0503 43.9048 81.8364C43.4194 82.6226 42.7461 83.2139 41.8848 83.6104C41.0303 84.0068 40.0459 84.2051 38.9316 84.2051C37.8174 84.2051 36.8262 84.0068 35.958 83.6104C35.0967 83.2139 34.4199 82.6226 33.9277 81.8364C33.4424 81.0503 33.1997 80.083 33.1997 78.9346V69.0703H36.2759V78.9346C36.2759 79.6045 36.3818 80.1514 36.5938 80.5752C36.8057 80.999 37.1099 81.3101 37.5063 81.5083C37.9097 81.7065 38.3848 81.8057 38.9316 81.8057C39.4922 81.8057 39.9673 81.7065 40.3569 81.5083C40.7534 81.3101 41.0542 80.999 41.2593 80.5752C41.4712 80.1514 41.5771 79.6045 41.5771 78.9346V69.0703ZM49.2085 69.0703L52.0181 74.2793L54.8276 69.0703H58.3447L54.0073 76.4736L58.4575 84H54.9097L52.0181 78.6885L49.1265 84H45.5581L50.0186 76.4736L45.6709 69.0703H49.2085ZM68.8188 84H65.5684L65.5889 81.6006H68.8188C69.6255 81.6006 70.3057 81.4194 70.8594 81.0571C71.4131 80.688 71.8301 80.1514 72.1104 79.4473C72.3975 78.7432 72.541 77.8921 72.541 76.894V76.166C72.541 75.4004 72.459 74.7271 72.2949 74.146C72.1377 73.5649 71.9019 73.0762 71.5874 72.6797C71.2729 72.2832 70.8867 71.9858 70.4287 71.7876C69.9707 71.5825 69.4443 71.48 68.8496 71.48H65.5068V69.0703H68.8496C69.8477 69.0703 70.7603 69.2412 71.5874 69.583C72.4214 69.918 73.1426 70.3999 73.751 71.0288C74.3594 71.6577 74.8276 72.4097 75.1558 73.2847C75.4907 74.1528 75.6582 75.1201 75.6582 76.1865V76.894C75.6582 77.9536 75.4907 78.9209 75.1558 79.7959C74.8276 80.6709 74.3594 81.4229 73.751 82.0518C73.1494 82.6738 72.4282 83.1558 71.5874 83.4976C70.7534 83.8325 69.8306 84 68.8188 84ZM67.3115 69.0703V84H64.2354V69.0703H67.3115ZM82.3154 84.2051C81.4541 84.2051 80.6816 84.0684 79.998 83.7949C79.3145 83.5146 78.7334 83.1284 78.2549 82.6362C77.7832 82.144 77.4209 81.5732 77.168 80.9238C76.915 80.2676 76.7886 79.5703 76.7886 78.832V78.4219C76.7886 77.5811 76.9082 76.812 77.1475 76.1147C77.3867 75.4175 77.7285 74.8125 78.1729 74.2998C78.624 73.7871 79.1709 73.394 79.8135 73.1206C80.4561 72.8403 81.1807 72.7002 81.9873 72.7002C82.7734 72.7002 83.4707 72.8301 84.0791 73.0898C84.6875 73.3496 85.1968 73.7188 85.6069 74.1973C86.0239 74.6758 86.3384 75.25 86.5503 75.9199C86.7622 76.583 86.8682 77.3213 86.8682 78.1348V79.3652H78.0498V77.3965H83.9663V77.1709C83.9663 76.7607 83.8911 76.395 83.7407 76.0737C83.5972 75.7456 83.3784 75.4858 83.0845 75.2944C82.7905 75.103 82.4146 75.0073 81.9565 75.0073C81.5669 75.0073 81.2319 75.0928 80.9517 75.2637C80.6714 75.4346 80.4424 75.6738 80.2646 75.9814C80.0938 76.2891 79.9639 76.6514 79.875 77.0684C79.793 77.4785 79.752 77.9297 79.752 78.4219V78.832C79.752 79.2764 79.8135 79.6865 79.9365 80.0625C80.0664 80.4385 80.2476 80.7632 80.48 81.0366C80.7192 81.3101 81.0063 81.522 81.3413 81.6724C81.6831 81.8228 82.0693 81.8979 82.5 81.8979C83.0332 81.8979 83.5288 81.7954 83.9868 81.5903C84.4517 81.3784 84.8516 81.0605 85.1865 80.6367L86.6221 82.1953C86.3896 82.5303 86.0718 82.8516 85.6685 83.1592C85.272 83.4668 84.7935 83.7197 84.2329 83.918C83.6724 84.1094 83.0332 84.2051 82.3154 84.2051ZM94.0483 80.9341C94.0483 80.7222 93.9868 80.5308 93.8638 80.3599C93.7407 80.189 93.5117 80.0317 93.1768 79.8882C92.8486 79.7378 92.3735 79.6011 91.7515 79.478C91.1909 79.355 90.668 79.2012 90.1826 79.0166C89.7041 78.8252 89.2871 78.5962 88.9316 78.3296C88.583 78.063 88.3096 77.7485 88.1113 77.3862C87.9131 77.0171 87.814 76.5967 87.814 76.125C87.814 75.6602 87.9131 75.2227 88.1113 74.8125C88.3164 74.4023 88.6069 74.04 88.9829 73.7256C89.3657 73.4043 89.8306 73.1548 90.3774 72.9771C90.9312 72.7925 91.5532 72.7002 92.2437 72.7002C93.2075 72.7002 94.0347 72.854 94.7251 73.1616C95.4224 73.4692 95.9556 73.8931 96.3247 74.4331C96.7007 74.9663 96.8887 75.5747 96.8887 76.2583H93.9355C93.9355 75.9712 93.874 75.7148 93.751 75.4893C93.6348 75.2568 93.4502 75.0757 93.1973 74.9458C92.9512 74.8091 92.6299 74.7407 92.2334 74.7407C91.9053 74.7407 91.6216 74.7988 91.3823 74.915C91.1431 75.0244 90.9585 75.1748 90.8286 75.3662C90.7056 75.5508 90.644 75.7559 90.644 75.9814C90.644 76.1523 90.6782 76.3062 90.7466 76.4429C90.8218 76.5728 90.9414 76.6924 91.1055 76.8018C91.2695 76.9111 91.4814 77.0137 91.7412 77.1094C92.0078 77.1982 92.3359 77.2803 92.7256 77.3555C93.5254 77.5195 94.2397 77.7349 94.8687 78.0015C95.4976 78.2612 95.9966 78.6167 96.3657 79.0679C96.7349 79.5122 96.9194 80.0967 96.9194 80.8213C96.9194 81.3135 96.8101 81.7646 96.5913 82.1748C96.3726 82.585 96.0581 82.9438 95.6479 83.2515C95.2378 83.5522 94.7456 83.7881 94.1714 83.959C93.604 84.123 92.9648 84.2051 92.2539 84.2051C91.2217 84.2051 90.3467 84.0205 89.6289 83.6514C88.918 83.2822 88.3779 82.814 88.0088 82.2466C87.6465 81.6724 87.4653 81.0845 87.4653 80.4829H90.2646C90.2783 80.8862 90.3809 81.2109 90.5723 81.457C90.7705 81.7031 91.02 81.8809 91.3208 81.9902C91.6284 82.0996 91.96 82.1543 92.3154 82.1543C92.6982 82.1543 93.0161 82.103 93.269 82.0005C93.522 81.8911 93.7134 81.7476 93.8433 81.5698C93.98 81.3853 94.0483 81.1733 94.0483 80.9341ZM101.454 72.9053V84H98.4907V72.9053H101.454ZM98.3062 70.0137C98.3062 69.583 98.4565 69.2275 98.7573 68.9473C99.0581 68.667 99.4614 68.5269 99.9673 68.5269C100.466 68.5269 100.866 68.667 101.167 68.9473C101.475 69.2275 101.628 69.583 101.628 70.0137C101.628 70.4443 101.475 70.7998 101.167 71.0801C100.866 71.3604 100.466 71.5005 99.9673 71.5005C99.4614 71.5005 99.0581 71.3604 98.7573 71.0801C98.4565 70.7998 98.3062 70.4443 98.3062 70.0137ZM110.418 72.9053H113.095V83.6309C113.095 84.6426 112.869 85.5005 112.418 86.2046C111.974 86.9155 111.352 87.4521 110.552 87.8145C109.752 88.1836 108.822 88.3682 107.763 88.3682C107.298 88.3682 106.806 88.3066 106.286 88.1836C105.773 88.0605 105.281 87.8691 104.81 87.6094C104.345 87.3496 103.955 87.0215 103.641 86.625L104.943 84.8818C105.285 85.2783 105.681 85.5859 106.132 85.8047C106.583 86.0303 107.083 86.1431 107.629 86.1431C108.163 86.1431 108.614 86.0439 108.983 85.8457C109.352 85.6543 109.636 85.3706 109.834 84.9946C110.032 84.6255 110.131 84.1777 110.131 83.6514V75.4688L110.418 72.9053ZM102.954 78.5859V78.3706C102.954 77.5229 103.056 76.7539 103.261 76.0635C103.473 75.3662 103.771 74.7681 104.153 74.269C104.543 73.77 105.015 73.3838 105.568 73.1104C106.122 72.8369 106.748 72.7002 107.445 72.7002C108.183 72.7002 108.802 72.8369 109.301 73.1104C109.8 73.3838 110.21 73.7734 110.531 74.2793C110.853 74.7783 111.102 75.3696 111.28 76.0532C111.464 76.73 111.608 77.4717 111.71 78.2783V78.75C111.608 79.5225 111.454 80.2402 111.249 80.9033C111.044 81.5664 110.774 82.1475 110.439 82.6465C110.104 83.1387 109.687 83.5215 109.188 83.7949C108.696 84.0684 108.108 84.2051 107.424 84.2051C106.741 84.2051 106.122 84.0649 105.568 83.7847C105.021 83.5044 104.553 83.1113 104.164 82.6055C103.774 82.0996 103.473 81.5049 103.261 80.8213C103.056 80.1377 102.954 79.3926 102.954 78.5859ZM105.907 78.3706V78.5859C105.907 79.0439 105.951 79.4712 106.04 79.8677C106.129 80.2642 106.266 80.6162 106.45 80.9238C106.642 81.2246 106.877 81.4604 107.158 81.6313C107.445 81.7954 107.783 81.8774 108.173 81.8774C108.713 81.8774 109.154 81.7646 109.496 81.5391C109.837 81.3066 110.094 80.9888 110.265 80.5854C110.436 80.1821 110.535 79.7173 110.562 79.1909V77.8477C110.548 77.417 110.49 77.0308 110.388 76.689C110.285 76.3403 110.142 76.043 109.957 75.7969C109.772 75.5508 109.533 75.3594 109.239 75.2227C108.945 75.0859 108.597 75.0176 108.193 75.0176C107.804 75.0176 107.465 75.1064 107.178 75.2842C106.898 75.4551 106.662 75.6909 106.471 75.9917C106.286 76.2925 106.146 76.6479 106.05 77.0581C105.955 77.4614 105.907 77.8989 105.907 78.3706ZM117.783 75.2739V84H114.83V72.9053H117.599L117.783 75.2739ZM117.353 78.063H116.553C116.553 77.2427 116.659 76.5044 116.871 75.8481C117.083 75.1851 117.38 74.6211 117.763 74.1562C118.146 73.6846 118.6 73.3257 119.126 73.0796C119.66 72.8267 120.254 72.7002 120.911 72.7002C121.43 72.7002 121.905 72.7754 122.336 72.9258C122.767 73.0762 123.136 73.3154 123.443 73.6436C123.758 73.9717 123.997 74.4058 124.161 74.9458C124.332 75.4858 124.417 76.1455 124.417 76.9248V84H121.444V76.9146C121.444 76.4224 121.375 76.0396 121.239 75.7661C121.102 75.4927 120.9 75.3013 120.634 75.1919C120.374 75.0757 120.053 75.0176 119.67 75.0176C119.273 75.0176 118.928 75.0962 118.634 75.2534C118.347 75.4106 118.108 75.6294 117.917 75.9097C117.732 76.1831 117.592 76.5044 117.496 76.8735C117.4 77.2427 117.353 77.6392 117.353 78.063ZM131.27 84.2051C130.408 84.2051 129.636 84.0684 128.952 83.7949C128.269 83.5146 127.688 83.1284 127.209 82.6362C126.737 82.144 126.375 81.5732 126.122 80.9238C125.869 80.2676 125.743 79.5703 125.743 78.832V78.4219C125.743 77.5811 125.862 76.812 126.102 76.1147C126.341 75.4175 126.683 74.8125 127.127 74.2998C127.578 73.7871 128.125 73.394 128.768 73.1206C129.41 72.8403 130.135 72.7002 130.941 72.7002C131.728 72.7002 132.425 72.8301 133.033 73.0898C133.642 73.3496 134.151 73.7188 134.561 74.1973C134.978 74.6758 135.292 75.25 135.504 75.9199C135.716 76.583 135.822 77.3213 135.822 78.1348V79.3652H127.004V77.3965H132.92V77.1709C132.92 76.7607 132.845 76.395 132.695 76.0737C132.551 75.7456 132.333 75.4858 132.039 75.2944C131.745 75.103 131.369 75.0073 130.911 75.0073C130.521 75.0073 130.186 75.0928 129.906 75.2637C129.625 75.4346 129.396 75.6738 129.219 75.9814C129.048 76.2891 128.918 76.6514 128.829 77.0684C128.747 77.4785 128.706 77.9297 128.706 78.4219V78.832C128.706 79.2764 128.768 79.6865 128.891 80.0625C129.021 80.4385 129.202 80.7632 129.434 81.0366C129.673 81.3101 129.96 81.522 130.295 81.6724C130.637 81.8228 131.023 81.8979 131.454 81.8979C131.987 81.8979 132.483 81.7954 132.941 81.5903C133.406 81.3784 133.806 81.0605 134.141 80.6367L135.576 82.1953C135.344 82.5303 135.026 82.8516 134.623 83.1592C134.226 83.4668 133.748 83.7197 133.187 83.918C132.626 84.1094 131.987 84.2051 131.27 84.2051ZM139.957 75.3252V84H137.004V72.9053H139.783L139.957 75.3252ZM143.3 72.8335L143.249 75.5713C143.105 75.5508 142.931 75.5337 142.726 75.52C142.527 75.4995 142.346 75.4893 142.182 75.4893C141.765 75.4893 141.403 75.5439 141.095 75.6533C140.794 75.7559 140.542 75.9097 140.336 76.1147C140.138 76.3198 139.988 76.5693 139.885 76.8633C139.79 77.1572 139.735 77.4922 139.721 77.8682L139.126 77.6836C139.126 76.9658 139.198 76.3062 139.342 75.7046C139.485 75.0962 139.694 74.5664 139.967 74.1152C140.248 73.6641 140.589 73.3154 140.993 73.0693C141.396 72.8232 141.857 72.7002 142.377 72.7002C142.541 72.7002 142.708 72.7139 142.879 72.7412C143.05 72.7617 143.19 72.7925 143.3 72.8335Z" fill="#161C2D"/>
<path opacity="0.7" d="M39.6758 112.609H41.082C41.0088 113.283 40.8159 113.886 40.5034 114.418C40.1909 114.95 39.749 115.373 39.1777 115.685C38.6064 115.993 37.8936 116.146 37.0391 116.146C36.4141 116.146 35.8452 116.029 35.3325 115.795C34.8247 115.561 34.3877 115.229 34.0215 114.799C33.6553 114.364 33.3721 113.844 33.1719 113.239C32.9766 112.628 32.8789 111.95 32.8789 111.203V110.141C32.8789 109.394 32.9766 108.717 33.1719 108.112C33.3721 107.501 33.6577 106.979 34.0288 106.544C34.4048 106.11 34.8564 105.775 35.3838 105.541C35.9111 105.307 36.5044 105.189 37.1636 105.189C37.9692 105.189 38.6504 105.341 39.207 105.644C39.7637 105.946 40.1958 106.366 40.5034 106.903C40.8159 107.436 41.0088 108.053 41.082 108.756H39.6758C39.6074 108.258 39.4805 107.831 39.2949 107.475C39.1094 107.113 38.8457 106.835 38.5039 106.64C38.1621 106.444 37.7153 106.347 37.1636 106.347C36.6899 106.347 36.2725 106.437 35.9111 106.618C35.5547 106.798 35.2544 107.055 35.0103 107.387C34.771 107.719 34.5903 108.117 34.4683 108.581C34.3462 109.044 34.2852 109.56 34.2852 110.126V111.203C34.2852 111.725 34.3389 112.216 34.4463 112.675C34.5586 113.134 34.7271 113.537 34.9517 113.883C35.1763 114.23 35.4619 114.503 35.8086 114.704C36.1553 114.899 36.5654 114.997 37.0391 114.997C37.6396 114.997 38.1182 114.901 38.4746 114.711C38.8311 114.521 39.0996 114.247 39.2803 113.891C39.4658 113.534 39.5977 113.107 39.6758 112.609ZM47.3761 114.645V110.565C47.3761 110.253 47.3126 109.982 47.1856 109.752C47.0636 109.518 46.878 109.337 46.629 109.21C46.38 109.083 46.0724 109.02 45.7062 109.02C45.3644 109.02 45.0641 109.079 44.8053 109.196C44.5514 109.313 44.3512 109.467 44.2047 109.657C44.0631 109.848 43.9923 110.053 43.9923 110.272H42.6373C42.6373 109.989 42.7105 109.708 42.857 109.43C43.0035 109.152 43.2135 108.9 43.4869 108.676C43.7652 108.446 44.0973 108.266 44.483 108.134C44.8736 107.997 45.3082 107.929 45.7867 107.929C46.3629 107.929 46.8707 108.026 47.3102 108.222C47.7545 108.417 48.1012 108.712 48.3502 109.108C48.6041 109.499 48.7311 109.989 48.7311 110.58V114.271C48.7311 114.535 48.753 114.816 48.797 115.114C48.8458 115.412 48.9166 115.668 49.0094 115.883V116H47.5958C47.5274 115.844 47.4737 115.636 47.4347 115.377C47.3956 115.114 47.3761 114.87 47.3761 114.645ZM47.6104 111.195L47.6251 112.147H46.2555C45.8697 112.147 45.5255 112.179 45.2228 112.243C44.92 112.301 44.6661 112.392 44.461 112.514C44.256 112.636 44.0997 112.79 43.9923 112.975C43.8849 113.156 43.8312 113.368 43.8312 113.612C43.8312 113.861 43.8873 114.088 43.9996 114.293C44.1119 114.499 44.2804 114.662 44.505 114.784C44.7345 114.901 45.0152 114.96 45.3473 114.96C45.7623 114.96 46.1285 114.872 46.4459 114.696C46.7633 114.521 47.0147 114.306 47.2003 114.052C47.3907 113.798 47.4933 113.551 47.5079 113.312L48.0865 113.964C48.0523 114.169 47.9596 114.396 47.8082 114.645C47.6568 114.894 47.4542 115.133 47.2003 115.363C46.9513 115.587 46.6534 115.775 46.3067 115.927C45.9649 116.073 45.5792 116.146 45.1495 116.146C44.6124 116.146 44.1412 116.042 43.7359 115.832C43.3355 115.622 43.023 115.341 42.7984 114.989C42.5787 114.633 42.4688 114.235 42.4688 113.795C42.4688 113.371 42.5519 112.997 42.7179 112.675C42.8839 112.348 43.1231 112.077 43.4356 111.862C43.7481 111.642 44.1241 111.476 44.5636 111.364C45.003 111.251 45.4937 111.195 46.0357 111.195H47.6104ZM52.2346 104.75V116H50.8723V104.75H52.2346ZM55.782 108.075V116H54.4197V108.075H55.782ZM54.3172 105.973C54.3172 105.753 54.3831 105.568 54.5149 105.417C54.6517 105.265 54.8519 105.189 55.1155 105.189C55.3743 105.189 55.5721 105.265 55.7088 105.417C55.8504 105.568 55.9212 105.753 55.9212 105.973C55.9212 106.183 55.8504 106.364 55.7088 106.515C55.5721 106.662 55.3743 106.735 55.1155 106.735C54.8519 106.735 54.6517 106.662 54.5149 106.515C54.3831 106.364 54.3172 106.183 54.3172 105.973ZM59.8788 116H58.5238V107.24C58.5238 106.669 58.6264 106.188 58.8314 105.797C59.0414 105.402 59.3417 105.104 59.7323 104.904C60.1229 104.699 60.5868 104.596 61.1239 104.596C61.2802 104.596 61.4364 104.606 61.5927 104.625C61.7538 104.645 61.9101 104.674 62.0614 104.713L61.9882 105.819C61.8856 105.795 61.7685 105.778 61.6366 105.768C61.5097 105.758 61.3827 105.753 61.2558 105.753C60.9677 105.753 60.7187 105.812 60.5087 105.929C60.3036 106.042 60.1474 106.208 60.0399 106.427C59.9325 106.647 59.8788 106.918 59.8788 107.24V116ZM61.5634 108.075V109.115H57.2714V108.075H61.5634ZM62.6133 112.125V111.957C62.6133 111.386 62.6963 110.856 62.8623 110.368C63.0283 109.875 63.2676 109.447 63.5801 109.086C63.8926 108.72 64.271 108.437 64.7153 108.236C65.1597 108.031 65.6577 107.929 66.2095 107.929C66.7661 107.929 67.2666 108.031 67.7109 108.236C68.1602 108.437 68.541 108.72 68.8535 109.086C69.1709 109.447 69.4126 109.875 69.5786 110.368C69.7446 110.856 69.8276 111.386 69.8276 111.957V112.125C69.8276 112.697 69.7446 113.227 69.5786 113.715C69.4126 114.203 69.1709 114.63 68.8535 114.997C68.541 115.358 68.1626 115.641 67.7183 115.846C67.2788 116.046 66.7808 116.146 66.2241 116.146C65.6675 116.146 65.167 116.046 64.7227 115.846C64.2783 115.641 63.8975 115.358 63.5801 114.997C63.2676 114.63 63.0283 114.203 62.8623 113.715C62.6963 113.227 62.6133 112.697 62.6133 112.125ZM63.9683 111.957V112.125C63.9683 112.521 64.0146 112.895 64.1074 113.246C64.2002 113.593 64.3394 113.9 64.5249 114.169C64.7153 114.438 64.9521 114.65 65.2354 114.806C65.5186 114.958 65.8481 115.033 66.2241 115.033C66.5952 115.033 66.9199 114.958 67.1982 114.806C67.4814 114.65 67.7158 114.438 67.9014 114.169C68.0869 113.9 68.2261 113.593 68.3188 113.246C68.4165 112.895 68.4653 112.521 68.4653 112.125V111.957C68.4653 111.566 68.4165 111.198 68.3188 110.851C68.2261 110.5 68.0845 110.189 67.894 109.921C67.7085 109.647 67.4741 109.433 67.1909 109.276C66.9126 109.12 66.5854 109.042 66.2095 109.042C65.8384 109.042 65.5112 109.12 65.228 109.276C64.9497 109.433 64.7153 109.647 64.5249 109.921C64.3394 110.189 64.2002 110.5 64.1074 110.851C64.0146 111.198 63.9683 111.566 63.9683 111.957ZM72.7818 109.32V116H71.4269V108.075H72.7452L72.7818 109.32ZM75.2574 108.031L75.2501 109.291C75.1378 109.267 75.0304 109.252 74.9278 109.247C74.8302 109.237 74.7179 109.232 74.5909 109.232C74.2784 109.232 74.0025 109.281 73.7633 109.379C73.524 109.477 73.3214 109.613 73.1554 109.789C72.9894 109.965 72.8575 110.175 72.7599 110.419C72.6671 110.658 72.6061 110.922 72.5768 111.21L72.1959 111.43C72.1959 110.951 72.2423 110.502 72.3351 110.082C72.4327 109.662 72.5816 109.291 72.7818 108.969C72.982 108.642 73.2359 108.388 73.5436 108.207C73.8561 108.021 74.2271 107.929 74.6568 107.929C74.7545 107.929 74.8668 107.941 74.9938 107.965C75.1207 107.985 75.2086 108.007 75.2574 108.031ZM77.7648 109.767V116H76.4099V108.075H77.6916L77.7648 109.767ZM77.4426 111.737L76.8786 111.715C76.8835 111.173 76.9641 110.673 77.1203 110.214C77.2766 109.75 77.4963 109.347 77.7795 109.005C78.0627 108.664 78.3996 108.4 78.7902 108.214C79.1857 108.024 79.6228 107.929 80.1013 107.929C80.4919 107.929 80.8435 107.982 81.156 108.09C81.4685 108.192 81.7346 108.358 81.9543 108.588C82.1789 108.817 82.3498 109.115 82.467 109.481C82.5842 109.843 82.6428 110.285 82.6428 110.807V116H81.2805V110.792C81.2805 110.377 81.2194 110.045 81.0974 109.796C80.9753 109.542 80.7971 109.359 80.5627 109.247C80.3283 109.13 80.0402 109.071 79.6984 109.071C79.3615 109.071 79.0539 109.142 78.7756 109.284C78.5021 109.425 78.2653 109.621 78.0651 109.87C77.8698 110.119 77.716 110.404 77.6037 110.727C77.4963 111.044 77.4426 111.381 77.4426 111.737ZM86.073 108.075V116H84.7107V108.075H86.073ZM84.6082 105.973C84.6082 105.753 84.6741 105.568 84.806 105.417C84.9427 105.265 85.1429 105.189 85.4065 105.189C85.6653 105.189 85.8631 105.265 85.9998 105.417C86.1414 105.568 86.2122 105.753 86.2122 105.973C86.2122 106.183 86.1414 106.364 85.9998 106.515C85.8631 106.662 85.6653 106.735 85.4065 106.735C85.1429 106.735 84.9427 106.662 84.806 106.515C84.6741 106.364 84.6082 106.183 84.6082 105.973ZM92.8212 114.645V110.565C92.8212 110.253 92.7577 109.982 92.6308 109.752C92.5087 109.518 92.3231 109.337 92.0741 109.21C91.8251 109.083 91.5175 109.02 91.1513 109.02C90.8095 109.02 90.5092 109.079 90.2504 109.196C89.9965 109.313 89.7963 109.467 89.6498 109.657C89.5082 109.848 89.4374 110.053 89.4374 110.272H88.0824C88.0824 109.989 88.1557 109.708 88.3021 109.43C88.4486 109.152 88.6586 108.9 88.932 108.676C89.2104 108.446 89.5424 108.266 89.9281 108.134C90.3187 107.997 90.7533 107.929 91.2318 107.929C91.808 107.929 92.3158 108.026 92.7553 108.222C93.1996 108.417 93.5463 108.712 93.7953 109.108C94.0492 109.499 94.1762 109.989 94.1762 110.58V114.271C94.1762 114.535 94.1981 114.816 94.2421 115.114C94.2909 115.412 94.3617 115.668 94.4545 115.883V116H93.0409C92.9726 115.844 92.9188 115.636 92.8798 115.377C92.8407 115.114 92.8212 114.87 92.8212 114.645ZM93.0556 111.195L93.0702 112.147H91.7006C91.3148 112.147 90.9706 112.179 90.6679 112.243C90.3651 112.301 90.1112 112.392 89.9062 112.514C89.7011 112.636 89.5448 112.79 89.4374 112.975C89.33 113.156 89.2763 113.368 89.2763 113.612C89.2763 113.861 89.3324 114.088 89.4447 114.293C89.557 114.499 89.7255 114.662 89.9501 114.784C90.1796 114.901 90.4604 114.96 90.7924 114.96C91.2074 114.96 91.5736 114.872 91.891 114.696C92.2084 114.521 92.4599 114.306 92.6454 114.052C92.8358 113.798 92.9384 113.551 92.953 113.312L93.5316 113.964C93.4975 114.169 93.4047 114.396 93.2533 114.645C93.102 114.894 92.8993 115.133 92.6454 115.363C92.3964 115.587 92.0985 115.775 91.7519 115.927C91.4101 116.073 91.0243 116.146 90.5946 116.146C90.0575 116.146 89.5863 116.042 89.1811 115.832C88.7807 115.622 88.4682 115.341 88.2436 114.989C88.0238 114.633 87.914 114.235 87.914 113.795C87.914 113.371 87.997 112.997 88.163 112.675C88.329 112.348 88.5683 112.077 88.8808 111.862C89.1933 111.642 89.5692 111.476 90.0087 111.364C90.4481 111.251 90.9389 111.195 91.4809 111.195H93.0556ZM97.438 114.389V115.48C97.438 115.924 97.3257 116.393 97.1011 116.886C96.8765 117.384 96.5615 117.799 96.1562 118.131L95.3872 117.597C95.5435 117.382 95.6753 117.162 95.7827 116.938C95.8901 116.718 95.9707 116.488 96.0244 116.249C96.083 116.015 96.1123 115.766 96.1123 115.502V114.389H97.438ZM108.993 105.336H110.4V112.55C110.4 113.351 110.221 114.018 109.865 114.55C109.508 115.082 109.035 115.482 108.444 115.751C107.858 116.015 107.221 116.146 106.532 116.146C105.81 116.146 105.155 116.015 104.57 115.751C103.988 115.482 103.527 115.082 103.185 114.55C102.848 114.018 102.68 113.351 102.68 112.55V105.336H104.079V112.55C104.079 113.107 104.181 113.566 104.386 113.927C104.592 114.289 104.877 114.557 105.243 114.733C105.614 114.909 106.044 114.997 106.532 114.997C107.026 114.997 107.455 114.909 107.821 114.733C108.193 114.557 108.481 114.289 108.686 113.927C108.891 113.566 108.993 113.107 108.993 112.55V105.336ZM118.202 113.305C118.202 113.056 118.163 112.836 118.085 112.646C118.012 112.45 117.88 112.274 117.69 112.118C117.504 111.962 117.245 111.813 116.913 111.671C116.586 111.53 116.171 111.386 115.668 111.239C115.141 111.083 114.665 110.91 114.24 110.719C113.815 110.524 113.451 110.302 113.149 110.053C112.846 109.804 112.614 109.518 112.453 109.196C112.292 108.874 112.211 108.505 112.211 108.09C112.211 107.675 112.297 107.292 112.468 106.94C112.638 106.588 112.883 106.283 113.2 106.024C113.522 105.761 113.906 105.556 114.35 105.409C114.794 105.263 115.29 105.189 115.837 105.189C116.637 105.189 117.316 105.343 117.873 105.651C118.434 105.954 118.862 106.352 119.155 106.845C119.448 107.333 119.594 107.855 119.594 108.412H118.188C118.188 108.012 118.102 107.658 117.931 107.35C117.761 107.038 117.502 106.793 117.155 106.618C116.808 106.437 116.369 106.347 115.837 106.347C115.334 106.347 114.919 106.422 114.592 106.574C114.264 106.725 114.02 106.93 113.859 107.189C113.703 107.448 113.625 107.743 113.625 108.075C113.625 108.3 113.671 108.505 113.764 108.69C113.862 108.871 114.011 109.04 114.211 109.196C114.416 109.352 114.675 109.496 114.987 109.628C115.304 109.76 115.683 109.887 116.122 110.009C116.728 110.18 117.25 110.37 117.69 110.58C118.129 110.79 118.491 111.027 118.774 111.291C119.062 111.549 119.274 111.845 119.411 112.177C119.553 112.504 119.623 112.875 119.623 113.29C119.623 113.725 119.535 114.118 119.36 114.469C119.184 114.821 118.932 115.121 118.605 115.37C118.278 115.619 117.885 115.812 117.426 115.949C116.972 116.081 116.464 116.146 115.903 116.146C115.409 116.146 114.924 116.078 114.445 115.941C113.971 115.805 113.539 115.6 113.149 115.326C112.763 115.053 112.453 114.716 112.219 114.315C111.989 113.91 111.874 113.441 111.874 112.909H113.281C113.281 113.275 113.351 113.59 113.493 113.854C113.635 114.113 113.827 114.328 114.072 114.499C114.321 114.669 114.601 114.796 114.914 114.879C115.231 114.958 115.561 114.997 115.903 114.997C116.396 114.997 116.813 114.928 117.155 114.792C117.497 114.655 117.756 114.459 117.931 114.206C118.112 113.952 118.202 113.651 118.202 113.305ZM125.273 106.281L121.743 116H120.3L124.365 105.336H125.295L125.273 106.281ZM128.232 116L124.694 106.281L124.672 105.336H125.602L129.682 116H128.232ZM128.049 112.052V113.209H122.058V112.052H128.049Z" fill="#161C2D"/>
<path d="M36.7295 31.7578V41H34.8252V31.7578H36.7295ZM40.4111 35.7061V37.1914H36.209V35.7061H40.4111ZM40.8555 31.7578V33.2495H36.209V31.7578H40.8555ZM48.6885 31.7578H50.5864V37.8643C50.5864 38.5752 50.4341 39.174 50.1294 39.6606C49.8289 40.1473 49.4121 40.5133 48.8789 40.7588C48.3499 41.0042 47.7406 41.127 47.0508 41.127C46.361 41.127 45.7474 41.0042 45.21 40.7588C44.6768 40.5133 44.2578 40.1473 43.9531 39.6606C43.6527 39.174 43.5024 38.5752 43.5024 37.8643V31.7578H45.4067V37.8643C45.4067 38.279 45.4723 38.6175 45.6035 38.8799C45.7347 39.1423 45.923 39.3348 46.1685 39.4575C46.4181 39.5802 46.7122 39.6416 47.0508 39.6416C47.3978 39.6416 47.6919 39.5802 47.9331 39.4575C48.1785 39.3348 48.3647 39.1423 48.4917 38.8799C48.6229 38.6175 48.6885 38.279 48.6885 37.8643V31.7578ZM59.7207 39.5146V41H55.0679V39.5146H59.7207ZM55.6836 31.7578V41H53.7793V31.7578H55.6836ZM68.3789 39.5146V41H63.7261V39.5146H68.3789ZM64.3418 31.7578V41H62.4375V31.7578H64.3418ZM74.5869 36.3154V37.75H71.0005V36.3154H74.5869ZM81.9819 31.7578V41H80.084V31.7578H81.9819ZM84.8257 31.7578V33.2495H77.2847V31.7578H84.8257ZM89.561 31.7578V41H87.6631V31.7578H89.561ZM93.8394 31.7578H95.4517L97.8257 38.5435L100.2 31.7578H101.812L98.4731 41H97.1782L93.8394 31.7578ZM92.9697 31.7578H94.5757L94.8677 38.3721V41H92.9697V31.7578ZM101.076 31.7578H102.688V41H100.784V38.3721L101.076 31.7578ZM112.184 39.5146V41H107.265V39.5146H112.184ZM107.887 31.7578V41H105.982V31.7578H107.887ZM111.543 35.522V36.9692H107.265V35.522H111.543ZM112.178 31.7578V33.2495H107.265V31.7578H112.178Z" fill="#68D585"/>
</g>
<defs>
<clipPath id="clip0_1_140">
<rect width="255" height="279" fill="white"/>
</clipPath>
<clipPath id="clip1_1_140">
<rect width="32" height="36" fill="white" transform="translate(32 209)"/>
</clipPath>
</defs>
</svg>
